<svg xmlns="http://www.w3.org/2000/svg" width="384" height="422" fill="none" viewBox="0 0 384 422"><path fill="#fff" d="M56.3237 385.806C131.251 433.052 252.749 433.052 327.676 385.806C402.603 338.561 402.612 261.966 327.676 214.72C252.74 167.475 131.251 167.475 56.3237 214.72C-18.6035 261.966 -18.6124 338.561 56.3237 385.806Z"/><path fill="#EBEBEB" d="M250.557 373.858C273.152 373.858 291.469 363.322 291.469 350.326C291.469 337.33 273.152 326.795 250.557 326.795C227.962 326.795 209.645 337.33 209.645 350.326C209.645 363.322 227.962 373.858 250.557 373.858Z"/><path fill="#EBEBEB" d="M323.033 320.192C340.465 320.192 354.597 312.064 354.597 302.038C354.597 292.012 340.465 283.884 323.033 283.884C305.601 283.884 291.469 292.012 291.469 302.038C291.469 312.064 305.601 320.192 323.033 320.192Z"/><path fill="#1B4159" d="M98.067 296.951C96.2847 285.594 89.7615 269.408 81.8037 260.385C74.1487 251.717 62.7867 248.694 58.2597 252.695C53.7327 256.696 56.7002 265.343 65.4869 275.882C75.4053 287.766 94.4489 320.74 98.067 339.421V296.951Z"/><g opacity=".2"><path fill="#000" d="M98.068 296.951C96.2857 285.594 89.7625 269.408 81.8046 260.385C74.1497 251.717 62.7877 248.694 58.2607 252.695C53.7337 256.696 56.7012 265.343 65.4878 275.882C75.4062 287.766 94.4499 320.74 98.068 339.421V296.951Z" opacity=".2"/></g><path fill="#B8B8B8" d="M98.0678 324.279C97.9562 324.277 97.849 324.225 97.7668 324.134C97.6847 324.043 97.6332 323.918 97.6223 323.784C95.3766 295.176 78.8013 263.02 62.8677 256.32C62.7565 256.271 62.6654 256.172 62.6138 256.043C62.5622 255.915 62.5542 255.767 62.5915 255.631C62.6319 255.497 62.7141 255.387 62.8206 255.325C62.9271 255.263 63.0495 255.253 63.1618 255.298C79.6836 262.235 96.2143 294.198 98.5312 323.687C98.5413 323.829 98.505 323.971 98.4301 324.081C98.3553 324.192 98.2477 324.262 98.1302 324.279H98.0678Z"/><path fill="#1B4159" d="M98.066 353.155C98.066 353.155 94.9827 356.123 84.6989 354.962C74.4151 353.8 69.1128 344.928 69.1128 341.12C69.1128 337.313 78.5679 336.657 80.6175 327.215C78.5326 329.911 75.759 331.687 72.7398 332.259C67.3929 333.474 63.0976 331.409 61.8768 319.654C64.5121 320.119 67.2006 319.85 69.7366 318.869C73.9696 317.223 74.9766 314.416 73.8715 313.814C72.7665 313.212 66.8672 313.814 63.0887 312.083C59.3103 310.351 62.1976 286.605 64.675 284.916C67.1523 283.228 78.8708 287.207 81.1522 289.336C83.184 291.229 86.0356 294.509 84.7167 301.446C86.279 299.684 87.4967 297.524 88.2813 295.122C89.3863 291.896 90.1883 292.649 91.8459 293.886C92.8412 294.563 93.7051 295.489 94.3798 296.602C95.0545 297.715 95.5244 298.989 95.758 300.339C96.159 303.35 95.5084 313.739 91.9974 317.116C91.9974 317.116 95.3659 317.632 98.1195 310.771C98.1195 310.771 103.466 313.373 104.678 317.589C105.89 321.805 107.209 342.443 98.066 353.155Z"/><path fill="#B8B8B8" d="M98.9767 355.5C98.8678 355.498 98.7629 355.45 98.6811 355.363C98.5993 355.276 98.5461 355.157 98.5311 355.026C96.1785 331.785 81.5371 301.253 67.1808 289.788C67.0815 289.708 67.0126 289.584 66.9892 289.443C66.9658 289.302 66.9898 289.155 67.056 289.035C67.1222 288.916 67.2251 288.832 67.3421 288.804C67.4591 288.776 67.5805 288.805 67.6798 288.885C82.2143 300.554 97.0875 331.398 99.4134 354.897C99.4285 355.038 99.3967 355.181 99.3249 355.294C99.2531 355.407 99.1471 355.481 99.0302 355.5H98.9767Z"/><path fill="#000" d="M99.876 358.747C99.3443 358.303 98.9062 357.715 98.5967 357.029C98.2873 356.344 98.115 355.581 98.0938 354.8V97.8596C98.1301 97.051 98.3242 96.2643 98.6603 95.5634C98.9963 94.8626 99.4648 94.2675 100.028 93.8265L233.699 0.669215C234.257 0.246283 234.901 0.0151627 235.56 0.000720915C236.22 -0.0137209 236.87 0.18906 237.441 0.587249C238.012 0.985438 238.482 1.56397 238.801 2.2606C239.12 2.95723 239.275 3.7456 239.251 4.54091L103.619 358.661C103.045 359.03 102.406 359.23 101.756 359.245C101.106 359.26 100.462 359.089 99.876 358.747Z"/><path fill="#41494E" d="M101.686 102.742L155.984 59.863L152.366 57.3357L100.002 93.8264C99.4394 94.2674 98.9709 94.8625 98.6349 95.5633C98.2989 96.2642 98.1047 97.0509 98.0684 97.8595V100.215L101.686 102.742Z"/><path fill="#41494E" d="M101.686 102.742L155.984 59.863L152.366 57.3357L100.002 93.8264C99.4394 94.2674 98.9709 94.8625 98.6349 95.5633C98.2989 96.2642 98.1047 97.0509 98.0684 97.8595V100.215L101.686 102.742Z" opacity=".2"/><path fill="#363E42" d="M119.819 110.303L98.6281 95.5903C98.2828 96.284 98.0896 97.0724 98.0667 97.8811V354.779C98.0437 355.573 98.2004 356.36 98.5199 357.055C98.8395 357.75 99.3099 358.327 99.8805 358.724C100.451 359.121 101.101 359.323 101.759 359.308C102.418 359.293 103.06 359.062 103.618 358.64L119.819 347.401V110.303Z"/><path fill="#363E42" d="M119.819 110.303L98.6281 95.5903C98.2828 96.284 98.0896 97.0724 98.0667 97.8811V354.779C98.0437 355.573 98.2004 356.36 98.5199 357.055C98.8395 357.75 99.3099 358.327 99.8805 358.724C100.451 359.121 101.101 359.323 101.759 359.308C102.418 359.293 103.06 359.062 103.618 358.64L119.819 347.401V110.303Z" opacity=".4"/><path fill="#1B4159" d="M103.617 358.661L237.289 265.504C237.851 265.063 238.32 264.468 238.656 263.767C238.992 263.066 239.186 262.28 239.222 261.471V4.54095C239.222 3.0568 238.331 2.45454 237.289 3.19661L103.617 96.354C103.055 96.7949 102.586 97.39 102.25 98.0909C101.914 98.7917 101.72 99.5784 101.684 100.387V357.317C101.684 358.801 102.548 359.403 103.617 358.661Z"/><path fill="#1B4159" d="M103.617 358.661L237.289 265.504C237.851 265.063 238.32 264.468 238.656 263.767C238.992 263.066 239.186 262.28 239.222 261.471V4.54095C239.222 3.0568 238.331 2.45454 237.289 3.19661L103.617 96.354C103.055 96.7949 102.586 97.39 102.25 98.0909C101.914 98.7917 101.72 99.5784 101.684 100.387V357.317C101.684 358.801 102.548 359.403 103.617 358.661Z" opacity=".1"/><path fill="#1B4159" d="M112.788 159.731L144.869 137.362C146.999 135.877 148.728 136.931 148.728 139.717C148.633 141.281 148.234 142.796 147.564 144.139C146.893 145.482 145.97 146.616 144.869 147.449L112.788 169.819C110.65 171.303 108.93 170.249 108.93 167.464C109.023 165.899 109.421 164.384 110.091 163.04C110.762 161.696 111.686 160.562 112.788 159.731Z"/><path fill="#1B4159" d="M112.788 175.605L134.024 160.807C136.154 159.323 137.883 160.377 137.883 163.162C137.788 164.726 137.389 166.241 136.718 167.584C136.048 168.928 135.125 170.062 134.024 170.895L112.788 185.693C110.65 187.177 108.93 186.123 108.93 183.338C109.023 181.773 109.421 180.258 110.091 178.914C110.762 177.57 111.686 176.436 112.788 175.605Z"/><path fill="#1B4159" d="M110.471 202.772L114.624 199.879C115.515 199.287 116.166 199.771 116.166 200.954V206.74C116.137 207.387 115.982 208.015 115.714 208.576C115.446 209.136 115.073 209.613 114.624 209.967L110.471 212.817C109.58 213.419 108.93 212.935 108.93 211.741V205.955C108.965 205.317 109.122 204.697 109.39 204.144C109.657 203.592 110.028 203.122 110.471 202.772Z"/><path fill="#000" d="M110.471 202.772L114.624 199.879C115.515 199.287 116.166 199.771 116.166 200.954V206.74C116.137 207.387 115.982 208.015 115.714 208.576C115.446 209.136 115.073 209.613 114.624 209.967L110.471 212.817C109.58 213.419 108.93 212.935 108.93 211.741V205.955C108.965 205.317 109.122 204.697 109.39 204.144C109.657 203.592 110.028 203.122 110.471 202.772Z" opacity=".2"/><path fill="#1B4159" d="M110.471 222.958L114.624 220.065C115.515 219.463 116.166 219.947 116.166 221.141V226.927C116.135 227.572 115.979 228.2 115.712 228.76C115.444 229.32 115.072 229.797 114.624 230.153L110.471 233.046C109.58 233.638 108.93 233.154 108.93 231.971V226.185C108.957 225.538 109.111 224.909 109.379 224.348C109.647 223.787 110.021 223.311 110.471 222.958Z"/><g opacity=".2"><path fill="#000" d="M110.473 222.958L114.626 220.065C115.517 219.463 116.168 219.947 116.168 221.141V226.927C116.137 227.572 115.981 228.2 115.714 228.76C115.446 229.32 115.073 229.797 114.626 230.153L110.473 233.046C109.582 233.638 108.932 233.154 108.932 231.971V226.185C108.959 225.538 109.113 224.909 109.381 224.348C109.649 223.787 110.023 223.311 110.473 222.958Z" opacity=".2"/></g><path fill="#1B4159" d="M121.719 217.646L146.813 200.148C147.883 199.406 148.747 199.933 148.747 201.331C148.699 202.112 148.499 202.869 148.163 203.54C147.827 204.211 147.364 204.777 146.813 205.192L121.719 222.69C120.65 223.432 119.785 222.905 119.785 221.507C119.834 220.725 120.034 219.968 120.37 219.297C120.706 218.626 121.168 218.061 121.719 217.646Z"/><path fill="#000" d="M121.719 217.646L146.813 200.148C147.883 199.406 148.747 199.933 148.747 201.331C148.699 202.112 148.499 202.869 148.163 203.54C147.827 204.211 147.364 204.777 146.813 205.192L121.719 222.69C120.65 223.432 119.785 222.905 119.785 221.507C119.834 220.725 120.034 219.968 120.37 219.297C120.706 218.626 121.168 218.061 121.719 217.646Z" opacity=".2"/><path fill="#000" d="M110.471 243.134L114.624 240.241C115.515 239.639 116.166 240.123 116.166 241.317V247.103C116.135 247.749 115.98 248.377 115.712 248.937C115.445 249.497 115.072 249.974 114.624 250.329L110.471 253.222C109.58 253.814 108.93 253.33 108.93 252.147V246.361C108.957 245.714 109.111 245.085 109.379 244.524C109.647 243.963 110.021 243.487 110.471 243.134Z"/><path fill="#F0F0F0" d="M121.719 237.821L146.813 220.345C147.883 219.603 148.747 220.13 148.747 221.528C148.7 222.31 148.5 223.068 148.164 223.739C147.828 224.41 147.365 224.975 146.813 225.389L121.719 242.887C120.65 243.629 119.785 243.102 119.785 241.704C119.831 240.918 120.03 240.157 120.366 239.482C120.702 238.808 121.166 238.239 121.719 237.821Z"/><path fill="#000" d="M110.471 263.364L114.624 260.471C115.515 259.869 116.166 260.353 116.166 261.546V267.333C116.135 267.978 115.98 268.606 115.712 269.167C115.445 269.727 115.072 270.204 114.624 270.559L110.471 273.452C109.58 274.043 108.93 273.56 108.93 272.376V266.59C108.957 265.944 109.111 265.314 109.379 264.754C109.647 264.193 110.021 263.717 110.471 263.364Z"/><path fill="#F0F0F0" d="M121.719 258.051L146.813 240.564C147.883 239.811 148.747 240.349 148.747 241.736C148.7 242.52 148.501 243.279 148.164 243.951C147.828 244.624 147.366 245.192 146.813 245.608L121.719 263.095C120.65 263.837 119.785 263.31 119.785 261.912C119.834 261.13 120.034 260.373 120.37 259.703C120.706 259.032 121.168 258.466 121.719 258.051Z"/><path fill="#000" d="M110.471 283.54L114.624 280.647C115.515 280.044 116.166 280.528 116.166 281.722V287.508C116.135 288.154 115.98 288.782 115.712 289.342C115.445 289.903 115.072 290.379 114.624 290.734L110.471 293.628C109.58 294.219 108.93 293.735 108.93 292.552V286.766C108.957 286.119 109.111 285.49 109.379 284.929C109.647 284.368 110.021 283.892 110.471 283.54Z"/><path fill="#F0F0F0" d="M121.719 278.227L146.813 260.74C147.883 259.987 148.747 260.525 148.747 261.912C148.7 262.695 148.501 263.454 148.164 264.127C147.828 264.8 147.366 265.368 146.813 265.784L121.719 283.271C120.65 284.013 119.785 283.486 119.785 282.088C119.834 281.306 120.034 280.549 120.37 279.879C120.706 279.208 121.168 278.642 121.719 278.227Z"/><path fill="#1B4159" d="M110.855 303.393L128.677 290.95C129.747 290.208 130.611 290.735 130.611 292.133C130.563 292.914 130.362 293.671 130.026 294.342C129.69 295.013 129.228 295.579 128.677 295.994L110.855 308.437C109.794 309.179 108.93 308.652 108.93 307.265C108.976 306.482 109.175 305.724 109.509 305.052C109.844 304.379 110.305 303.811 110.855 303.393Z"/><path fill="#1B4159" d="M110.855 313.481L146.812 288.433C147.881 287.691 148.746 288.218 148.746 289.605C148.699 290.389 148.499 291.148 148.163 291.821C147.827 292.493 147.364 293.061 146.812 293.477L110.855 318.525C109.794 319.267 108.93 318.74 108.93 317.353C108.976 316.57 109.175 315.812 109.509 315.14C109.844 314.467 110.305 313.899 110.855 313.481Z"/><path fill="#B8B8B8" d="M110.855 313.481L146.812 288.433C147.881 287.691 148.746 288.218 148.746 289.605C148.699 290.389 148.499 291.148 148.163 291.821C147.827 292.493 147.364 293.061 146.812 293.477L110.855 318.525C109.794 319.267 108.93 318.74 108.93 317.353C108.976 316.57 109.175 315.812 109.509 315.14C109.844 314.467 110.305 313.899 110.855 313.481Z" opacity=".8"/><path fill="#1B4159" d="M110.855 313.481L135.958 295.994C137.018 295.252 137.883 295.779 137.883 297.177C137.835 297.957 137.635 298.713 137.301 299.384C136.967 300.054 136.507 300.621 135.958 301.038L110.855 318.525C109.794 319.267 108.93 318.74 108.93 317.352C108.976 316.57 109.175 315.812 109.509 315.14C109.844 314.467 110.305 313.899 110.855 313.481Z"/><path fill="#1B4159" d="M110.855 323.59L128.677 311.147C129.747 310.405 130.611 310.932 130.611 312.33C130.563 313.112 130.362 313.868 130.026 314.539C129.69 315.21 129.228 315.776 128.677 316.191L110.855 328.634C109.794 329.376 108.93 328.849 108.93 327.462C108.976 326.68 109.175 325.921 109.509 325.249C109.844 324.576 110.305 324.008 110.855 323.59Z"/><path fill="#1B4159" d="M121.719 197.459L146.813 179.972C147.883 179.23 148.747 179.757 148.747 181.155C148.699 181.936 148.499 182.693 148.163 183.364C147.827 184.035 147.364 184.601 146.813 185.016L121.719 202.503C120.65 203.245 119.785 202.718 119.785 201.331C119.832 200.547 120.032 199.788 120.368 199.115C120.704 198.442 121.167 197.875 121.719 197.459Z"/><path fill="#000" d="M121.719 197.459L146.813 179.972C147.883 179.23 148.747 179.757 148.747 181.155C148.699 181.936 148.499 182.693 148.163 183.364C147.827 184.035 147.364 184.601 146.813 185.016L121.719 202.503C120.65 203.245 119.785 202.718 119.785 201.331C119.832 200.547 120.032 199.788 120.368 199.115C120.704 198.442 121.167 197.875 121.719 197.459Z" opacity=".2"/><path fill="#1B4159" d="M110.855 323.59L128.677 311.147C129.747 310.405 130.611 310.932 130.611 312.33C130.563 313.112 130.362 313.868 130.026 314.539C129.69 315.21 129.228 315.776 128.677 316.191L110.855 328.634C109.794 329.376 108.93 328.849 108.93 327.462C108.976 326.68 109.175 325.921 109.509 325.249C109.844 324.576 110.305 324.008 110.855 323.59Z"/><path fill="#1B4159" d="M110.855 333.646L146.812 308.598C147.881 307.856 148.746 308.383 148.746 309.77C148.699 310.554 148.499 311.313 148.163 311.986C147.827 312.658 147.364 313.226 146.812 313.642L110.855 338.647C109.794 339.4 108.93 338.862 108.93 337.475C108.982 336.7 109.183 335.95 109.517 335.286C109.851 334.621 110.309 334.06 110.855 333.646Z"/><path fill="#B8B8B8" d="M110.855 333.646L146.812 308.598C147.881 307.856 148.746 308.383 148.746 309.77C148.699 310.554 148.499 311.313 148.163 311.986C147.827 312.658 147.364 313.226 146.812 313.642L110.855 338.647C109.794 339.4 108.93 338.862 108.93 337.475C108.982 336.7 109.183 335.95 109.517 335.286C109.851 334.621 110.309 334.06 110.855 333.646Z" opacity=".8"/><path fill="#1B4159" d="M110.855 333.646L143.194 311.061C144.263 310.319 145.128 310.846 145.128 312.244C145.079 313.026 144.879 313.783 144.543 314.453C144.207 315.124 143.745 315.69 143.194 316.105L110.855 338.69C109.794 339.443 108.93 338.905 108.93 337.518C108.976 336.735 109.175 335.977 109.509 335.305C109.844 334.632 110.305 334.064 110.855 333.646Z"/><path fill="#EBEBEB" d="M237.308 3.19658L155.982 59.8632V322.171L237.308 265.515C237.871 265.074 238.339 264.479 238.675 263.778C239.011 263.077 239.205 262.29 239.242 261.482V4.54092C239.233 3.09979 238.342 2.4545 237.308 3.19658Z"/><path fill="#FAFAFA" d="M237.308 3.19658L155.982 59.8632V322.171L237.308 265.515C237.871 265.074 238.339 264.479 238.675 263.778C239.011 263.077 239.205 262.29 239.242 261.482V4.54092C239.233 3.09979 238.342 2.4545 237.308 3.19658Z" opacity=".6"/><path fill="#1B4159" d="M155.982 69.9511V90.1269L148.746 100.215H155.982V120.391L231.997 67.4237V16.9841L155.982 69.9511Z"/><g opacity=".6"><path fill="#B8B8B8" d="M165.927 70.6501L196.725 49.1406C198.213 48.0652 199.399 48.947 199.399 51.0227C199.349 52.1505 199.082 53.2487 198.618 54.2292C198.154 55.2097 197.505 56.0453 196.725 56.6689L165.927 78.1246C164.43 79.2001 163.254 78.3182 163.254 76.2425C163.308 75.1234 163.577 74.035 164.042 73.0641C164.506 72.0931 165.152 71.2665 165.927 70.6501Z" opacity=".6"/></g><path fill="#1B4159" d="M164.189 86.9865L223.797 45.4518C224.332 45.0862 224.76 45.3443 224.76 46.0433C224.737 46.4346 224.638 46.8138 224.47 47.1501C224.303 47.4865 224.073 47.7705 223.797 47.9792L164.189 89.4601C163.654 89.8258 163.227 89.5677 163.227 88.8686C163.256 88.4867 163.359 88.1183 163.526 87.7918C163.692 87.4654 163.919 87.1899 164.189 86.9865Z"/><path fill="#1B4159" d="M164.189 86.9865L223.797 45.4518C224.332 45.0862 224.76 45.3443 224.76 46.0433C224.737 46.4346 224.638 46.8138 224.47 47.1501C224.303 47.4865 224.073 47.7705 223.797 47.9792L164.189 89.4601C163.654 89.8258 163.227 89.5677 163.227 88.8686C163.256 88.4867 163.359 88.1183 163.526 87.7918C163.692 87.4654 163.919 87.1899 164.189 86.9865Z"/><path fill="#B8B8B8" d="M164.189 86.9865L223.797 45.4518C224.332 45.0862 224.76 45.3443 224.76 46.0433C224.737 46.4346 224.638 46.8138 224.47 47.1501C224.303 47.4865 224.073 47.7705 223.797 47.9792L164.189 89.4601C163.654 89.8258 163.227 89.5677 163.227 88.8686C163.256 88.4867 163.359 88.1183 163.526 87.7918C163.692 87.4654 163.919 87.1899 164.189 86.9865Z" opacity=".6"/><path fill="#1B4159" d="M164.189 94.515L223.797 52.9803C224.332 52.6038 224.76 52.8727 224.76 53.5718C224.737 53.9616 224.638 54.3393 224.47 54.6739C224.303 55.0085 224.072 55.2906 223.797 55.4969L164.189 97.0316C163.654 97.408 163.227 97.1391 163.227 96.4401C163.25 96.0502 163.349 95.6725 163.516 95.3379C163.683 95.0033 163.914 94.7213 164.189 94.515Z"/><path fill="#B8B8B8" d="M164.189 94.515L223.797 52.9803C224.332 52.6038 224.76 52.8727 224.76 53.5718C224.737 53.9616 224.638 54.3393 224.47 54.6739C224.303 55.0085 224.072 55.2906 223.797 55.4969L164.189 97.0316C163.654 97.408 163.227 97.1391 163.227 96.4401C163.25 96.0502 163.349 95.6725 163.516 95.3379C163.683 95.0033 163.914 94.7213 164.189 94.515Z" opacity=".6"/><path fill="#B8B8B8" d="M164.189 102.043L223.797 60.5085C224.332 60.1428 224.76 60.4009 224.76 61.1C224.737 61.4912 224.638 61.8704 224.47 62.2068C224.303 62.5431 224.073 62.8272 223.797 63.0358L164.189 104.571C163.654 104.936 163.227 104.678 163.227 103.979C163.25 103.588 163.349 103.209 163.516 102.872C163.683 102.536 163.914 102.252 164.189 102.043Z" opacity=".6"/><path fill="#1B4159" d="M166.435 123.23L170.614 120.326C171.505 119.724 172.156 120.208 172.156 121.402V127.188C172.126 127.834 171.971 128.462 171.704 129.023C171.436 129.583 171.063 130.06 170.614 130.414L166.462 133.307C165.57 133.899 164.92 133.415 164.92 132.232V126.456C164.944 125.813 165.094 125.185 165.358 124.625C165.621 124.064 165.99 123.586 166.435 123.23Z"/><path fill="#B8B8B8" d="M166.435 123.23L170.614 120.326C171.505 119.724 172.156 120.208 172.156 121.402V127.188C172.126 127.834 171.971 128.462 171.704 129.023C171.436 129.583 171.063 130.06 170.614 130.414L166.462 133.307C165.57 133.899 164.92 133.415 164.92 132.232V126.456C164.944 125.813 165.094 125.185 165.358 124.625C165.621 124.064 165.99 123.586 166.435 123.23Z" opacity=".2"/><path fill="#1B4159" d="M177.682 117.917L202.776 100.419C203.846 99.6771 204.71 100.204 204.71 101.602C204.662 102.384 204.461 103.141 204.125 103.811C203.789 104.482 203.327 105.048 202.776 105.463L177.682 122.961C176.612 123.703 175.748 123.176 175.748 121.778C175.796 120.996 175.997 120.24 176.333 119.569C176.669 118.898 177.131 118.332 177.682 117.917Z"/><path fill="#B8B8B8" d="M177.682 117.917L202.776 100.419C203.846 99.6771 204.71 100.204 204.71 101.602C204.662 102.384 204.461 103.141 204.125 103.811C203.789 104.482 203.327 105.048 202.776 105.463L177.682 122.961C176.612 123.703 175.748 123.176 175.748 121.778C175.796 120.996 175.997 120.24 176.333 119.569C176.669 118.898 177.131 118.332 177.682 117.917Z" opacity=".8"/><path fill="#1B4159" d="M165.857 141.298L229.128 97.2035C229.663 96.8271 230.09 97.0959 230.09 97.7842C230.068 98.1757 229.969 98.5552 229.802 98.8917C229.635 99.2282 229.404 99.5121 229.128 99.7201L165.857 143.814C165.322 144.191 164.895 143.922 164.895 143.223C164.918 142.833 165.017 142.455 165.184 142.121C165.351 141.786 165.582 141.504 165.857 141.298Z"/><path fill="#1B4159" d="M165.857 148.858L229.128 104.764C229.663 104.398 230.09 104.657 230.09 105.356C230.067 105.747 229.968 106.126 229.801 106.462C229.634 106.799 229.403 107.083 229.128 107.291L165.857 151.386C165.322 151.751 164.895 151.493 164.895 150.794C164.918 150.403 165.017 150.024 165.184 149.687C165.351 149.351 165.582 149.067 165.857 148.858Z"/><path fill="#1B4159" d="M165.857 156.43L229.128 112.336C229.663 111.959 230.09 112.228 230.09 112.916C230.068 113.308 229.969 113.687 229.802 114.024C229.635 114.36 229.404 114.644 229.128 114.852L165.857 158.946C165.322 159.323 164.895 159.054 164.895 158.366C164.917 157.974 165.016 157.595 165.183 157.258C165.35 156.922 165.581 156.638 165.857 156.43Z"/><path fill="#1B4159" d="M165.857 164.012L229.128 119.917C229.663 119.552 230.09 119.81 230.09 120.509C230.067 120.9 229.968 121.279 229.801 121.616C229.634 121.952 229.403 122.236 229.128 122.445L165.857 166.539C165.322 166.905 164.895 166.647 164.895 165.948C164.918 165.556 165.017 165.177 165.184 164.841C165.351 164.504 165.582 164.22 165.857 164.012Z"/><path fill="#000" d="M165.857 141.298L229.128 97.2035C229.663 96.8271 230.09 97.0959 230.09 97.7842C230.068 98.1757 229.969 98.5552 229.802 98.8917C229.635 99.2282 229.404 99.5121 229.128 99.7201L165.857 143.814C165.322 144.191 164.895 143.922 164.895 143.223C164.918 142.833 165.017 142.455 165.184 142.121C165.351 141.786 165.582 141.504 165.857 141.298Z"/><path fill="#000" d="M165.857 148.858L229.128 104.764C229.663 104.398 230.09 104.657 230.09 105.356C230.067 105.747 229.968 106.126 229.801 106.462C229.634 106.799 229.403 107.083 229.128 107.291L165.857 151.386C165.322 151.751 164.895 151.493 164.895 150.794C164.918 150.403 165.017 150.024 165.184 149.687C165.351 149.351 165.582 149.067 165.857 148.858Z"/><path fill="#000" d="M165.857 156.43L229.128 112.336C229.663 111.959 230.09 112.228 230.09 112.916C230.068 113.308 229.969 113.687 229.802 114.024C229.635 114.36 229.404 114.644 229.128 114.852L165.857 158.946C165.322 159.323 164.895 159.054 164.895 158.366C164.917 157.974 165.016 157.595 165.183 157.258C165.35 156.922 165.581 156.638 165.857 156.43Z"/><path fill="#000" d="M165.857 164.012L229.128 119.917C229.663 119.552 230.09 119.81 230.09 120.509C230.067 120.9 229.968 121.279 229.801 121.616C229.634 121.952 229.403 122.236 229.128 122.445L165.857 166.539C165.322 166.905 164.895 166.647 164.895 165.948C164.918 165.556 165.017 165.177 165.184 164.841C165.351 164.504 165.582 164.22 165.857 164.012Z"/><path fill="#000" d="M165.857 141.298L229.128 97.2035C229.663 96.8271 230.09 97.0959 230.09 97.7842C230.068 98.1757 229.969 98.5552 229.802 98.8917C229.635 99.2282 229.404 99.5121 229.128 99.7201L165.857 143.814C165.322 144.191 164.895 143.922 164.895 143.223C164.918 142.833 165.017 142.455 165.184 142.121C165.351 141.786 165.582 141.504 165.857 141.298Z" opacity=".8"/><path fill="#000" d="M165.857 148.858L229.128 104.764C229.663 104.398 230.09 104.657 230.09 105.356C230.067 105.747 229.968 106.126 229.801 106.462C229.634 106.799 229.403 107.083 229.128 107.291L165.857 151.386C165.322 151.751 164.895 151.493 164.895 150.794C164.918 150.403 165.017 150.024 165.184 149.687C165.351 149.351 165.582 149.067 165.857 148.858Z" opacity=".8"/><path fill="#000" d="M165.857 156.43L229.128 112.336C229.663 111.959 230.09 112.228 230.09 112.916C230.068 113.308 229.969 113.687 229.802 114.024C229.635 114.36 229.404 114.644 229.128 114.852L165.857 158.946C165.322 159.323 164.895 159.054 164.895 158.366C164.917 157.974 165.016 157.595 165.183 157.258C165.35 156.922 165.581 156.638 165.857 156.43Z" opacity=".8"/><path fill="#000" d="M165.857 164.012L229.128 119.917C229.663 119.552 230.09 119.81 230.09 120.509C230.067 120.9 229.968 121.279 229.801 121.616C229.634 121.952 229.403 122.236 229.128 122.445L165.857 166.539C165.322 166.905 164.895 166.647 164.895 165.948C164.918 165.556 165.017 165.177 165.184 164.841C165.351 164.504 165.582 164.22 165.857 164.012Z" opacity=".8"/><path fill="#000" d="M165.857 196.147L229.128 152.053C229.663 151.676 230.09 151.945 230.09 152.633C230.068 153.025 229.969 153.404 229.802 153.741C229.635 154.077 229.404 154.361 229.128 154.569L165.857 198.664C165.322 199.04 164.895 198.771 164.895 198.072C164.918 197.682 165.017 197.304 165.184 196.97C165.351 196.635 165.582 196.353 165.857 196.147Z"/><path fill="#000" d="M165.857 203.707L229.128 159.613C229.663 159.247 230.09 159.505 230.09 160.204C230.067 160.596 229.968 160.975 229.801 161.311C229.634 161.648 229.403 161.932 229.128 162.14L165.857 206.235C165.322 206.6 164.895 206.342 164.895 205.643C164.918 205.252 165.017 204.873 165.184 204.536C165.351 204.2 165.582 203.916 165.857 203.707Z"/><path fill="#000" d="M165.857 211.279L229.128 167.184C229.663 166.808 230.09 167.077 230.09 167.765C230.068 168.157 229.969 168.536 229.802 168.873C229.635 169.209 229.404 169.493 229.128 169.701L165.857 213.795C165.322 214.172 164.895 213.903 164.895 213.215C164.917 212.823 165.016 212.444 165.183 212.107C165.35 211.771 165.581 211.487 165.857 211.279Z"/><path fill="#000" d="M165.857 218.861L229.128 174.767C229.663 174.401 230.09 174.659 230.09 175.358C230.067 175.749 229.968 176.128 229.801 176.465C229.634 176.801 229.403 177.085 229.128 177.294L165.857 221.388C165.322 221.754 164.895 221.496 164.895 220.797C164.918 220.405 165.017 220.026 165.184 219.69C165.351 219.354 165.582 219.07 165.857 218.861Z"/><path fill="#000" d="M165.857 196.147L229.128 152.053C229.663 151.676 230.09 151.945 230.09 152.633C230.068 153.025 229.969 153.404 229.802 153.741C229.635 154.077 229.404 154.361 229.128 154.569L165.857 198.664C165.322 199.04 164.895 198.771 164.895 198.072C164.918 197.682 165.017 197.304 165.184 196.97C165.351 196.635 165.582 196.353 165.857 196.147Z" opacity=".8"/><path fill="#000" d="M165.857 203.707L229.128 159.613C229.663 159.247 230.09 159.505 230.09 160.204C230.067 160.596 229.968 160.975 229.801 161.311C229.634 161.648 229.403 161.932 229.128 162.14L165.857 206.235C165.322 206.6 164.895 206.342 164.895 205.643C164.918 205.252 165.017 204.873 165.184 204.536C165.351 204.2 165.582 203.916 165.857 203.707Z" opacity=".8"/><path fill="#000" d="M165.857 211.279L229.128 167.184C229.663 166.808 230.09 167.077 230.09 167.765C230.068 168.157 229.969 168.536 229.802 168.873C229.635 169.209 229.404 169.493 229.128 169.701L165.857 213.795C165.322 214.172 164.895 213.903 164.895 213.215C164.917 212.823 165.016 212.444 165.183 212.107C165.35 211.771 165.581 211.487 165.857 211.279Z" opacity=".8"/><path fill="#000" d="M165.857 218.861L229.128 174.767C229.663 174.401 230.09 174.659 230.09 175.358C230.067 175.749 229.968 176.128 229.801 176.465C229.634 176.801 229.403 177.085 229.128 177.294L165.857 221.388C165.322 221.754 164.895 221.496 164.895 220.797C164.918 220.405 165.017 220.026 165.184 219.69C165.351 219.354 165.582 219.07 165.857 218.861Z" opacity=".8"/><path fill="#000" d="M165.857 252.071L229.128 207.977C229.663 207.601 230.09 207.87 230.09 208.558C230.068 208.949 229.969 209.329 229.802 209.665C229.635 210.002 229.404 210.286 229.128 210.494L165.857 254.588C165.322 254.965 164.895 254.696 164.895 253.997C164.918 253.607 165.017 253.229 165.184 252.894C165.351 252.56 165.582 252.278 165.857 252.071Z"/><path fill="#000" d="M165.857 259.632L229.128 215.538C229.663 215.172 230.09 215.43 230.09 216.129C230.067 216.52 229.968 216.899 229.801 217.236C229.634 217.572 229.403 217.856 229.128 218.065L165.857 262.159C165.322 262.525 164.895 262.267 164.895 261.568C164.918 261.176 165.017 260.797 165.184 260.461C165.351 260.125 165.582 259.841 165.857 259.632Z"/><path fill="#000" d="M165.857 267.203L229.128 223.109C229.663 222.733 230.09 223.001 230.09 223.69C230.068 224.081 229.969 224.461 229.802 224.797C229.635 225.134 229.404 225.418 229.128 225.626L165.857 269.72C165.322 270.096 164.895 269.827 164.895 269.139C164.917 268.748 165.016 268.368 165.183 268.032C165.35 267.695 165.581 267.411 165.857 267.203Z"/><path fill="#000" d="M165.857 274.785L229.128 230.691C229.663 230.325 230.09 230.584 230.09 231.283C230.067 231.674 229.968 232.053 229.801 232.389C229.634 232.726 229.403 233.01 229.128 233.218L165.857 277.313C165.322 277.678 164.895 277.42 164.895 276.721C164.918 276.33 165.017 275.951 165.184 275.614C165.351 275.278 165.582 274.994 165.857 274.785Z"/><path fill="#000" d="M165.857 252.071L229.128 207.977C229.663 207.601 230.09 207.87 230.09 208.558C230.068 208.949 229.969 209.329 229.802 209.665C229.635 210.002 229.404 210.286 229.128 210.494L165.857 254.588C165.322 254.965 164.895 254.696 164.895 253.997C164.918 253.607 165.017 253.229 165.184 252.894C165.351 252.56 165.582 252.278 165.857 252.071Z" opacity=".8"/><path fill="#000" d="M165.857 259.632L229.128 215.538C229.663 215.172 230.09 215.43 230.09 216.129C230.067 216.52 229.968 216.899 229.801 217.236C229.634 217.572 229.403 217.856 229.128 218.065L165.857 262.159C165.322 262.525 164.895 262.267 164.895 261.568C164.918 261.176 165.017 260.797 165.184 260.461C165.351 260.125 165.582 259.841 165.857 259.632Z" opacity=".8"/><path fill="#000" d="M165.857 267.203L229.128 223.109C229.663 222.733 230.09 223.001 230.09 223.69C230.068 224.081 229.969 224.461 229.802 224.797C229.635 225.134 229.404 225.418 229.128 225.626L165.857 269.72C165.322 270.096 164.895 269.827 164.895 269.139C164.917 268.748 165.016 268.368 165.183 268.032C165.35 267.695 165.581 267.411 165.857 267.203Z" opacity=".8"/><path fill="#000" d="M165.857 274.785L229.128 230.691C229.663 230.325 230.09 230.584 230.09 231.283C230.067 231.674 229.968 232.053 229.801 232.389C229.634 232.726 229.403 233.01 229.128 233.218L165.857 277.313C165.322 277.678 164.895 277.42 164.895 276.721C164.918 276.33 165.017 275.951 165.184 275.614C165.351 275.278 165.582 274.994 165.857 274.785Z" opacity=".8"/><path fill="#1B4159" d="M166.435 178.713L170.614 175.82C171.505 175.229 172.156 175.713 172.156 176.896V182.703C172.128 183.35 171.974 183.979 171.706 184.54C171.438 185.101 171.064 185.577 170.614 185.93L166.462 188.823C165.57 189.414 164.92 188.941 164.92 187.747V181.961C164.942 181.314 165.091 180.682 165.355 180.118C165.618 179.554 165.988 179.072 166.435 178.713Z"/><path fill="#B8B8B8" d="M166.435 178.713L170.614 175.82C171.505 175.229 172.156 175.713 172.156 176.896V182.703C172.128 183.35 171.974 183.979 171.706 184.54C171.438 185.101 171.064 185.577 170.614 185.93L166.462 188.823C165.57 189.414 164.92 188.941 164.92 187.747V181.961C164.942 181.314 165.091 180.682 165.355 180.118C165.618 179.554 165.988 179.072 166.435 178.713Z" opacity=".2"/><path fill="#1B4159" d="M177.682 173.401L202.776 155.913C203.846 155.171 204.71 155.698 204.71 157.086C204.663 157.869 204.463 158.628 204.127 159.301C203.791 159.974 203.328 160.541 202.776 160.957L177.682 178.401C176.612 179.144 175.748 178.617 175.748 177.229C175.801 176.453 176.003 175.703 176.339 175.038C176.674 174.373 177.134 173.812 177.682 173.401Z"/><path fill="#B8B8B8" d="M177.682 173.401L202.776 155.913C203.846 155.171 204.71 155.698 204.71 157.086C204.663 157.869 204.463 158.628 204.127 159.301C203.791 159.974 203.328 160.541 202.776 160.957L177.682 178.401C176.612 179.144 175.748 178.617 175.748 177.229C175.801 176.453 176.003 175.703 176.339 175.038C176.674 174.373 177.134 173.812 177.682 173.401Z" opacity=".8"/><path fill="#1B4159" d="M166.435 234.208L170.614 231.315C171.505 230.713 172.156 231.196 172.156 232.39V238.176C172.128 238.823 171.973 239.452 171.706 240.012C171.438 240.573 171.064 241.049 170.614 241.403L166.462 244.296C165.57 244.887 164.92 244.403 164.92 243.22V237.434C164.944 236.791 165.094 236.163 165.358 235.602C165.621 235.042 165.99 234.564 166.435 234.208Z"/><path fill="#B8B8B8" d="M166.435 234.208L170.614 231.315C171.505 230.713 172.156 231.196 172.156 232.39V238.176C172.128 238.823 171.973 239.452 171.706 240.012C171.438 240.573 171.064 241.049 170.614 241.403L166.462 244.296C165.57 244.887 164.92 244.403 164.92 243.22V237.434C164.944 236.791 165.094 236.163 165.358 235.602C165.621 235.042 165.99 234.564 166.435 234.208Z" opacity=".2"/><path fill="#1B4159" d="M177.682 228.949L202.776 211.451C203.846 210.709 204.71 211.236 204.71 212.634C204.662 213.417 204.462 214.176 204.126 214.849C203.79 215.521 203.328 216.089 202.776 216.506L177.682 233.993C176.612 234.735 175.748 234.208 175.748 232.81C175.796 232.028 175.997 231.271 176.333 230.6C176.669 229.93 177.131 229.364 177.682 228.949Z"/><path fill="#B8B8B8" d="M177.682 228.949L202.776 211.451C203.846 210.709 204.71 211.236 204.71 212.634C204.662 213.417 204.462 214.176 204.126 214.849C203.79 215.521 203.328 216.089 202.776 216.506L177.682 233.993C176.612 234.735 175.748 234.208 175.748 232.81C175.796 232.028 175.997 231.271 176.333 230.6C176.669 229.93 177.131 229.364 177.682 228.949Z" opacity=".8"/><path fill="#1B4159" d="M172.342 283.056L176.495 280.163C177.386 279.571 178.046 280.055 178.046 281.238V287.024C178.017 287.671 177.861 288.301 177.591 288.862C177.322 289.423 176.946 289.899 176.495 290.251L172.342 293.144C171.496 293.746 170.801 293.262 170.801 292.068V286.282C170.832 285.637 170.987 285.009 171.255 284.448C171.523 283.888 171.895 283.411 172.342 283.056Z"/><path fill="#000" d="M165.857 302.715L182.994 290.778C183.528 290.412 183.956 290.67 183.956 291.369C183.933 291.76 183.834 292.139 183.667 292.476C183.499 292.812 183.269 293.096 182.994 293.305L165.857 305.243C165.322 305.608 164.895 305.35 164.895 304.651C164.918 304.26 165.017 303.881 165.184 303.544C165.351 303.208 165.582 302.924 165.857 302.715Z"/><path fill="#1B4159" d="M195.398 266.988L199.551 264.095C200.398 263.504 201.093 263.988 201.093 265.171V270.957C201.064 271.603 200.909 272.232 200.641 272.792C200.373 273.353 200 273.829 199.551 274.183L195.398 277.076C194.507 277.668 193.848 277.194 193.848 276.001V270.215C193.878 269.568 194.034 268.938 194.303 268.378C194.572 267.817 194.948 267.341 195.398 266.988Z"/><path fill="#000" d="M188.9 286.648L206.037 274.71C206.571 274.334 206.999 274.602 206.999 275.302C206.976 275.691 206.877 276.069 206.71 276.404C206.542 276.738 206.312 277.02 206.037 277.227L188.9 289.175C188.365 289.552 187.938 289.283 187.938 288.594C187.958 288.201 188.057 287.819 188.224 287.481C188.391 287.142 188.623 286.857 188.9 286.648Z"/><path fill="#1B4159" d="M218.442 250.921L222.595 248.028C223.441 247.425 224.136 247.909 224.136 249.103V254.889C224.106 255.535 223.951 256.163 223.683 256.723C223.415 257.284 223.043 257.76 222.595 258.116L218.442 261.009C217.551 261.6 216.9 261.116 216.9 259.933V254.147C216.928 253.501 217.082 252.871 217.35 252.31C217.618 251.749 217.992 251.273 218.442 250.921Z"/><path fill="#B8B8B8" d="M172.342 283.056L176.495 280.163C177.386 279.571 178.046 280.055 178.046 281.238V287.024C178.017 287.671 177.861 288.301 177.591 288.862C177.322 289.423 176.946 289.899 176.495 290.251L172.342 293.144C171.496 293.746 170.801 293.262 170.801 292.068V286.282C170.832 285.637 170.987 285.009 171.255 284.448C171.523 283.888 171.895 283.411 172.342 283.056Z" opacity=".2"/><path fill="#B8B8B8" d="M195.398 266.988L199.551 264.095C200.398 263.504 201.093 263.988 201.093 265.171V270.957C201.064 271.603 200.909 272.232 200.641 272.792C200.373 273.353 200 273.829 199.551 274.183L195.398 277.076C194.507 277.668 193.848 277.194 193.848 276.001V270.215C193.878 269.568 194.034 268.938 194.303 268.378C194.572 267.817 194.948 267.341 195.398 266.988Z" opacity=".2"/><path fill="#B8B8B8" d="M218.442 250.921L222.595 248.028C223.441 247.425 224.136 247.909 224.136 249.103V254.889C224.106 255.535 223.951 256.163 223.683 256.723C223.415 257.284 223.043 257.76 222.595 258.116L218.442 261.009C217.551 261.6 216.9 261.116 216.9 259.933V254.147C216.928 253.501 217.082 252.871 217.35 252.31C217.618 251.749 217.992 251.273 218.442 250.921Z" opacity=".2"/><path fill="#000" d="M211.945 270.58L229.082 258.642C229.616 258.266 230.044 258.535 230.044 259.223C230.022 259.615 229.923 259.994 229.755 260.331C229.588 260.667 229.357 260.951 229.082 261.159L211.945 273.097C211.419 273.473 210.982 273.204 210.982 272.505C211.008 272.116 211.108 271.739 211.275 271.405C211.442 271.071 211.671 270.788 211.945 270.58Z"/><path fill="#FAFAFA" d="M127.031 91.1379C117.032 97.9349 108.932 114.874 108.932 128.962C108.932 143.051 117.032 148.837 127.031 141.868C137.029 134.899 145.13 117.971 145.13 104.033C145.13 90.0947 137.02 84.3302 127.031 91.1379Z"/><path fill="#41494E" d="M135.801 134.555L121.311 139.244C121.061 139.342 120.795 139.364 120.537 139.307C120.279 139.249 120.037 139.115 119.832 138.917C119.628 138.718 119.468 138.461 119.366 138.169C119.265 137.877 119.226 137.559 119.252 137.243V107.474C119.303 105.01 119.985 102.626 121.204 100.648C122.423 98.6706 124.12 97.1969 126.06 96.4294L131.015 94.8269C134.785 93.6116 137.841 96.5799 137.841 101.452V131.232C137.825 131.971 137.621 132.687 137.255 133.282C136.89 133.876 136.382 134.321 135.801 134.555Z"/><path fill="#FDCEC8" d="M136.494 142.255L134.97 134.135C134.97 134.135 134.97 123.176 133.678 122.165C132.386 121.155 132.012 120.961 132.012 120.961C133.669 120.273 137.163 119.756 138.25 123.607C139.292 127.242 140.852 136.2 141.591 140.61L136.494 142.255Z"/><path fill="#1B4159" d="M136.37 142.298L131.201 121.058C133.491 119.982 136.432 119.09 137.858 121.94C139.141 124.499 141.191 137.91 141.592 140.61L136.37 142.298Z"/><g opacity=".4"><path fill="#000" d="M136.37 142.298L131.201 121.058C133.491 119.982 136.432 119.09 137.858 121.94C139.141 124.499 141.191 137.91 141.592 140.61L136.37 142.298Z" opacity=".4"/></g><path fill="#1B4159" d="M137.064 142.072L131.984 143.718C132.189 141.957 132.67 140.26 133.401 138.717C134.418 136.949 135.881 135.625 137.572 134.942C137.206 137.292 137.036 139.681 137.064 142.072Z"/><path fill="#1B4159" d="M137.064 142.072L131.984 143.718C132.189 141.957 132.67 140.26 133.401 138.717C134.418 136.949 135.881 135.625 137.572 134.942C137.206 137.292 137.036 139.681 137.064 142.072Z"/><g opacity=".7"><path fill="#000" d="M137.066 142.072L131.986 143.718C132.191 141.957 132.672 140.26 133.403 138.717C134.42 136.949 135.883 135.625 137.574 134.942C137.208 137.292 137.038 139.681 137.066 142.072Z" opacity=".7"/></g><path fill="#1B4159" d="M135.977 142.427L121.719 147.02L120.15 141.158C120.15 141.158 124.312 129.403 119.17 126.381C119.82 125.79 125.301 123.209 125.301 123.209L131.191 121.058C132.314 120.692 136.85 123.123 138 128.511C138.41 130.414 138.267 132.124 135.959 142.04C135.986 142.169 135.977 142.298 135.977 142.427Z"/><path fill="#FDCEC8" d="M134.801 98.4834C135.781 98.9136 136.993 101.71 136.877 108.453C136.779 114.175 135.353 115.981 134.64 116.67C133.572 117.315 132.394 117.65 131.2 117.648V121.058C131.2 121.058 133.054 123.208 132.938 124.843C132.822 126.478 130.265 127.639 128.536 126.671C127.273 125.812 126.181 124.63 125.337 123.208V115.358C125.206 115.539 125.048 115.687 124.87 115.793C124.692 115.899 124.498 115.962 124.3 115.977C124.101 115.992 123.903 115.959 123.715 115.88C123.527 115.802 123.355 115.679 123.207 115.519C122.928 115.289 122.691 114.994 122.509 114.651C122.327 114.309 122.203 113.926 122.146 113.525C122.089 113.124 122.099 112.713 122.175 112.316C122.252 111.92 122.393 111.546 122.592 111.217C123.483 109.808 125.042 109.604 125.648 111.013C126.403 108.803 127.753 106.965 129.48 105.797C132.296 103.732 133.829 101.893 134.801 98.4834Z"/><path fill="#41494E" d="M131.978 108.614C131.982 108.818 131.934 109.019 131.84 109.188C131.746 109.357 131.61 109.488 131.453 109.561C131.386 109.589 131.314 109.597 131.244 109.584C131.174 109.571 131.107 109.537 131.05 109.487C130.993 109.436 130.947 109.369 130.917 109.292C130.886 109.215 130.871 109.13 130.873 109.044C130.869 108.841 130.918 108.64 131.012 108.471C131.106 108.301 131.241 108.171 131.399 108.098C131.466 108.07 131.538 108.062 131.608 108.075C131.678 108.088 131.744 108.121 131.801 108.172C131.858 108.223 131.904 108.29 131.935 108.367C131.966 108.444 131.981 108.529 131.978 108.614Z"/><path fill="#FDCEC8" d="M132.12 113.39L133.403 113.497C133.366 113.733 133.264 113.947 133.114 114.105C132.963 114.263 132.774 114.356 132.575 114.368C132.218 114.336 132.013 113.874 132.12 113.39Z"/><path fill="#41494E" d="M136.503 104.958L135.389 104.323C135.455 104.115 135.583 103.944 135.747 103.843C135.912 103.742 136.101 103.717 136.28 103.775C136.36 103.834 136.429 103.912 136.483 104.004C136.538 104.096 136.576 104.2 136.597 104.31C136.618 104.42 136.62 104.534 136.604 104.645C136.588 104.757 136.553 104.863 136.503 104.958Z"/><path fill="#41494E" d="M130.374 107.475L131.488 106.109C131.429 106.036 131.358 105.98 131.279 105.943C131.201 105.906 131.117 105.889 131.032 105.894C130.948 105.899 130.866 105.926 130.791 105.972C130.716 106.018 130.65 106.083 130.597 106.162C130.442 106.319 130.336 106.533 130.295 106.772C130.255 107.01 130.283 107.258 130.374 107.475Z"/><path fill="#41494E" d="M136.244 106.722C136.25 106.926 136.202 107.127 136.107 107.297C136.013 107.466 135.877 107.596 135.719 107.668C135.651 107.696 135.578 107.704 135.508 107.691C135.437 107.677 135.37 107.643 135.312 107.591C135.255 107.539 135.209 107.471 135.179 107.392C135.149 107.314 135.135 107.228 135.139 107.141C135.137 106.938 135.186 106.738 135.28 106.569C135.374 106.4 135.508 106.269 135.665 106.195C135.733 106.166 135.805 106.158 135.876 106.172C135.947 106.185 136.014 106.22 136.071 106.272C136.128 106.324 136.174 106.392 136.204 106.471C136.235 106.549 136.248 106.635 136.244 106.722Z"/><path fill="#FDCEC8" d="M133.643 107.152L133.723 111.421L135.478 110.152L133.643 107.152Z"/><path fill="#FDCEC8" d="M131.201 117.648C129.793 117.864 126.888 117.724 126.434 116.39C126.598 117.045 126.961 117.602 127.449 117.95C128.341 118.638 131.201 118.788 131.201 118.788V117.648Z"/><path fill="#1B4159" d="M121.8 147.009L121.203 144.449L122.772 146.697L121.8 147.009Z"/><path fill="#1B4159" d="M120.632 147.385C119.993 143.706 119.126 140.089 118.039 136.566C116.542 131.608 118.217 127.328 119.224 126.381C120.231 125.435 125.356 123.208 125.356 123.208C127.209 129.575 127.717 138.104 127.762 145.084L120.632 147.385Z"/><path fill="#000" d="M120.632 147.385C119.993 143.706 119.126 140.089 118.039 136.566C116.542 131.608 118.217 127.328 119.224 126.381C120.231 125.435 125.356 123.208 125.356 123.208C127.209 129.575 127.717 138.104 127.762 145.084L120.632 147.385Z" opacity=".4"/><path fill="#1B4159" d="M118.103 148.202L113.014 149.848C112.872 149.732 112.738 149.603 112.613 149.461C112.613 149.461 115.019 138.254 115.786 134.533C116.552 130.812 117.14 128.252 119.208 126.381C122.924 129.296 121.204 137.394 121.204 137.394L118.103 148.202Z"/><path fill="#000" d="M118.103 148.202L113.014 149.848C112.872 149.732 112.738 149.603 112.613 149.461C112.613 149.461 115.019 138.254 115.786 134.533C116.552 130.812 117.14 128.252 119.208 126.381C122.924 129.296 121.204 137.394 121.204 137.394L118.103 148.202Z" opacity=".4"/><path fill="#ECA63D" d="M44.0088 76.587V55.2819C43.9553 51.1521 46.1831 47.0115 50.7012 43.8712C59.6126 37.6442 74.1026 37.6442 83.0318 43.8712C87.5499 47.0115 89.7778 51.1521 89.7243 55.2819V76.5117C89.7243 80.62 87.5321 87.9655 83.0318 91.0951C74.1204 97.3221 59.6305 97.3221 50.7012 91.0951C46.2455 87.9978 44.0177 80.7061 44.0088 76.63V76.587Z"/><path fill="#ECA63D" d="M66.8666 28.8467L104.589 55.1312L66.8666 81.4157L29.1445 55.1312L66.8666 28.8467Z"/><path fill="#010101" d="M47.9932 68.2626L66.5735 55.4645C66.6501 55.4115 66.7347 55.3773 66.8223 55.3637C66.9099 55.3502 66.9988 55.3576 67.0841 55.3856C67.1693 55.4136 67.2491 55.4615 67.319 55.5267C67.3889 55.5919 67.4475 55.6731 67.4913 55.7656C67.5352 55.8581 67.5636 55.9601 67.5748 56.0659C67.586 56.1716 67.5798 56.279 67.5567 56.3818C67.5335 56.4847 67.4938 56.581 67.4398 56.6654C67.3857 56.7497 67.3185 56.8204 67.2418 56.8733L49.321 69.1875L47.9932 68.2626Z"/><path fill="#000" d="M104.589 55.1313V57.0134L66.8672 83.2872V81.4159L104.589 55.1313Z"/><path fill="#ECA63D" d="M29.1445 55.1313V57.0134L66.8666 83.2872V81.4159L29.1445 55.1313Z"/><path fill="#010101" d="M47.0557 69.4887L48.2052 70.2846C48.379 69.942 48.621 69.6573 48.9092 69.4565L49.3103 69.1768L48.0003 68.2734C47.6133 68.5871 47.2904 69.0027 47.0557 69.4887Z"/><path fill="#010101" d="M89.7677 67.3376L66.8653 86.1046L44.0254 67.3807L66.8653 83.2869L89.7677 67.3376Z"/><path fill="#ECA63D" d="M45.5867 91.6221C45.9063 91.8211 46.2608 91.9249 46.6204 91.9249C46.9801 91.9249 47.3345 91.8211 47.6542 91.6221L49.3563 104.883C49.3563 107.388 43.9648 107.388 43.9648 104.883L45.5867 91.6221Z"/><path fill="#ECA63D" d="M45.4876 99.1931L45.1489 106.463C45.0378 106.423 44.9303 106.369 44.8281 106.302L45.4876 99.1931Z"/><path fill="#ECA63D" d="M48.0362 106.517L47.3232 94.687L48.3837 106.345C48.2708 106.411 48.1547 106.468 48.0362 106.517Z"/><path fill="#ECA63D" d="M46.824 106.754H46.4854L46.6636 97.365L46.824 106.754Z"/><path fill="#010101" d="M46.6106 92.7296C47.0056 92.7177 47.3882 92.5601 47.7067 92.2779C47.8421 92.1572 47.9342 91.9786 47.964 91.7787C47.9939 91.5787 47.9592 91.3726 47.8671 91.2025C47.7699 91.0351 47.6223 90.9201 47.4559 90.8819C47.2895 90.8438 47.1173 90.8854 46.976 90.9981C46.8912 91.0973 46.7777 91.1528 46.6596 91.1528C46.5415 91.1528 46.4281 91.0973 46.3433 90.9981C46.274 90.9236 46.1926 90.8674 46.1043 90.833C46.016 90.7986 45.9227 90.7867 45.8304 90.7982C45.7381 90.8097 45.6488 90.8442 45.5681 90.8996C45.4875 90.955 45.4173 91.0301 45.362 91.12C45.3067 91.21 45.2676 91.3128 45.247 91.4221C45.2265 91.5313 45.225 91.6445 45.2427 91.7544C45.2604 91.8643 45.2969 91.9686 45.3498 92.0606C45.4028 92.1526 45.471 92.2303 45.5501 92.2887C45.8569 92.5656 46.2277 92.7198 46.6106 92.7296Z"/><path fill="#9B9898" d="M46.6569 90.6647C46.7442 90.6661 46.8309 90.6465 46.912 90.6072C46.993 90.5678 47.0668 90.5095 47.129 90.4354C47.1911 90.3614 47.2405 90.2731 47.2742 90.1759C47.3079 90.0786 47.3252 89.9742 47.3252 89.8688V71.0696C47.3261 70.6469 47.4187 70.2319 47.5938 69.8658C47.7689 69.4998 48.0205 69.1954 48.3233 68.9832L67.2422 55.97C67.3925 55.8661 67.5029 55.6951 67.5496 55.4939C67.5963 55.2927 67.5755 55.0774 67.4918 54.8945C67.45 54.8036 67.3937 54.7237 67.3262 54.6593C67.2587 54.5949 67.1812 54.5473 67.0983 54.5193C67.0154 54.4913 66.9287 54.4834 66.8433 54.4961C66.7579 54.5088 66.6754 54.5419 66.6006 54.5933L47.6371 67.6281C47.1316 67.9803 46.7117 68.4865 46.4192 69.0962C46.1268 69.7058 45.9721 70.3974 45.9707 71.1018V89.9011C45.9741 90.0056 45.9946 90.1083 46.031 90.2033C46.0673 90.2983 46.1189 90.3837 46.1826 90.4546C46.2463 90.5255 46.321 90.5806 46.4024 90.6166C46.4838 90.6527 46.5703 90.669 46.6569 90.6647Z"/><path fill="#ECA63D" d="M48.1163 89.8688C48.118 89.5195 48.0338 89.1774 47.8743 88.886C47.7148 88.5945 47.4872 88.3668 47.2203 88.2316C46.9534 88.0965 46.6593 88.06 46.3752 88.1268C46.0911 88.1937 45.8299 88.3608 45.6246 88.607C45.4193 88.8533 45.2792 89.1675 45.2221 89.5099C45.165 89.8524 45.1934 90.2076 45.3037 90.5305C45.4141 90.8534 45.6014 91.1295 45.8419 91.3238C46.0825 91.5181 46.3654 91.6218 46.6548 91.6218C46.8463 91.6232 47.0362 91.5789 47.2134 91.4915C47.3907 91.404 47.5519 91.2751 47.6877 91.1122C47.8235 90.9492 47.9313 90.7555 48.0049 90.5421C48.0784 90.3287 48.1163 90.0999 48.1163 89.8688Z"/><path fill="#ECA63D" d="M45.2113 89.9658C45.2722 90.1477 45.3648 90.3117 45.483 90.4465C45.6011 90.5814 45.7419 90.6839 45.8958 90.7472C46.0497 90.8105 46.2131 90.833 46.3748 90.8132C46.5366 90.7934 46.6929 90.7318 46.8332 90.6326C47.0122 90.5025 47.1602 90.3187 47.263 90.0992C47.3658 89.8797 47.4198 89.6318 47.4198 89.3796C47.4198 89.1275 47.3658 88.8796 47.263 88.6601C47.1602 88.4405 47.0122 88.2568 46.8332 88.1267C47.1058 88.1721 47.3621 88.31 47.5723 88.5244C47.7825 88.7388 47.9379 89.0209 48.0204 89.3377C48.1029 89.6546 48.1091 89.9932 48.0383 90.3141C47.9676 90.6351 47.8227 90.9252 47.6206 91.1506C47.4185 91.376 47.1675 91.5275 46.8968 91.5875C46.6262 91.6474 46.3469 91.6134 46.0917 91.4892C45.8364 91.3651 45.6157 91.156 45.4551 90.8862C45.2945 90.6165 45.2007 90.2973 45.1846 89.9658H45.2113Z"/><path fill="#454545" d="M304.826 79.4906L297.938 74.7047L301.725 73.7368L305.494 76.9095L304.826 79.4906Z"/><path fill="#454545" d="M292.77 36.6545C292.77 23.7489 286.22 17.7585 278.173 23.3617L266.285 31.6428C258.265 37.246 251.697 52.3456 251.697 65.2943C251.697 65.8213 251.697 66.3698 251.697 66.8322C251.697 67.1226 251.697 67.37 251.697 67.6496C251.697 67.9292 251.742 68.1551 251.76 68.4024C251.777 68.6498 251.813 68.9724 251.849 69.2521C252.028 70.7803 252.345 72.2805 252.793 73.726C252.981 74.2637 253.177 74.8015 253.39 75.2532C253.489 75.5026 253.602 75.7434 253.729 75.9737L253.845 76.1996C254.043 76.5849 254.273 76.9452 254.531 77.2751C254.674 77.4687 254.807 77.673 254.959 77.8558L255.422 78.3936C255.583 78.5441 255.734 78.727 255.903 78.8775C256.063 79.0331 256.233 79.1733 256.411 79.297L256.937 79.6626C257.618 80.1062 258.356 80.408 259.12 80.5553C259.179 80.5379 259.24 80.5379 259.299 80.5553C259.504 80.5553 259.691 80.609 259.896 80.609C260.112 80.6305 260.33 80.6305 260.546 80.609C261.119 80.6166 261.691 80.5407 262.248 80.3832C262.582 80.3031 262.912 80.2026 263.238 80.082C264.279 79.697 265.278 79.1627 266.214 78.4903L278.102 70.2092C278.916 69.6383 279.697 68.9986 280.437 68.2949C280.437 68.1228 280.437 67.9722 280.437 67.8109C280.437 67.6496 280.437 67.3054 280.437 67.1119C280.437 66.6817 280.437 66.2407 280.437 65.7998C280.41 54.7977 285.899 41.8168 292.77 36.6545Z"/><path fill="#454545" d="M294.774 27.3518L287.867 22.5552C287.912 22.5552 288.571 28.352 288.571 28.352L293.695 29.0833L294.774 27.3518Z"/><path fill="#454545" d="M262.865 83.7171L256.484 79.3507L260.325 77.3611L262.865 83.7171Z"/><path fill="#454545" d="M266.285 78.6196C266.24 81.8067 265.391 84.9015 263.852 87.4922C263.567 87.9439 264.004 88.3418 264.324 88.1375C265.781 87.2254 267.072 85.9712 268.121 84.4486C270.136 81.5739 271.546 78.1534 272.229 74.479L266.285 78.6196Z"/><path fill="#454545" d="M263.924 88.1157L270.83 92.9123C270.83 92.9123 274.707 88.9654 274.707 80.9746L267.212 80.3616C267.212 80.3616 267.034 85.5669 263.924 88.1157Z"/><path fill="#454545" d="M282.316 64.606C282.316 65.0075 282.316 65.3946 282.316 65.7675C282.316 65.9826 282.316 66.1654 282.316 66.3697C282.316 66.5741 282.316 66.7462 282.37 66.9397C282.423 67.1333 282.37 67.3699 282.432 67.585C282.536 68.5377 282.721 69.4748 282.985 70.3812C283.023 70.5464 283.071 70.7081 283.127 70.8652C283.192 71.0813 283.267 71.2931 283.35 71.4997C283.42 71.6996 283.5 71.8936 283.591 72.0805C283.661 72.2679 283.745 72.4478 283.84 72.6182L283.929 72.7903C284.086 73.0866 284.259 73.3704 284.446 73.6399C284.544 73.7967 284.651 73.9441 284.767 74.0809L285.106 74.4788C285.221 74.6096 285.343 74.7317 285.471 74.8445C285.593 74.9583 285.721 75.0625 285.854 75.1563C285.988 75.2531 286.113 75.3499 286.255 75.436L286.665 75.6726L287.093 75.8554C287.354 75.9507 287.618 76.0297 287.886 76.092H288.02C288.168 76.1084 288.317 76.1084 288.465 76.092C288.625 76.1139 288.787 76.1139 288.946 76.092C289.33 76.0918 289.712 76.045 290.087 75.9522C290.388 75.8906 290.685 75.808 290.978 75.7048C291.761 75.4155 292.511 75.0148 293.215 74.5111L302.126 68.2948C302.921 67.7412 303.671 67.0965 304.363 66.3697C304.613 66.1116 304.862 65.832 305.112 65.5524C305.561 65.0473 305.986 64.5124 306.386 63.9499L306.956 63.3262C307.108 63.1111 307.251 62.8852 307.402 62.6594C307.439 62.5812 307.484 62.5089 307.536 62.4443C308.129 61.4974 308.677 60.5099 309.175 59.4867C309.309 59.2179 309.434 58.9382 309.567 58.6586C309.701 58.379 309.826 58.0994 309.951 57.809C310.075 57.5186 310.191 57.2282 310.316 56.9486L310.655 56.0667C310.771 55.7763 310.877 55.4645 310.984 55.1848C311.172 54.6686 311.341 54.1094 311.492 53.6147C311.492 53.5179 311.555 53.4211 311.581 53.3243C311.68 53.0231 311.76 52.722 311.84 52.4209C312 51.8401 312.143 51.2594 312.285 50.6571C312.599 49.2436 312.834 47.8065 312.989 46.3552C312.989 46.1079 313.034 45.8713 313.061 45.6239C313.088 45.3765 313.061 45.2045 313.105 44.9894C313.15 44.7743 313.105 44.5592 313.105 44.3441C313.105 43.9426 313.105 43.5447 313.105 43.1503C313.105 33.4711 308.195 28.9433 302.153 33.1484L293.242 39.3754C287.227 43.559 282.316 54.8837 282.316 64.606Z"/><path fill="#454545" d="M316.324 37.2782L309.471 32.5247L306.887 34.7294L314.88 40.5692L316.324 37.2782Z"/><path fill="#454545" d="M292.797 79.9424L285.908 75.1566L291.309 73.21L292.797 79.9424Z"/><path fill="#23282C" d="M300.836 69.3381C300.836 71.0589 302.618 73.4034 304.659 73.8444C304.935 73.9089 304.864 74.6402 304.534 74.9198C303.318 75.7171 301.915 75.9974 300.551 75.7157C299.665 75.6838 298.802 75.3682 298.05 74.8013C297.299 74.2343 296.685 73.4364 296.273 72.4893L300.836 69.3381Z"/><path fill="#ECA63D" d="M285.072 28.1476L273.175 36.4395C265.154 42.0427 258.596 57.1423 258.596 70.0802C258.596 70.618 258.596 71.1557 258.596 71.6289C258.596 71.9193 258.596 72.1666 258.596 72.4463C258.596 72.7259 258.64 72.941 258.667 73.1883C258.694 73.4357 258.72 73.7798 258.756 74.0487C258.917 75.5713 259.216 77.068 259.647 78.5119C259.834 79.0604 260.03 79.5874 260.244 80.0498C260.343 80.2961 260.456 80.5334 260.583 80.7597C260.62 80.8382 260.662 80.9136 260.708 80.9855C260.901 81.3919 261.128 81.7738 261.385 82.1255C261.528 82.3191 261.67 82.5342 261.822 82.7063L262.276 83.244C262.436 83.3946 262.597 83.5774 262.757 83.728C262.919 83.8811 263.088 84.0212 263.265 84.1474L263.8 84.513C264.478 84.955 265.213 85.2567 265.974 85.4057C266.032 85.3819 266.095 85.3819 266.153 85.4057C266.358 85.4057 266.554 85.4057 266.75 85.4057C266.966 85.4216 267.184 85.4216 267.4 85.4057C267.973 85.4087 268.544 85.3329 269.102 85.1798C269.436 85.0998 269.766 84.9992 270.091 84.8787C271.13 84.4904 272.129 83.96 273.068 83.2978C273.024 86.4835 272.172 89.5764 270.626 92.1596C270.341 92.6221 270.778 93.02 271.107 92.8157C272.566 91.9026 273.857 90.6444 274.904 89.1161C276.914 86.2411 278.323 82.8258 279.012 79.1572L278.121 79.7487L284.92 75.0166C285.578 74.559 286.212 74.0526 286.818 73.5002C286.766 73.2272 286.727 72.9507 286.702 72.6721C286.702 72.4893 286.649 72.2204 286.631 71.9408C286.599 71.7023 286.578 71.4617 286.569 71.2202V71.0912C286.56 70.9121 286.56 70.7325 286.569 70.5534C286.569 70.1448 286.569 69.7146 286.569 69.2844C286.569 58.4006 291.915 46.1295 298.795 41.3221L299.553 40.7844C299.481 28.3412 293.003 22.6197 285.072 28.1476Z"/><path fill="#ECA63D" d="M309.088 37.9127L300.177 44.129C294.144 48.3448 289.225 59.6695 289.225 69.3918C289.225 69.7897 289.225 70.1769 289.225 70.5533C289.225 70.9297 289.225 70.9512 289.225 71.1556C289.225 71.3599 289.225 71.532 289.269 71.7256C289.284 71.9384 289.307 72.1503 289.34 72.3601C289.438 73.3175 289.624 74.2588 289.893 75.1671C289.927 75.3337 289.975 75.4958 290.036 75.651C290.096 75.8642 290.167 76.0725 290.249 76.2748C290.321 76.4771 290.401 76.6745 290.49 76.8663C290.564 77.054 290.65 77.2338 290.748 77.404C290.769 77.4651 290.796 77.5229 290.829 77.5761C290.998 77.8773 291.167 78.1569 291.346 78.4258C291.448 78.5801 291.559 78.7273 291.675 78.8667L292.014 79.2646C292.129 79.3954 292.251 79.5175 292.379 79.6303C292.497 79.7464 292.622 79.8507 292.754 79.9422C292.887 80.039 293.012 80.1358 293.155 80.2218L293.564 80.4584L293.992 80.6412C294.253 80.7365 294.518 80.8155 294.785 80.8778H294.919C295.067 80.8942 295.216 80.8942 295.365 80.8778C295.527 80.9051 295.692 80.9051 295.855 80.8778C296.238 80.8805 296.62 80.8372 296.995 80.7488C297.296 80.6863 297.593 80.6038 297.887 80.5014C298.67 80.2162 299.421 79.8152 300.123 79.3076L303.135 77.2212C303.553 78.1583 304.169 78.9454 304.92 79.5026C305.671 80.0598 306.531 80.3673 307.413 80.3939C308.778 80.6714 310.181 80.3874 311.396 79.5873C311.717 79.3399 311.797 78.6086 311.512 78.5118C309.471 78.0708 307.698 75.7263 307.698 74.0056L309.053 73.0592C309.846 72.5029 310.595 71.8584 311.289 71.1341C311.539 70.8759 311.788 70.5963 312.029 70.3167C312.481 69.8118 312.909 69.2768 313.312 68.7142C313.473 68.4884 313.633 68.2733 313.793 68.0152C313.954 67.7571 314.087 67.585 314.239 67.3591L314.373 67.1441C314.966 66.1972 315.513 65.2097 316.012 64.1865L316.413 63.3584C316.547 63.0788 316.672 62.7991 316.797 62.5088C316.921 62.2184 317.028 61.928 317.153 61.6484L317.501 60.7665C317.616 60.4654 317.714 60.1642 317.821 59.8846C318.008 59.3684 318.187 58.8091 318.338 58.3144L318.418 58.0241C318.516 57.7229 318.606 57.4218 318.677 57.1207C318.846 56.5292 318.98 55.9591 319.131 55.3569C319.445 53.9434 319.68 52.5062 319.835 51.055C319.835 50.8076 319.88 50.571 319.898 50.3237C319.916 50.0763 319.898 49.8935 319.942 49.6892C319.987 49.4848 319.942 49.259 319.942 49.0439C319.942 48.6459 319.942 48.2373 319.942 47.8393C320.04 38.1924 315.121 33.7077 309.088 37.9127Z"/><path fill="#363E42" d="M237.492 180.176C234.123 178.907 230.666 182.198 228.402 188.844C226.139 195.491 221.389 212.397 220.685 216.904C219.981 221.41 235.914 231.218 235.469 230.96C235.023 230.702 237.492 180.176 237.492 180.176Z"/><path fill="#363E42" d="M230.087 336.614C229.606 336.829 229.49 337.926 229.419 340.099C229.365 341.744 229.071 344.616 230.667 345.186C232.262 345.756 234.605 345.465 235.63 343.917C236.905 341.981 237.769 340.281 239.587 337.915C241.173 335.872 242.875 333.958 243.517 331.086C244.096 328.484 243.615 327.365 242.144 326.612C240.13 325.537 236.958 328.957 235.381 329.494C234.017 329.957 230.56 336.399 230.087 336.614Z"/><path fill="#FDCEC8" d="M230.086 334.603V337.27C230.916 337.911 231.874 338.266 232.859 338.298C233.843 338.331 234.816 338.038 235.673 337.453C235.771 337.195 236.253 333.635 236.253 333.635L230.086 334.603Z"/><path fill="#363E42" d="M247.989 351.993C247.989 351.993 247.357 354.316 247.018 356.295C246.742 357.909 246.359 360.597 246.822 361.823C247.285 363.049 249.121 363.824 251.946 363.791C253.782 363.791 256.642 365.286 258.594 366.598C260.546 367.91 264.832 368.502 266.962 368.201C269.475 367.846 272.086 366.05 272.496 364.824C272.906 363.598 272.362 362.253 266.427 359.199C266.374 359.199 258.175 355.973 255.297 352.133L247.989 351.993Z"/><path fill="#FDCEC8" d="M247.99 349.111C247.99 349.111 247.99 351.09 247.99 352.219C247.99 353.349 249.095 355.037 251.965 354.919C253.979 354.833 255.378 354.177 255.298 352.176V349.283L247.99 349.111Z"/><path fill="#1B4159" d="M228.643 299.188C229.136 294.461 230.01 289.803 231.254 285.282C231.254 285.282 230.47 273.29 230.087 261.923C229.677 249.641 230.087 234.197 229.918 231.143C229.918 231.143 262.756 223.12 263.344 237.316C263.932 251.512 262.043 287.648 261.66 293.886C261.277 300.123 260.377 305.641 259.307 315.75C258.238 325.859 255.297 349.283 255.297 349.283C254.161 349.982 252.9 350.332 251.626 350.302C250.351 350.272 249.102 349.863 247.99 349.111C247.99 349.111 245.682 320.719 245.922 313.524C246.11 308.18 246.871 302.887 248.186 297.779L247.019 275.893C246.466 265.708 245.887 260.836 245.753 256.395L245.049 255.965C245.049 255.965 244.327 273.538 243.944 279.775C243.561 286.013 242.732 291.993 241.271 303.576C239.97 313.621 236.111 334.883 236.111 334.883C232.359 337.335 230.123 334.571 230.123 334.571C230.123 334.571 227.645 307.899 228.643 299.188Z"/><path fill="#41494E" d="M245.753 256.427C245.753 256.427 237.786 251.684 233.803 247.415C233.803 247.415 237.501 253.706 242.367 256.502C242.367 256.502 244.095 278.324 244.087 277.893L245.085 256.384L245.753 256.427Z"/><path fill="#FDCEC8" d="M252.845 175.681L250.902 188.586L241.242 187.737L243.265 173.1L252.845 175.681Z"/><path fill="#41494E" d="M231.04 186.79C231.993 183.284 235.683 179.466 239.372 180.337C244.859 181.458 250.266 183.086 255.546 185.209C258.923 186.661 261.998 190.189 262.283 203.611L263.994 243.575L259.904 244.651L258.478 235.595L257.818 244.651C253.541 245.941 246.118 244.876 241.243 243.575C231.084 240.897 229.863 235.81 229.863 235.81C229.863 235.81 229.73 213.322 230.033 203.611C230.318 195.308 230.38 189.156 231.04 186.79Z"/><path fill="#FDCEC8" d="M259.994 160.387C259.994 160.387 262.338 164.571 262.035 165.012C261.493 165.453 260.889 165.77 260.253 165.948L259.994 160.387Z"/><path fill="#FDCEC8" d="M252.847 147.138C255.101 148.514 258.995 151.052 260.065 161.001C261.17 171.218 259.717 174.509 258.577 175.864C257.801 176.778 253.595 176.832 251.492 176.068C248.819 175.111 242.919 172.39 240.21 167.142C237.02 160.968 236.307 152.698 239.907 149.407C244.96 144.782 250.939 145.976 252.847 147.138Z"/><path fill="#41494E" d="M260.537 150.558C259.797 153.01 258.549 159.011 253.363 161.517C253.363 161.517 252.623 157.688 249.959 158.097C247.294 158.505 246.84 162.603 248.479 165.152C250.119 167.701 251.705 166.776 251.705 166.776C251.705 166.776 252.062 172.261 249.032 174.745C249.032 174.745 245.369 177.541 241.493 175.39C239.711 174.422 237.278 169.378 235.834 165.238C232.769 156.484 232.332 149.461 236.957 147.245C237.527 143.266 239.016 141.771 242.001 141.029C248.426 139.427 253.283 144.524 258.683 143.632C261.508 143.158 261.383 147.762 260.537 150.558Z"/><path fill="#41494E" d="M236.848 148.579L233.818 146.32C233.936 146.067 234.094 145.845 234.285 145.668C234.475 145.49 234.694 145.361 234.926 145.288C235.159 145.215 235.402 145.2 235.64 145.244C235.878 145.287 236.106 145.388 236.31 145.54C236.515 145.693 236.692 145.894 236.831 146.131C236.969 146.369 237.067 146.637 237.117 146.921C237.167 147.205 237.169 147.498 237.123 147.783C237.077 148.068 236.983 148.339 236.848 148.579Z"/><path fill="#1B4159" d="M252.134 180.381L253.239 184.241C253.239 184.241 252.428 185.962 248.979 186.048C245.53 186.134 241.85 184.811 240.709 183.037C240.45 182.69 240.257 182.277 240.146 181.828C240.035 181.38 240.009 180.907 240.068 180.445C240.068 180.445 241.44 176.788 242.741 176.95L242.527 178.541C242.527 178.541 242.821 179.843 245.949 180.843C250.815 182.402 252.134 180.381 252.134 180.381Z"/><path fill="#FDCEC8" d="M279.848 206.041C281.238 204.116 281.773 199.847 283.626 196.921C285.48 193.996 286.166 191.856 286.897 193.136C287.868 194.824 285.676 198.212 286.166 198.513C286.656 198.814 288.465 203.31 288.652 205.783C288.839 208.257 283.403 214.495 283.403 214.495L279.848 206.041Z"/><path fill="#1B4159" d="M252.133 180.38C252.357 180.375 252.578 180.443 252.773 180.578C252.967 180.712 253.128 180.908 253.238 181.144C253.783 182.332 254.271 183.556 254.699 184.811L253.238 184.241L252.133 180.38Z"/><path fill="#FDCEC8" d="M286.016 198.169C286.016 198.169 292.583 197.48 293.537 198.169C294.49 198.857 294.205 202.288 293.537 204.396C292.869 206.504 289.518 207.869 286.408 210.408C286.408 210.02 286.016 198.169 286.016 198.169Z"/><path fill="#41494E" d="M254.7 184.854C257.525 186.048 259.994 187.414 262.631 193.394C266.018 201.073 272.434 213.354 272.434 213.354L279.821 205.493C279.821 205.493 280.935 204.191 283.012 208.332C283.62 209.447 284.005 210.717 284.137 212.042C284.268 213.367 284.142 214.711 283.769 215.968C283.769 215.968 275.241 228.045 273.61 229.884C271.979 231.724 269.279 230.293 267.524 227.4C265.768 224.507 254.673 207.784 254.673 207.784C254.673 207.784 248.649 198.126 254.7 184.854Z"/><path fill="#41494E" d="M330.9 164.776H309.86C309.066 164.776 308.305 164.395 307.743 163.717C307.182 163.04 306.866 162.12 306.866 161.162V120.821C306.866 117.646 307.911 114.602 309.771 112.357C311.631 110.112 314.154 108.851 316.785 108.851H324.003C326.629 108.86 329.145 110.125 330.999 112.368C332.853 114.612 333.895 117.652 333.895 120.821V161.162C333.895 162.12 333.579 163.04 333.018 163.717C332.456 164.395 331.694 164.776 330.9 164.776Z"/><path fill="#FDCEC8" d="M306.315 151.009C304.275 158.269 300.853 179.155 300.853 179.155C300.853 179.155 293.724 189.673 291.398 192.222C290.123 193.641 287.254 196.19 287.254 196.19L292.467 200.815C297.174 196.445 301.595 191.645 305.692 186.457C306.603 185.287 307.242 183.848 307.545 182.284L311.11 163.829C311.11 163.829 311.11 148.988 312.99 147.041C314.87 145.094 315.414 144.686 315.414 144.686C312.999 144.471 307.919 145.299 306.315 151.009Z"/><path fill="#1B4159" d="M316.526 144.471C313.202 144.008 308.942 144.094 306.866 148.579C304.79 153.064 301.332 176.251 301.332 176.251C301.332 176.251 304.603 179.316 308.131 179.262L316.526 144.471Z"/><path fill="#1B4159" d="M307.286 166.077C307.885 169.533 308.116 173.068 307.973 176.595C307.714 181.241 305.059 189.35 305.059 189.35C305.059 189.35 307.135 192.103 312.99 190.995C317.757 190.103 316.073 172.712 313.337 169.378C311.742 167.389 309.578 166.208 307.286 166.077Z"/><path fill="#000" d="M307.286 166.077C307.885 169.533 308.116 173.068 307.973 176.595C307.714 181.241 305.059 189.35 305.059 189.35C305.059 189.35 307.135 192.103 312.99 190.995C317.757 190.103 316.073 172.712 313.337 169.378C311.742 167.389 309.578 166.208 307.286 166.077Z" opacity=".3"/><path fill="#41494E" d="M318.3 288.895C318.338 289.689 318.173 290.477 317.828 291.154C316.946 292.912 315.91 294.549 314.736 296.037C313.087 298.188 310.619 300.715 308.845 302.575C307.865 303.651 307.829 305.178 309.237 305.727C311.862 306.498 314.631 306.033 316.981 304.425C318.764 303.285 321.241 297.972 322.702 297.22C324.387 296.306 325.322 295.854 325.893 294.918C326.324 294.386 326.593 293.694 326.656 292.953C326.719 292.213 326.573 291.469 326.24 290.842C325.447 289.057 324.253 286.314 323.763 286.626L323.914 287.185C323.531 288.637 320.252 290.326 318.568 289.928L318.3 288.895Z"/><path fill="#FDCEC8" d="M335.473 228.217C336.23 218.538 338.404 202.965 336.177 191.436L306.591 193.329C305.771 204.697 304.808 240.187 305.842 244.253C307.036 249.049 317.703 282.249 318.318 288.928C318.361 289.712 318.195 290.491 317.846 291.154C316.965 292.916 315.929 294.557 314.754 296.047C313.952 297.123 312.971 298.198 311.938 299.274C311.851 299.427 311.799 299.605 311.786 299.79C311.786 300.865 314.032 301.199 315.351 300.736C316.995 300.036 318.413 298.721 319.396 296.983C320.154 295.768 321.856 293.434 322.961 291.681C323.33 291.14 323.644 290.548 323.897 289.917C324.192 289.13 324.242 288.24 324.039 287.411L323.968 287.142C323.39 284.965 323.031 282.712 322.899 280.432C322.489 273.108 321.446 256.19 320.484 251.684C319.815 248.401 318.8 245.234 317.463 242.263L320.84 210.547C320.84 210.547 321.197 238.51 322.248 245.64C323.077 251.351 323.398 258.492 324.369 268.289C325.26 277.668 326.294 294.187 326.294 294.187C326.32 294.193 326.348 294.193 326.374 294.187V302.081H331.908V297.499C331.908 295.431 332.051 293.366 332.336 291.326C333.227 285.088 335.081 270.817 335.464 265.988C336.07 258.331 333.779 248.705 333.779 248.705C333.779 248.705 334.733 237.66 335.473 228.217Z"/><path fill="#1B4159" d="M325.047 144.804C325.047 144.804 333.004 145.88 333.958 146.428C326.49 152.763 332.541 166.862 332.541 166.862L329.681 177.692C332.862 182.607 335.607 185.532 337.309 190.92C339.198 196.943 340.873 205.902 340.428 224.26C333.299 230.713 311.608 230.014 303.16 224.26C303.16 224.26 304.586 208.053 306.27 195.459C307.384 187.145 310.013 178.09 309.567 175.025C306.217 162.592 306.003 160.355 306.609 157.581C308.275 149.773 314.87 144.492 316.492 144.492L325.047 144.804Z"/><path fill="#B8B8B8" d="M325.047 144.804C325.047 144.804 333.004 145.88 333.958 146.428C326.49 152.763 332.541 166.862 332.541 166.862L329.681 177.692C332.862 182.607 335.607 185.532 337.309 190.92C339.198 196.943 340.873 205.902 340.428 224.26C333.299 230.713 311.608 230.014 303.16 224.26C303.16 224.26 304.586 208.053 306.27 195.459C307.384 187.145 310.013 178.09 309.567 175.025C306.217 162.592 306.003 160.355 306.609 157.581C308.275 149.773 314.87 144.492 316.492 144.492L325.047 144.804Z" opacity=".6"/><path fill="#41494E" d="M326.32 298.736V297.779C325.625 300.995 324.235 303.93 322.292 306.286C320.51 308.232 318.104 310.491 317.48 312.674C316.856 314.857 320.34 315.836 322.64 315.556C324.867 315.228 326.92 313.932 328.414 311.911C329.876 309.889 329.849 308.512 330.526 307.394C331.203 306.275 332.781 305.049 333.146 303.758C333.26 302.554 333.151 301.335 332.825 300.188C332.567 298.994 332.282 297.671 331.934 297.779V298.521C331.132 299.282 330.138 299.689 329.118 299.672C328.343 299.693 326.311 299.489 326.32 298.736Z"/><path fill="#FDCEC8" d="M331.908 298.5C331.106 299.261 330.112 299.667 329.092 299.65C328.272 299.65 326.276 299.489 326.285 298.736V297.779C325.59 300.995 324.2 303.931 322.257 306.286L320.911 307.738C319.967 309.007 320.234 310.115 322.453 310.341C324.672 310.566 326.623 308.953 328.299 306.469C329.727 303.97 330.937 301.3 331.908 298.5Z"/><path fill="#FDCEC8" d="M311.306 115.444C309.88 116.465 308.115 120.821 308.285 129.876C308.436 137.577 310.504 139.48 311.546 140.029C312.589 140.577 314.585 140.244 316.528 139.857V144.471C316.528 144.471 313.854 148.245 314.006 150.364C314.157 152.483 317.891 152.978 320.413 150.913C322.234 149.209 323.801 147.143 325.047 144.804L325.003 134.189C325.003 134.189 326.152 135.523 328.095 133.479C329.699 131.791 330.234 128.93 328.986 127.403C328.662 127.035 328.27 126.767 327.842 126.619C327.415 126.471 326.964 126.449 326.528 126.555C326.092 126.66 325.684 126.889 325.336 127.224C324.988 127.559 324.712 127.989 324.53 128.478C324.53 128.478 323.452 124.854 318.97 123.101C314.924 121.477 312.723 119.638 311.306 115.444Z"/><path fill="#41494E" d="M315.414 127.951C315.414 128.141 315.461 128.326 315.547 128.484C315.634 128.642 315.757 128.766 315.902 128.841C316.046 128.915 316.205 128.937 316.36 128.903C316.514 128.869 316.657 128.781 316.771 128.649C316.884 128.518 316.963 128.35 316.998 128.165C317.033 127.98 317.022 127.787 316.967 127.61C316.912 127.432 316.814 127.278 316.687 127.167C316.56 127.056 316.409 126.992 316.252 126.983C316.144 126.981 316.037 127.003 315.937 127.05C315.836 127.098 315.745 127.168 315.667 127.258C315.589 127.348 315.527 127.455 315.483 127.574C315.44 127.693 315.416 127.821 315.414 127.951Z"/><path fill="#FDCEC8" d="M315.198 134.469L313.336 135.189C313.369 135.339 313.426 135.48 313.505 135.602C313.584 135.725 313.683 135.827 313.795 135.902C313.907 135.978 314.031 136.025 314.159 136.041C314.287 136.057 314.416 136.042 314.539 135.996C314.79 135.892 314.999 135.676 315.122 135.392C315.245 135.107 315.272 134.777 315.198 134.469Z"/><path fill="#41494E" d="M308.835 124.972L310.457 123.617C310.389 123.485 310.299 123.371 310.192 123.282C310.086 123.193 309.966 123.131 309.839 123.1C309.713 123.068 309.582 123.069 309.455 123.1C309.329 123.132 309.209 123.194 309.103 123.284C308.885 123.468 308.736 123.748 308.686 124.063C308.636 124.378 308.69 124.704 308.835 124.972Z"/><path fill="#41494E" d="M317.748 125.704L316.117 124.348C316.186 124.216 316.276 124.102 316.382 124.013C316.488 123.924 316.608 123.862 316.734 123.83C316.86 123.797 316.991 123.796 317.118 123.826C317.244 123.856 317.365 123.917 317.472 124.004C317.687 124.193 317.836 124.473 317.887 124.788C317.939 125.104 317.889 125.431 317.748 125.704Z"/><path fill="#41494E" d="M309.211 127.242C309.209 127.432 309.254 127.618 309.34 127.777C309.425 127.937 309.548 128.063 309.692 128.139C309.837 128.215 309.996 128.238 310.151 128.205C310.306 128.172 310.45 128.085 310.564 127.954C310.679 127.824 310.759 127.655 310.794 127.47C310.83 127.285 310.819 127.091 310.764 126.913C310.71 126.735 310.612 126.581 310.485 126.469C310.358 126.357 310.206 126.293 310.049 126.284C309.833 126.279 309.624 126.376 309.467 126.555C309.31 126.734 309.218 126.981 309.211 127.242Z"/><path fill="#FDCEC8" d="M312.989 126.693L312.864 132.522L310.324 131.576L312.989 126.693Z"/><path fill="#FDCEC8" d="M316.527 139.857C318.577 139.523 322.765 138.061 323.46 136.05C323.196 137.068 322.68 137.965 321.981 138.62C320.716 139.921 316.527 141.395 316.527 141.395V139.857Z"/><path fill="#1B4159" d="M331.063 171.788L325.439 180.972L329.681 177.692L331.063 171.788Z"/><path fill="#FDCEC8" d="M286.763 196.19C285.56 198.061 284.821 201.696 284.188 202.923C283.555 204.149 282.798 205.213 284.188 205.439C285.578 205.665 287.61 202.385 288.367 200.395C288.751 199.273 289.474 198.369 290.39 197.868C289.74 197.599 290.078 194.448 289.624 194.007C289.624 194.007 287.253 195.179 286.763 196.19Z"/><path fill="#FDCEC8" d="M286.406 210.386C287.663 209.257 287.707 207.87 287.948 205.665C288.189 203.46 293.223 201.073 293.384 202.718C293.544 204.364 293.999 205.74 292.493 207.741C290.987 209.741 288.705 211.871 286.406 210.386Z"/><path fill="#1B4159" d="M325.047 144.804C325.047 144.804 332.497 145.589 333.958 146.428C335.42 147.267 337.853 152.343 335.678 159.71C333.504 167.077 331.526 175.745 331.748 177.488C331.971 179.23 337.167 188.242 337.167 188.242C335.733 189.519 334.112 190.457 332.39 191.006L329.717 183.994L330.34 191.447C327.655 192.235 324.896 192.597 322.133 192.523C322.133 192.523 319.611 163.894 325.047 144.804Z"/><path fill="#FDCEC8" d="M343.404 179.918C344.001 175.681 343.404 174.293 342.174 170.142L335.936 175.014C336.448 176.581 336.749 178.237 336.827 179.918C336.774 181.144 335.393 193.297 334.1 197.534C333.868 198.288 333.41 198.909 332.817 199.277C331.532 200.224 330.368 201.39 329.36 202.74C328.406 203.815 327.64 204.009 327.738 204.374C327.885 204.771 328.148 205.088 328.477 205.264C328.806 205.441 329.177 205.465 329.52 205.331C330.296 205.027 331.041 204.616 331.739 204.105C331.12 205.687 330.296 207.139 329.297 208.407C327.007 211.354 326.802 213.268 331.08 213.666C333.753 213.914 335.99 212.107 338.405 205.17C339.153 202.627 339.769 200.03 340.249 197.395C341.55 191.383 342.816 184.188 343.404 179.918Z"/><path fill="#1B4159" d="M333.959 146.428C336.962 148.052 337.818 151.257 338.932 155.967C340.046 160.678 343.539 174.81 343.539 174.81C343.539 174.81 340.545 179.112 336.41 177.907L331.063 162.237C331.063 162.237 328.568 152.01 333.959 146.428Z"/></svg>