<svg xmlns="http://www.w3.org/2000/svg" width="471" height="455" fill="none" viewBox="0 0 471 455"><rect width="471" height="455" fill="#fff"/><path fill="#1B4159" d="M161.775 60.7686L425.631 130.087L97.9006 424.769L62.9785 207.04L161.775 60.7686Z"/><path fill="#ECA63D" d="M57.0098 258.022L314.896 23.8188L412.498 416.218L67.1581 390.735L57.0098 258.022Z"/><path fill="#FF9B85" d="M202.667 166.732C215.031 166.732 225.053 156.478 225.053 143.829C225.053 131.18 215.031 120.926 202.667 120.926C190.304 120.926 180.281 131.18 180.281 143.829C180.281 156.478 190.304 166.732 202.667 166.732Z"/><path fill="#fff" d="M185.765 197.107L168.764 197.842L172.241 172.72L173.121 166.371L180.079 165.901L180.503 168.231L185.765 197.107Z"/><path fill="#1B4159" d="M180.502 168.231L172.24 172.72L173.121 166.371L180.078 165.901L180.502 168.231Z"/><path fill="#fff" d="M178.276 167.428C186.08 167.428 192.406 160.956 192.406 152.972C192.406 144.988 186.08 138.516 178.276 138.516C170.473 138.516 164.146 144.988 164.146 152.972C164.146 160.956 170.473 167.428 178.276 167.428Z"/><path fill="#FF9B85" d="M182.019 144.944C182.283 149.025 181.554 153.109 179.896 156.831C178.239 160.553 175.706 163.796 172.523 166.271C169.34 168.745 165.607 170.374 161.658 171.011C157.709 171.647 153.668 171.272 149.895 169.919C146.123 168.566 142.737 166.277 140.042 163.256C137.346 160.236 135.424 156.579 134.449 152.613C133.473 148.647 133.474 144.495 134.452 140.529C135.429 136.564 137.353 132.908 140.05 129.889C139.581 129.495 139.13 129.074 138.692 128.625C136.674 126.555 135.127 124.055 134.162 121.304C133.197 118.552 132.838 115.617 133.109 112.707C133.381 109.797 134.277 106.984 135.734 104.469C137.19 101.954 139.172 99.7994 141.536 98.1581C143.9 96.5168 146.59 95.4296 149.412 94.9741C152.235 94.5186 155.12 94.706 157.864 95.523C160.607 96.3399 163.141 97.7663 165.283 99.7003C167.426 101.634 169.125 104.028 170.259 106.711C172.852 105.235 175.734 104.368 178.696 104.173C181.658 103.978 184.625 104.46 187.382 105.583C190.14 106.707 192.618 108.445 194.637 110.67C196.656 112.895 198.166 115.552 199.057 118.449C199.948 121.345 200.198 124.408 199.788 127.415C199.378 130.423 198.319 133.299 196.688 135.836C195.057 138.372 192.894 140.506 190.357 142.081C187.819 143.657 184.971 144.634 182.019 144.944Z"/><path fill="#fff" d="M285.919 93.3973L292.486 60.5884L284.797 75.6462L286.077 58.1699L279.317 74.7362L278.717 59.2815L274.768 75.3286L272.834 59.1624L270.936 78.3273L262.572 71.1054L273.129 87.6319L273.619 94.1149L285.919 93.3973Z"/><path fill="#5294BD" d="M224.175 265.286L237.929 409.027L118.102 407.83L121.086 204.268L156.226 197.879L154.6 186.886L170.729 187.747L174.908 194.465L184.137 192.789C185.027 192.628 185.911 192.508 186.791 192.428L188.534 186.886L203.431 183.496L202.804 195.436C207.339 197.691 211.263 201.052 214.23 205.223L253.238 173.77L264.852 91L288.629 91.3787L289.524 205.779L224.175 265.286Z"/><path fill="#1B4159" d="M120.078 263.817L150.326 354.918L231.005 330.718L118.496 385.07L120.078 263.817Z"/><path fill="#1B4159" d="M165.059 240.295L165.136 240.6L177.18 287.557L200.402 284.61C200.402 284.61 180.791 278.497 165.059 240.295Z"/><path fill="#1B4159" d="M48.6524 199.406C50.4657 199.406 51.9357 197.902 51.9357 196.047C51.9357 194.192 50.4657 192.688 48.6524 192.688C46.8391 192.688 45.3691 194.192 45.3691 196.047C45.3691 197.902 46.8391 199.406 48.6524 199.406Z"/><path fill="#1B4159" d="M235.5 62.9061C237.313 62.9061 238.783 61.4022 238.783 59.547C238.783 57.6919 237.313 56.188 235.5 56.188C233.687 56.188 232.217 57.6919 232.217 59.547C232.217 61.4022 233.687 62.9061 235.5 62.9061Z"/><path fill="#1B4159" d="M315.193 147.188C317.007 147.188 318.477 145.684 318.477 143.829C318.477 141.974 317.007 140.47 315.193 140.47C313.38 140.47 311.91 141.974 311.91 143.829C311.91 145.684 313.38 147.188 315.193 147.188Z"/><path fill="#1B4159" d="M260.572 407.363C262.386 407.363 263.856 405.859 263.856 404.004C263.856 402.148 262.386 400.645 260.572 400.645C258.759 400.645 257.289 402.148 257.289 404.004C257.289 405.859 258.759 407.363 260.572 407.363Z"/><path fill="#1B4159" d="M119.988 87.641C121.802 87.641 123.272 86.1371 123.272 84.2819C123.272 82.4268 121.802 80.9229 119.988 80.9229C118.175 80.9229 116.705 82.4268 116.705 84.2819C116.705 86.1371 118.175 87.641 119.988 87.641Z"/><path fill="#1B4159" d="M395.783 283.688C397.597 283.688 399.067 282.184 399.067 280.329C399.067 278.474 397.597 276.97 395.783 276.97C393.97 276.97 392.5 278.474 392.5 280.329C392.5 282.184 393.97 283.688 395.783 283.688Z"/><path stroke="#FF9B85" stroke-miterlimit="10" stroke-width="4" d="M137.898 52.2183C137.898 52.2183 50.4434 83.6713 75.8142 127.034C101.185 170.396 63.875 181.084 63.875 181.084"/><path fill="#D9D9D9" d="M373.547 250.555L417.125 207.193L443.391 245.364L373.547 250.555Z"/><path fill="#5294BD" d="M181.177 36.3389L166.85 94.6644L214.606 48.5536L181.177 36.3389Z"/><path fill="#1B4159" d="M94.617 277.776H28.2949V334.074H94.617V277.776Z"/><path fill="#FF9B85" d="M93.783 275.749H27.4609V332.046H93.783V275.749Z"/><path stroke="#fff" stroke-miterlimit="10" stroke-width="4" d="M249.818 385.098L267.261 358.653L283.445 372.844L305.512 353.923L319.382 374.78L295.423 396.064L249.818 385.098Z"/><path stroke="#fff" stroke-miterlimit="10" stroke-width="4" d="M108.199 156.501C110.587 156.501 120.736 180.015 120.736 180.015C120.736 180.015 84.0226 238.34 85.8135 234.065C87.6043 229.79 108.199 156.501 108.199 156.501Z"/><path stroke="#fff" stroke-miterlimit="10" stroke-width="4" d="M74.7688 363.848L106.408 351.633L112.377 369.039L74.1719 385.834L74.7688 363.848Z"/><path stroke="#FF9B85" stroke-miterlimit="10" stroke-width="4" d="M387.018 135.278C387.018 135.278 354.767 187.616 394.59 171.462C434.413 155.307 419.501 138.463 407.935 143.697C396.369 148.931 386.803 198.768 413.496 194.899"/><path fill="#1B4159" d="M309.524 85.1981C311.337 85.1981 312.807 83.6942 312.807 81.839C312.807 79.9839 311.337 78.48 309.524 78.48C307.71 78.48 306.24 79.9839 306.24 81.839C306.24 83.6942 307.71 85.1981 309.524 85.1981Z"/><path fill="#1B4159" d="M252.514 353.618C254.327 353.618 255.797 352.114 255.797 350.258C255.797 348.403 254.327 346.899 252.514 346.899C250.7 346.899 249.23 348.403 249.23 350.258C249.23 352.114 250.7 353.618 252.514 353.618Z"/><path fill="#1B4159" d="M363.249 171.923H253.408V284.909H363.249V171.923Z"/><path fill="#1B4159" d="M363.249 269.946H186.848V284.909H363.249V269.946Z"/><path fill="#FF9B85" d="M367.129 171.923H263.258V284.909H367.129V171.923Z"/><path fill="#fff" d="M334.297 274.527L312.209 281.55L331.61 269.946L305.941 278.496L317.88 268.114L289.629 278.854L285.645 264.755L279.723 282.188L272.631 283.294C273.264 284.407 273.899 285.522 274.538 286.638C277.821 292.363 281.14 298.11 284.403 303.912L296.157 299.585L333.103 281.245L311.314 287.047L334.297 274.527Z"/><path fill="#5294BD" d="M135.315 192.053C127.357 193.525 118.065 201.464 114.475 205.657C111.615 208.995 109.162 212.784 107.908 217.029C104.485 228.563 113.176 243.935 116.809 254.632C116.809 258.574 120.092 264.343 121.382 268.105L126.527 283.26C129.658 292.48 132.706 301.723 135.801 310.957C136.661 313.526 150.179 354.851 150.48 354.76L292.556 312.121L274.051 281.648L179.233 286.012C175.711 286.177 169.174 256.244 168.085 252.797C163.518 238.343 158.438 224.068 152.844 209.972C149.883 202.481 145.34 190.199 135.315 192.053Z"/><path fill="#5294BD" d="M315.343 242.463C319.712 242.463 323.253 235.285 323.253 226.431C323.253 217.577 319.712 210.399 315.343 210.399C310.975 210.399 307.434 217.577 307.434 226.431C307.434 235.285 310.975 242.463 315.343 242.463Z"/><path fill="#1B4159" d="M399.664 310.451H333.342V366.749H399.664V310.451Z"/><path fill="#FF9B85" d="M398.828 308.423H332.506V364.721H398.828V308.423Z"/></svg>