<svg width="255" height="46" viewBox="0 0 255 46" fill="none" xmlns="http://www.w3.org/2000/svg">
<g clip-path="url(#clip0_169_2220)">
<path d="M22.0747 7.21875V33H18.7393V7.21875H22.0747ZM27.2471 7.21875H30.2925L40.9272 25.6201V7.21875H44.2788V33H41.3623L30.5825 14.373V33H27.2471V7.21875ZM49.1289 33V7.21875H52.4644V29.6484H61.6812V33H49.1289ZM79.1641 7.21875H82.5156V25.3784C82.2256 27.4517 81.3716 29.2026 79.9536 30.6313C78.2349 32.3501 76.167 33.2095 73.75 33.2095C71.333 33.2095 69.2651 32.3555 67.5464 30.6475C65.8384 28.9287 64.9844 26.8608 64.9844 24.4438V7.21875H68.3359V24.4438C68.3359 25.9263 68.8623 27.1992 69.915 28.2627C70.9785 29.3154 72.2568 29.8418 73.75 29.8418C75.2539 29.8418 76.5322 29.3154 77.585 28.2627C78.6377 27.21 79.1641 25.937 79.1641 24.4438V7.21875ZM101.529 7.21875H104.881V25.3784C104.591 27.4517 103.737 29.2026 102.319 30.6313C100.6 32.3501 98.5322 33.2095 96.1152 33.2095C93.6982 33.2095 91.6304 32.3555 89.9116 30.6475C88.2036 28.9287 87.3496 26.8608 87.3496 24.4438V7.21875H90.7012V24.4438C90.7012 25.9263 91.2275 27.1992 92.2803 28.2627C93.3438 29.3154 94.6221 29.8418 96.1152 29.8418C97.6191 29.8418 98.8975 29.3154 99.9502 28.2627C101.003 27.21 101.529 25.937 101.529 24.4438V7.21875ZM109.715 7.21875H112.76L123.395 25.6201V7.21875H126.747V33H123.83L113.05 14.373V33H109.715V7.21875ZM139.347 10.5542V33H135.996V10.5542H129.985V7.21875H145.357V10.5542H139.347Z" fill="white"/>
<path d="M162.381 13.9775H163.875V14.3594C164.805 13.4629 165.917 13.0146 167.212 13.0146C168.551 13.0146 169.691 13.485 170.632 14.4258C170.886 14.6803 171.108 14.957 171.296 15.2559C171.484 14.9681 171.711 14.6914 171.977 14.4258C172.917 13.485 174.057 13.0146 175.396 13.0146C176.736 13.0146 177.876 13.485 178.816 14.4258C179.713 15.3333 180.183 16.4235 180.228 17.6963V30.2803H178.733V17.6963H178.75C178.706 16.833 178.379 16.097 177.771 15.4883C177.106 14.8353 176.315 14.5088 175.396 14.5088C174.478 14.5088 173.687 14.8353 173.022 15.4883C172.369 16.1413 172.043 16.9548 172.043 17.9287V30.2803H170.549V17.6963H170.565C170.521 16.833 170.195 16.097 169.586 15.4883C168.922 14.8353 168.131 14.5088 167.212 14.5088C166.293 14.5088 165.507 14.8353 164.854 15.4883C164.279 16.0527 163.952 16.7445 163.875 17.5635V30.2803H162.381V13.9775ZM188.329 27.2256C189.735 28.5094 191.406 29.1514 193.343 29.1514C195.424 29.1514 197.2 28.4154 198.672 26.9434C198.86 26.7552 199.037 26.5615 199.203 26.3623L200.78 26.9268C200.493 27.3252 200.166 27.707 199.801 28.0723C198.019 29.8542 195.866 30.7451 193.343 30.7451C190.83 30.7451 188.683 29.8542 186.901 28.0723C185.119 26.2904 184.229 24.1377 184.229 21.6143C184.229 19.1019 185.119 16.9548 186.901 15.1729C188.683 13.391 190.83 12.5 193.343 12.5C195.501 12.5 197.388 13.1475 199.004 14.4424C199.27 14.6637 199.535 14.9072 199.801 15.1729C199.9 15.2725 199.994 15.3721 200.083 15.4717L198.954 16.6006L188.329 27.2256ZM197.858 15.5879C196.563 14.5918 195.058 14.0938 193.343 14.0938C191.273 14.0938 189.502 14.8298 188.03 16.3018C186.558 17.7627 185.822 19.5335 185.822 21.6143C185.822 23.3298 186.32 24.835 187.316 26.1299L197.858 15.5879ZM222.379 30.2803H220.885V26.96C220.597 27.3473 220.282 27.7181 219.938 28.0723C218.157 29.8542 216.004 30.7451 213.48 30.7451C210.968 30.7451 208.821 29.8542 207.039 28.0723C205.257 26.2904 204.366 24.1432 204.366 21.6309C204.366 19.1074 205.257 16.9548 207.039 15.1729C208.821 13.391 210.968 12.5 213.48 12.5C216.004 12.5 218.157 13.391 219.938 15.1729C220.282 15.527 220.597 15.8978 220.885 16.2852V3.71777H222.379V30.2803ZM220.885 23.1084V20.1533C220.608 18.6924 219.916 17.4085 218.81 16.3018C217.338 14.8298 215.561 14.0938 213.48 14.0938C211.4 14.0938 209.623 14.8298 208.151 16.3018C206.679 17.7738 205.943 19.5501 205.943 21.6309C205.943 23.7116 206.679 25.488 208.151 26.96C209.623 28.4209 211.4 29.1514 213.48 29.1514C215.561 29.1514 217.338 28.4154 218.81 26.9434C219.916 25.8366 220.608 24.5583 220.885 23.1084ZM229.186 13.9775V30.2803H227.691V13.9775H229.186ZM228.438 8.2002C228.848 8.2002 229.197 8.34408 229.484 8.63184C229.783 8.9196 229.933 9.26823 229.933 9.67773C229.933 10.0983 229.783 10.4525 229.484 10.7402C229.197 11.028 228.848 11.1719 228.438 11.1719C228.029 11.1719 227.675 11.028 227.376 10.7402C227.088 10.4525 226.944 10.0983 226.944 9.67773C226.944 9.26823 227.088 8.9196 227.376 8.63184C227.675 8.34408 228.029 8.2002 228.438 8.2002ZM252.096 30.2803H250.602V26.96C250.314 27.3473 249.998 27.7181 249.655 28.0723C247.873 29.8542 245.721 30.7451 243.197 30.7451C240.685 30.7451 238.538 29.8542 236.756 28.0723C234.974 26.2904 234.083 24.1432 234.083 21.6309C234.083 19.1074 234.974 16.9548 236.756 15.1729C238.538 13.391 240.685 12.5 243.197 12.5C245.721 12.5 247.873 13.391 249.655 15.1729C249.998 15.527 250.314 15.8978 250.602 16.2852V13.9775H252.096V30.2803ZM250.602 23.1084V20.1533C250.325 18.6924 249.633 17.4085 248.526 16.3018C247.054 14.8298 245.278 14.0938 243.197 14.0938C241.117 14.0938 239.34 14.8298 237.868 16.3018C236.396 17.7738 235.66 19.5501 235.66 21.6309C235.66 23.7116 236.396 25.488 237.868 26.96C239.34 28.4209 241.117 29.1514 243.197 29.1514C245.278 29.1514 247.054 28.4154 248.526 26.9434C249.633 25.8366 250.325 24.5583 250.602 23.1084Z" fill="white"/>
<path d="M153.291 5.93066V38.3607" stroke="white" stroke-width="2" stroke-miterlimit="10"/>
</g>
<defs>
<clipPath id="clip0_169_2220">
<rect width="254.55" height="45.15" fill="white"/>
</clipPath>
</defs>
</svg>
