<svg width="319" height="300" viewBox="0 0 319 300" fill="none" xmlns="http://www.w3.org/2000/svg">
<path d="M156.538 300C227.848 300 285.655 297.023 285.655 293.35C285.655 289.678 227.848 286.7 156.538 286.7C85.2293 286.7 27.4219 289.678 27.4219 293.35C27.4219 297.023 85.2293 300 156.538 300Z" fill="#263238"/>
<path d="M80.5027 175.445H239.988C240.927 175.445 241.827 175.818 242.491 176.482C243.155 177.146 243.528 178.046 243.528 178.985V281.37H76.9551V178.985C76.9551 178.519 77.0469 178.058 77.2253 177.628C77.4037 177.198 77.6651 176.808 77.9947 176.479C78.3242 176.15 78.7153 175.89 79.1457 175.712C79.5761 175.535 80.0372 175.444 80.5027 175.445Z" fill="#92E3A9" stroke="#263238" stroke-linecap="round" stroke-linejoin="round"/>
<path d="M89.0593 183.48H231.434C231.899 183.48 232.359 183.572 232.789 183.75C233.218 183.928 233.608 184.188 233.937 184.517C234.265 184.846 234.526 185.236 234.704 185.665C234.882 186.095 234.973 186.555 234.973 187.02V282.797H85.5117V187.028C85.5106 186.562 85.6017 186.1 85.7796 185.669C85.9575 185.238 86.2187 184.847 86.5484 184.517C86.878 184.187 87.2695 183.926 87.7004 183.748C88.1313 183.57 88.5932 183.479 89.0593 183.48Z" fill="#263238" stroke="#263238" stroke-linecap="round" stroke-linejoin="round"/>
<path d="M242.103 289.926H70.9756C63.0966 289.926 56.7109 285.157 56.7109 279.275H256.367C256.367 285.157 249.982 289.926 242.103 289.926Z" fill="#92E3A9" stroke="#263238" stroke-linecap="round" stroke-linejoin="round"/>
<path d="M159.533 77.9106C148.543 88.3637 120.435 98.9241 87.6562 121.324C87.6562 121.324 89.7023 197.011 159.533 238.386V77.9106Z" fill="#92E3A9" stroke="#263238" stroke-linecap="round" stroke-linejoin="round"/>
<path d="M159.533 77.9106C170.514 88.3637 198.631 98.9241 231.409 121.324C231.409 121.324 229.363 197.011 159.533 238.386V77.9106Z" fill="#263238" stroke="#263238" stroke-linecap="round" stroke-linejoin="round"/>
<path d="M159.534 84.3535C146.276 93.7506 123.299 102.71 92.9297 123.46C92.9297 123.46 94.8273 193.587 159.534 231.942C224.241 193.603 226.138 123.46 226.138 123.46C195.761 102.719 172.891 93.7506 159.534 84.3535Z" fill="#263238" stroke="#263238" stroke-linecap="round" stroke-linejoin="round"/>
<path d="M214.784 116.01C168.451 130.036 133.107 170.751 117.035 192.226C128.09 208.444 142.604 222.009 159.532 231.943C224.239 193.604 226.137 123.46 226.137 123.46C222.226 120.798 218.442 118.315 214.784 116.01Z" fill="#92E3A9" stroke="#263238" stroke-linecap="round" stroke-linejoin="round"/>
<path d="M184.763 155.066H135.088C133.994 155.066 132.945 154.632 132.171 153.858C131.397 153.085 130.963 152.035 130.963 150.941V127.56C131.091 119.968 134.197 112.73 139.612 107.406C145.026 102.082 152.316 99.0986 159.909 99.0986C167.502 99.0986 174.792 102.082 180.206 107.406C185.621 112.73 188.727 119.968 188.855 127.56V150.941C188.855 152.03 188.425 153.074 187.658 153.847C186.892 154.619 185.851 155.058 184.763 155.066ZM139.246 146.816H180.638V127.56C180.53 122.143 178.302 116.984 174.432 113.191C170.563 109.398 165.36 107.273 159.942 107.273C154.524 107.273 149.321 109.398 145.452 113.191C141.582 116.984 139.354 122.143 139.246 127.56V146.816Z" fill="white" stroke="#263238" stroke-linecap="round" stroke-linejoin="round"/>
<path d="M191.131 143.797H127.934V197.201H191.131V143.797Z" fill="white" stroke="#263238" stroke-linecap="round" stroke-linejoin="round"/>
<path d="M166.099 165.973C166.099 164.757 165.777 163.563 165.165 162.512C164.553 161.461 163.674 160.59 162.616 159.99C161.558 159.389 160.36 159.08 159.144 159.093C157.928 159.106 156.737 159.442 155.693 160.065C154.648 160.688 153.788 161.577 153.199 162.641C152.61 163.705 152.313 164.906 152.34 166.122C152.366 167.338 152.714 168.526 153.348 169.563C153.983 170.601 154.881 171.452 155.951 172.029L154.796 184.157H163.641L162.486 172.029C163.579 171.441 164.493 170.567 165.13 169.501C165.766 168.434 166.101 167.215 166.099 165.973Z" fill="#263238" stroke="#263238" stroke-linecap="round" stroke-linejoin="round"/>
<path d="M284.046 155.596L283.947 154.359" stroke="#263238" stroke-linecap="round" stroke-linejoin="round"/>
<path d="M283.712 151.891C280.445 120.968 266.022 92.2939 243.142 71.2353C220.263 50.1766 190.494 38.1762 159.406 37.4794C128.318 36.7826 98.041 47.4372 74.2408 67.4495C50.4405 87.4619 34.7476 115.461 30.0985 146.207C29.7465 148.55 29.4714 150.901 29.2734 153.261" stroke="#263238" stroke-linecap="round" stroke-linejoin="round" stroke-dasharray="3.01 3.01"/>
<path d="M29.1224 154.482L29.0234 155.712" stroke="#263238" stroke-linecap="round" stroke-linejoin="round"/>
<path d="M57.5291 134.096L64.8388 104.354H42.6621L57.5291 134.096Z" fill="#263238" stroke="#263238" stroke-linecap="round" stroke-linejoin="round"/>
<path d="M57.528 134.095L59.1533 105.483H45.0371L57.528 134.095Z" fill="#92E3A9" stroke="#263238" stroke-linecap="round" stroke-linejoin="round"/>
<path d="M57.5264 134.096L56.0166 103.256H41.9004L57.5264 134.096Z" fill="#92E3A9" stroke="#263238" stroke-linecap="round" stroke-linejoin="round"/>
<path d="M31.1763 101.829L27.538 97.7124H8.38086L17.3654 134.096H57.5277L51.1585 101.829H31.1763Z" fill="#263238" stroke="#263238" stroke-linecap="round" stroke-linejoin="round"/>
<path d="M100.156 45.521H52.313C50.6408 45.521 49.2852 46.8766 49.2852 48.5488V74.3969C49.2852 76.0691 50.6408 77.4248 52.313 77.4248H100.156C101.828 77.4248 103.184 76.0691 103.184 74.3969V48.5488C103.184 46.8766 101.828 45.521 100.156 45.521Z" fill="#263238" stroke="#263238" stroke-linecap="round" stroke-linejoin="round"/>
<path d="M103.184 51.5684H49.2852V63.1187H103.184V51.5684Z" fill="#92E3A9" stroke="#263238" stroke-linecap="round" stroke-linejoin="round"/>
<path d="M91.8093 72.3261C91.8093 71.8806 91.6772 71.4451 91.4297 71.0747C91.1823 70.7043 90.8305 70.4157 90.4189 70.2452C90.0074 70.0747 89.5545 70.0301 89.1176 70.117C88.6807 70.2039 88.2794 70.4184 87.9644 70.7334C87.6494 71.0484 87.4349 71.4497 87.348 71.8867C87.2611 72.3236 87.3057 72.7764 87.4761 73.188C87.6466 73.5995 87.9353 73.9513 88.3057 74.1988C88.6761 74.4463 89.1115 74.5784 89.557 74.5784C90.1544 74.5784 90.7272 74.3411 91.1496 73.9187C91.572 73.4963 91.8093 72.9234 91.8093 72.3261Z" fill="white" stroke="#263238" stroke-linecap="round" stroke-linejoin="round"/>
<path d="M98.0691 72.3261C98.0691 71.8806 97.937 71.4451 97.6895 71.0747C97.442 70.7043 97.0903 70.4157 96.6787 70.2452C96.2671 70.0747 95.8143 70.0301 95.3774 70.117C94.9405 70.2039 94.5391 70.4184 94.2241 70.7334C93.9092 71.0484 93.6946 71.4497 93.6077 71.8867C93.5208 72.3236 93.5654 72.7764 93.7359 73.188C93.9064 73.5995 94.1951 73.9513 94.5655 74.1988C94.9359 74.4463 95.3713 74.5784 95.8168 74.5784C96.4141 74.5784 96.987 74.3411 97.4094 73.9187C97.8318 73.4963 98.0691 72.9234 98.0691 72.3261Z" fill="white" stroke="#263238" stroke-linecap="round" stroke-linejoin="round"/>
<path d="M189.598 24.1445H131.879V61.5677H189.598V24.1445Z" fill="#92E3A9" stroke="#263238" stroke-linecap="round" stroke-linejoin="round"/>
<path d="M186.982 26.5205H134.691V58.8863H186.982V26.5205Z" fill="#263238" stroke="#263238" stroke-linecap="round" stroke-linejoin="round"/>
<path d="M149.988 49.0926C149.988 45.5614 147.117 39.4893 143.586 39.4893C140.055 39.4893 137.176 45.5614 137.176 49.0926C137.176 52.6237 140.047 53.4982 143.586 53.4982C147.126 53.4982 149.988 52.5989 149.988 49.0926Z" fill="white" stroke="#263238" stroke-linecap="round" stroke-linejoin="round"/>
<path d="M143.585 40.6614C146.018 40.6614 147.991 38.6889 147.991 36.2557C147.991 33.8226 146.018 31.8501 143.585 31.8501C141.152 31.8501 139.18 33.8226 139.18 36.2557C139.18 38.6889 141.152 40.6614 143.585 40.6614Z" fill="white" stroke="#263238" stroke-linecap="round" stroke-linejoin="round"/>
<path d="M156.393 32.6831H167.06" stroke="white" stroke-width="2" stroke-linecap="round" stroke-linejoin="round"/>
<path d="M156.393 37.3032H167.06" stroke="white" stroke-width="2" stroke-linecap="round" stroke-linejoin="round"/>
<path d="M156.393 45.4878H181.284" stroke="white" stroke-width="2" stroke-linecap="round" stroke-linejoin="round"/>
<path d="M156.393 51.5356H181.284" stroke="white" stroke-width="2" stroke-linecap="round" stroke-linejoin="round"/>
<path d="M268.588 45.521H225.661C223.005 45.521 220.852 47.6745 220.852 50.3309V72.6726C220.852 75.329 223.005 77.4825 225.661 77.4825H268.588C271.244 77.4825 273.397 75.329 273.397 72.6726V50.3309C273.397 47.6745 271.244 45.521 268.588 45.521Z" fill="#263238" stroke="#263238" stroke-width="2" stroke-linecap="round" stroke-linejoin="round"/>
<path d="M249.224 60.7015L273.397 48.4746V47.9136C273.397 47.279 273.145 46.6705 272.697 46.2218C272.248 45.7731 271.639 45.521 271.005 45.521H223.252C222.617 45.521 222.008 45.7728 221.558 46.2213C221.108 46.6697 220.854 47.2783 220.852 47.9136V48.5818L244.588 60.7592C245.311 61.1123 246.108 61.291 246.913 61.281C247.718 61.2709 248.51 61.0725 249.224 60.7015Z" fill="#92E3A9" stroke="#263238" stroke-width="2" stroke-linecap="round" stroke-linejoin="round"/>
<path d="M299.887 101.243H253.462C251.617 101.243 250.121 102.739 250.121 104.584V124.706C250.121 126.552 251.617 128.048 253.462 128.048H299.887C301.732 128.048 303.228 126.552 303.228 124.706V104.584C303.228 102.739 301.732 101.243 299.887 101.243Z" fill="#263238"/>
<path d="M250.131 121.035V135.432L258.158 126.192" fill="#263238"/>
<path d="M268.644 115.136C268.646 114.591 268.485 114.057 268.183 113.602C267.881 113.148 267.451 112.793 266.947 112.584C266.443 112.374 265.888 112.319 265.353 112.425C264.818 112.531 264.326 112.794 263.94 113.18C263.554 113.566 263.291 114.057 263.185 114.593C263.079 115.128 263.135 115.683 263.344 116.186C263.554 116.69 263.908 117.121 264.363 117.423C264.817 117.725 265.351 117.885 265.897 117.884C266.625 117.882 267.322 117.591 267.837 117.077C268.352 116.562 268.642 115.864 268.644 115.136Z" fill="#92E3A9"/>
<path d="M280.435 115.136C280.437 114.591 280.276 114.057 279.974 113.602C279.672 113.148 279.242 112.793 278.738 112.584C278.234 112.374 277.679 112.319 277.144 112.425C276.609 112.531 276.117 112.794 275.731 113.18C275.345 113.566 275.082 114.057 274.976 114.593C274.87 115.128 274.926 115.683 275.135 116.186C275.345 116.69 275.699 117.121 276.154 117.423C276.608 117.725 277.142 117.885 277.688 117.884C278.416 117.882 279.113 117.591 279.628 117.077C280.143 116.562 280.433 115.864 280.435 115.136Z" fill="#92E3A9"/>
<path d="M292.234 115.136C292.235 114.591 292.075 114.057 291.773 113.603C291.472 113.149 291.042 112.795 290.538 112.585C290.035 112.375 289.481 112.319 288.946 112.425C288.411 112.53 287.919 112.792 287.533 113.177C287.146 113.562 286.883 114.053 286.776 114.588C286.669 115.122 286.723 115.677 286.932 116.181C287.14 116.685 287.493 117.116 287.946 117.419C288.4 117.722 288.933 117.884 289.478 117.884C290.207 117.882 290.905 117.592 291.421 117.077C291.938 116.563 292.229 115.865 292.234 115.136Z" fill="#92E3A9"/>
<path d="M57.2482 168.12C57.1192 167.951 56.9532 167.814 56.7629 167.72C56.5727 167.625 56.3633 167.576 56.1509 167.575H20.5097L19.1402 163.45C19.0472 163.176 18.8706 162.938 18.6353 162.769C18.4001 162.601 18.1179 162.51 17.8284 162.51H8.80263C8.45456 162.537 8.12947 162.694 7.89232 162.95C7.65518 163.206 7.52344 163.543 7.52344 163.892C7.52344 164.241 7.65518 164.577 7.89232 164.833C8.12947 165.089 8.45456 165.247 8.80263 165.274H16.8301L25.5342 191.386C25.6261 191.66 25.8024 191.899 26.0379 192.068C26.2734 192.237 26.5562 192.327 26.8459 192.326H27.3492C26.8535 193.09 26.5899 193.981 26.5902 194.892C26.5858 195.635 26.7551 196.369 27.0846 197.035C27.4141 197.701 27.8946 198.28 28.4879 198.728C29.0812 199.175 29.7708 199.478 30.5017 199.611C31.2327 199.745 31.9847 199.706 32.6978 199.497C33.4109 199.288 34.0654 198.916 34.6091 198.409C35.1528 197.903 35.5706 197.277 35.8292 196.58C36.0878 195.883 36.1801 195.136 36.0987 194.398C36.0173 193.659 35.7644 192.95 35.3602 192.326H41.9604C41.4647 193.09 41.2011 193.981 41.2014 194.892C41.1747 195.534 41.2781 196.176 41.5055 196.777C41.7329 197.378 42.0795 197.927 42.5246 198.391C42.9696 198.855 43.5039 199.225 44.0953 199.477C44.6867 199.729 45.323 199.859 45.9659 199.859C46.6088 199.859 47.2451 199.729 47.8365 199.477C48.4279 199.225 48.9622 198.855 49.4073 198.391C49.8523 197.927 50.199 197.378 50.4264 196.777C50.6538 196.176 50.7572 195.534 50.7304 194.892C50.7308 193.981 50.4671 193.09 49.9714 192.326H51.0357C51.2262 192.341 51.4176 192.316 51.598 192.253C51.7784 192.191 51.9439 192.091 52.0841 191.961C52.2243 191.832 52.3361 191.674 52.4126 191.499C52.4891 191.324 52.5286 191.135 52.5286 190.944C52.5286 190.753 52.4891 190.564 52.4126 190.389C52.3361 190.214 52.2243 190.057 52.0841 189.927C51.9439 189.797 51.7784 189.698 51.598 189.635C51.4176 189.572 51.2262 189.548 51.0357 189.562H27.836L26.3097 185H52.199C52.5032 185 52.7988 184.899 53.0403 184.715C53.2819 184.53 53.4559 184.27 53.5355 183.977L57.4792 169.324C57.5369 169.12 57.5461 168.904 57.506 168.695C57.4659 168.486 57.3776 168.289 57.2482 168.12ZM31.3506 196.889C30.9557 196.889 30.5697 196.771 30.2414 196.552C29.913 196.333 29.6571 196.021 29.506 195.656C29.3549 195.291 29.3153 194.89 29.3924 194.503C29.4694 194.115 29.6596 193.759 29.9388 193.48C30.218 193.201 30.5738 193.011 30.9611 192.934C31.3484 192.857 31.7498 192.896 32.1146 193.047C32.4795 193.199 32.7913 193.454 33.0107 193.783C33.2301 194.111 33.3472 194.497 33.3472 194.892C33.345 195.421 33.1339 195.927 32.76 196.301C32.386 196.675 31.8794 196.886 31.3506 196.889ZM46.0113 196.889C45.6164 196.889 45.2304 196.771 44.9021 196.552C44.5737 196.333 44.3178 196.021 44.1667 195.656C44.0156 195.291 43.9761 194.89 44.0531 194.503C44.1301 194.115 44.3203 193.759 44.5995 193.48C44.8787 193.201 45.2345 193.011 45.6218 192.934C46.0091 192.857 46.4105 192.896 46.7754 193.047C47.1402 193.199 47.452 193.454 47.6714 193.783C47.8908 194.111 48.0079 194.497 48.0079 194.892C48.0068 195.156 47.9536 195.417 47.8513 195.661C47.7491 195.904 47.5997 196.125 47.4119 196.31C47.2241 196.496 47.0015 196.642 46.7569 196.742C46.5123 196.841 46.2505 196.891 45.9865 196.889H46.0113ZM49.6992 182.236H44.5758V170.372H49.6992V182.236ZM36.6803 170.372H41.8037V182.261H36.6803V170.372ZM33.9164 182.261H28.793V170.372H33.9164V182.261ZM21.4338 170.372H26.0209V182.261H25.4022L21.4338 170.372ZM52.463 177.368V170.372H54.3441L52.463 177.368Z" fill="#263238"/>
<path d="M282.068 161.437C278.124 161.435 274.267 162.604 270.987 164.794C267.706 166.985 265.149 170.099 263.639 173.743C262.128 177.387 261.733 181.397 262.502 185.266C263.271 189.135 265.17 192.689 267.96 195.478C270.749 198.267 274.303 200.167 278.172 200.936C282.041 201.705 286.051 201.31 289.695 199.799C293.339 198.289 296.453 195.732 298.644 192.451C300.834 189.171 302.003 185.314 302.001 181.37C301.994 176.085 299.892 171.019 296.156 167.282C292.419 163.546 287.353 161.444 282.068 161.437ZM282.068 163.912C283.718 163.912 285.517 166.074 286.787 169.687H277.349C278.644 166.074 280.393 163.912 282.068 163.912ZM287.505 172.162C288.111 174.769 288.446 177.432 288.503 180.107H275.625C275.683 177.432 276.017 174.769 276.623 172.162H287.505ZM288.545 182.607C288.477 185.724 288.017 188.821 287.175 191.823H276.994C276.169 188.829 275.723 185.745 275.666 182.64L288.545 182.607ZM273.183 180.132H264.66C264.861 177.314 265.744 174.587 267.234 172.187H274.066C273.506 174.8 273.196 177.46 273.141 180.132H273.183ZM273.183 182.607C273.224 185.714 273.62 188.806 274.363 191.823H268.084C266.083 189.155 264.894 185.967 264.66 182.64L273.183 182.607ZM275.138 194.298C275.624 195.65 276.272 196.938 277.069 198.134C274.562 197.377 272.259 196.066 270.328 194.298H275.138ZM277.819 194.298H286.309C285.096 197.185 283.537 198.868 282.068 198.868C280.6 198.868 279.04 197.152 277.819 194.298ZM288.99 194.298H293.8C291.87 196.066 289.566 197.377 287.06 198.134C287.857 196.938 288.505 195.65 288.99 194.298ZM289.766 191.823C290.537 188.809 290.958 185.717 291.02 182.607H299.501C299.264 185.949 298.063 189.15 296.044 191.823H289.766ZM291.02 180.132C290.965 177.46 290.656 174.8 290.096 172.187H296.927C298.417 174.587 299.301 177.314 299.501 180.132H291.02ZM295.062 169.712H289.444C288.912 167.918 288.12 166.211 287.093 164.646C290.151 165.579 292.896 167.331 295.029 169.712H295.062ZM277.102 164.646C276.074 166.21 275.285 167.917 274.759 169.712H269.132C271.266 167.331 274.01 165.579 277.069 164.646H277.102Z" fill="#263238"/>
</svg>
