<svg xmlns="http://www.w3.org/2000/svg" width="328" height="301" fill="none" viewBox="0 0 328 301"><path stroke="#263238" stroke-miterlimit="10" d="M165.636 201.936C157.576 183.641 158.768 153.676 162.503 151.181C166.613 148.444 173.12 162.491 179.634 158.381C186.148 154.272 190.597 145.36 185.115 131.313C179.634 117.267 172.441 126.518 167.299 129.927C162.157 133.337 158.047 130.274 159.08 117.939C159.835 108.84 163.383 92.1181 165.199 83.9825C166.017 84.3359 166.834 84.6755 167.638 85.0705C151.54 77.5308 133.724 75.133 126.191 77.5308C118.658 79.9285 120.023 80.6146 123.786 89.5194C131.652 108.098 101.874 114.467 93.2948 100.157C88.1598 91.5915 95.7134 86.7821 93.6552 80.6146C91.597 74.447 53.5729 81.6402 48.7775 84.3844C48.7775 84.3844 58.0219 112.104 56.6567 122.069C55.2915 132.034 50.4891 136.462 43.2959 129.262C36.1027 122.062 26.8514 128.569 26.5049 140.572C26.1584 152.574 28.2166 162.151 36.4423 159.414C44.668 156.677 51.1752 146.739 53.9125 159.414C56.6498 172.089 51.8335 188.519 49.117 200.182C49.117 200.182 70.7035 209.434 80.634 208.748C90.5645 208.062 96.739 207.722 93.6552 201.554C90.5714 195.387 85.4295 191.277 89.1993 184.424C92.9691 177.57 108.042 178.256 115.921 179.968C123.8 181.68 127.23 187.508 124.833 194.015C122.435 200.522 118.319 207.036 125.858 208.401C132.961 209.697 151.027 206.724 168.823 200.931C167.77 201.27 166.675 201.603 165.636 201.936Z"/><path stroke="#263238" stroke-miterlimit="10" d="M172.095 199.835C171.041 200.196 169.981 200.528 168.928 200.896C169.981 200.549 171.041 200.196 172.095 199.835Z"/><path stroke="#263238" stroke-miterlimit="10" d="M297.143 126.171C290.636 126.171 290.289 131.313 283.436 130.288C276.582 129.262 275.903 113.497 283.096 85.7495C283.096 85.7495 275.217 91.5706 257.4 91.9171C239.584 92.2636 232.39 90.1985 236.846 83.6914C241.302 77.1842 244.726 72.0423 240.956 66.9072C237.186 61.7722 219.03 62.4513 213.236 66.9072C207.443 71.3631 211.525 76.4982 215.634 82.3192C219.743 88.1403 214.941 91.5706 208.094 91.9171C201.248 92.2636 183.771 92.6101 167.666 85.0635C166.862 84.6823 166.044 84.3289 165.226 83.9755C163.411 92.1319 159.863 108.854 159.107 117.932C158.075 130.267 162.184 133.351 167.326 129.92C172.468 126.49 179.661 117.246 185.143 131.306C190.624 145.367 186.168 154.258 179.661 158.374C173.154 162.491 166.612 148.444 162.517 151.181C158.782 153.676 157.59 183.641 165.649 201.936C167.804 201.243 169.959 200.55 172.108 199.857C190.95 193.342 209.792 190.259 213.222 194.715C216.653 199.17 215.301 198.484 210.825 205.338C206.348 212.192 206.708 218.013 214.248 221.436C221.788 224.859 240.284 224.208 241.967 216.301C243.651 208.394 234.088 203.966 238.544 196.426C243 188.887 282.403 199.836 282.403 199.836C282.403 199.836 273.498 169.684 276.922 159.747C280.345 149.809 283.096 152.235 288.578 155.977C294.059 159.719 301.252 159.407 303.997 148.444C306.741 137.481 303.65 126.171 297.143 126.171Z"/><path fill="#92E3A9" stroke="#263238" stroke-miterlimit="10" d="M276.774 53.5098C285.496 49.3927 289.228 38.9847 285.111 30.2629C280.994 21.5412 270.586 17.8084 261.864 21.9256C253.143 26.0428 249.41 36.4507 253.527 45.1725C257.644 53.8942 268.052 57.627 276.774 53.5098Z"/><path fill="#fff" stroke="#263238" stroke-miterlimit="10" d="M270.788 52.0285C278.677 51.2189 284.415 44.1675 283.606 36.2789C282.796 28.3903 275.745 22.6516 267.856 23.4613C259.967 24.2709 254.229 31.3222 255.038 39.2109C255.848 47.0995 262.899 52.8382 270.788 52.0285Z"/><path fill="#92E3A9" stroke="#263238" stroke-miterlimit="10" d="M273.814 47.1863C279.029 44.7054 281.246 38.4664 278.765 33.2511C276.284 28.0358 270.045 25.8191 264.83 28.3C259.615 30.7808 257.398 37.0198 259.879 42.2352C262.36 47.4505 268.599 49.6672 273.814 47.1863Z"/><path fill="#fff" stroke="#263238" stroke-miterlimit="10" d="M275.919 37.7328C275.919 36.4266 275.532 35.1498 274.806 34.0637C274.081 32.9777 273.049 32.1312 271.842 31.6314C270.636 31.1315 269.308 31.0007 268.027 31.2556C266.746 31.5104 265.569 32.1394 264.645 33.063C263.722 33.9866 263.093 35.1633 262.838 36.4444C262.583 37.7255 262.714 39.0534 263.214 40.2601C263.713 41.4669 264.56 42.4983 265.646 43.224C266.732 43.9496 268.009 44.337 269.315 44.337C270.183 44.3379 271.042 44.1677 271.843 43.8361C272.645 43.5046 273.374 43.0181 273.987 42.4047C274.6 41.7913 275.087 41.0629 275.418 40.2612C275.75 39.4595 275.92 38.6003 275.919 37.7328Z"/><path fill="#92E3A9" stroke="#263238" stroke-miterlimit="10" d="M272.378 37.7333C272.379 37.1272 272.201 36.5343 271.865 36.0297C271.529 35.525 271.051 35.1314 270.492 34.8985C269.932 34.6656 269.316 34.6039 268.722 34.7213C268.127 34.8387 267.581 35.1299 267.152 35.558C266.722 35.9861 266.43 36.5319 266.311 37.1262C266.193 37.7206 266.253 38.3368 266.484 38.8969C266.716 39.457 267.109 39.9358 267.613 40.2726C268.116 40.6095 268.709 40.7893 269.315 40.7893C270.126 40.7893 270.904 40.4676 271.478 39.8946C272.053 39.3217 272.376 38.5444 272.378 37.7333Z"/><path fill="#263238" stroke="#263238" stroke-miterlimit="10" d="M270.584 32.9443L269.322 37.7329L273.841 38.7238L270.584 32.9443Z"/><path stroke="#263238" stroke-miterlimit="10" stroke-width="2" d="M272.51 35.6125L292.378 24.7881"/><path fill="#263238" stroke="#263238" stroke-miterlimit="10" d="M286.002 28.3499L286.3 23.1595L295.634 17.8235V23.7485L286.002 28.3499Z"/><path fill="#263238" stroke="#263238" stroke-miterlimit="10" d="M299.64 26.5692L295.552 23.5547L285.961 28.5927L290.583 31.2676L299.64 26.5692Z"/><path fill="#92E3A9" stroke="#263238" stroke-miterlimit="10" d="M177.77 38.7935H170.826V55.3281H177.77V38.7935Z"/><path fill="#92E3A9" stroke="#263238" stroke-miterlimit="10" d="M188.006 33.783H181.062V55.3279H188.006V33.783Z"/><path fill="#92E3A9" stroke="#263238" stroke-miterlimit="10" d="M198.241 38.7935H191.297V55.3281H198.241V38.7935Z"/><path fill="#92E3A9" stroke="#263238" stroke-miterlimit="10" d="M208.483 32.6953H201.539V55.3282H208.483V32.6953Z"/><path fill="#92E3A9" stroke="#263238" stroke-miterlimit="10" d="M218.719 24.4138H211.775V55.3279H218.719V24.4138Z"/><path fill="#263238" stroke="#263238" stroke-linecap="round" stroke-linejoin="round" d="M209.502 11.3167L212.211 12.474L193.785 30.159L184.984 25.3566L171.041 33.8318V36.3889L185.039 27.8791L194.145 32.8478L213.722 14.054L214.768 16.8052L218.642 7.81714L209.502 11.3167Z"/><path fill="#fff" stroke="#263238" stroke-miterlimit="10" d="M128.658 54.6341C138.048 52.4301 143.873 43.0318 141.669 33.6423C139.465 24.2528 130.066 18.4278 120.677 20.6318C111.287 22.8359 105.462 32.2342 107.666 41.6237C109.871 51.0132 119.269 56.8381 128.658 54.6341Z"/><path fill="#92E3A9" stroke="#263238" stroke-miterlimit="10" d="M128.121 52.7721C136.479 50.864 141.708 42.5416 139.8 34.1836C137.892 25.8256 129.57 20.5969 121.212 22.505C112.854 24.4131 107.625 32.7355 109.533 41.0935C111.441 49.4515 119.763 54.6802 128.121 52.7721Z"/><path fill="#fff" stroke="#263238" stroke-miterlimit="10" d="M126.802 51.5609C134.446 50.3762 139.682 43.2195 138.497 35.5758C137.312 27.9322 130.156 22.6962 122.512 23.8809C114.868 25.0655 109.632 32.2223 110.817 39.8659C112.002 47.5095 119.158 52.7455 126.802 51.5609Z"/><path fill="#263238" d="M124.452 49.7149V47.4904C123.761 47.5124 123.073 47.383 122.437 47.1112C121.802 46.8395 121.233 46.432 120.772 45.9173C119.954 44.9287 119.515 43.4526 119.455 41.4892L122.83 40.914C122.841 41.5886 122.925 42.26 123.079 42.9167C123.17 43.3727 123.389 43.7933 123.71 44.1294C123.85 44.2622 124.016 44.3655 124.197 44.4334C124.378 44.5012 124.57 44.5322 124.763 44.5244C124.96 44.547 125.159 44.5142 125.337 44.4297C125.516 44.3452 125.668 44.2124 125.775 44.0463C125.965 43.7108 126.061 43.33 126.052 42.9444C126.084 42.2101 125.888 41.4839 125.491 40.8655C125.051 40.2455 124.532 39.6863 123.946 39.2023L121.915 37.4629C121.473 37.0521 121.058 36.6122 120.675 36.1462C120.301 35.6873 120.006 35.1698 119.802 34.6147C119.572 33.9605 119.462 33.2705 119.476 32.5774C119.444 31.9431 119.54 31.3088 119.761 30.7132C119.981 30.1175 120.32 29.5729 120.758 29.1124C121.697 28.2524 122.915 27.7603 124.188 27.7265V25.5366H125.339V27.671C126.081 27.6824 126.808 27.8828 127.452 28.2531C127.97 28.5818 128.394 29.0374 128.686 29.5767C128.977 30.1083 129.187 30.6806 129.309 31.2745C129.433 31.8637 129.512 32.4614 129.545 33.0624L126.129 33.5614C126.121 33.0364 126.072 32.5127 125.983 31.9952C125.934 31.6084 125.786 31.2407 125.553 30.928C125.434 30.7965 125.285 30.6956 125.119 30.6341C124.952 30.5725 124.773 30.5521 124.597 30.5746C124.397 30.5716 124.199 30.618 124.022 30.7099C123.844 30.8018 123.692 30.9363 123.578 31.1013C123.35 31.4307 123.229 31.8229 123.232 32.2239C123.201 32.8558 123.386 33.4794 123.759 33.991C124.123 34.4545 124.524 34.8879 124.957 35.2869L126.939 37.0055C127.465 37.4853 127.954 38.0042 128.402 38.5578C128.848 39.1213 129.21 39.7469 129.476 40.415C129.759 41.158 129.898 41.9483 129.885 42.7435C129.895 43.5428 129.717 44.3334 129.365 45.0511C129.023 45.7269 128.506 46.2988 127.868 46.7073C127.181 47.1469 126.395 47.4088 125.581 47.4696V49.7149H124.452Z"/><path fill="#fff" stroke="#263238" stroke-miterlimit="10" d="M68.0693 24.115H35.6445V54.5994H68.0693V24.115Z"/><path fill="#92E3A9" stroke="#263238" stroke-linecap="round" stroke-linejoin="round" d="M68.0693 24.115H35.6445V31.9527H68.0693V24.115Z"/><path fill="#92E3A9" stroke="#263238" stroke-linecap="round" stroke-linejoin="round" d="M42.16 36.3047H38.2793V40.1854H42.16V36.3047Z"/><path fill="#92E3A9" stroke="#263238" stroke-linecap="round" stroke-linejoin="round" d="M47.9803 36.3047H44.0996V40.1854H47.9803V36.3047Z"/><path fill="#92E3A9" stroke="#263238" stroke-linecap="round" stroke-linejoin="round" d="M53.7928 36.3047H49.9121V40.1854H53.7928V36.3047Z"/><path fill="#92E3A9" stroke="#263238" stroke-linecap="round" stroke-linejoin="round" d="M59.6151 36.3047H55.7344V40.1854H59.6151V36.3047Z"/><path fill="#92E3A9" stroke="#263238" stroke-linecap="round" stroke-linejoin="round" d="M65.4354 36.3047H61.5547V40.1854H65.4354V36.3047Z"/><path fill="#92E3A9" stroke="#263238" stroke-linecap="round" stroke-linejoin="round" d="M42.16 42.4028H38.2793V46.2836H42.16V42.4028Z"/><path fill="#92E3A9" stroke="#263238" stroke-linecap="round" stroke-linejoin="round" d="M47.9803 42.4028H44.0996V46.2836H47.9803V42.4028Z"/><path fill="#92E3A9" stroke="#263238" stroke-linecap="round" stroke-linejoin="round" d="M53.7928 42.4028H49.9121V46.2836H53.7928V42.4028Z"/><path fill="#92E3A9" stroke="#263238" stroke-linecap="round" stroke-linejoin="round" d="M59.6151 42.4028H55.7344V46.2836H59.6151V42.4028Z"/><path fill="#92E3A9" stroke="#263238" stroke-linecap="round" stroke-linejoin="round" d="M65.4354 42.4028H61.5547V46.2836H65.4354V42.4028Z"/><path fill="#92E3A9" stroke="#263238" stroke-linecap="round" stroke-linejoin="round" d="M42.16 48.5017H38.2793V52.3824H42.16V48.5017Z"/><path fill="#92E3A9" stroke="#263238" stroke-linecap="round" stroke-linejoin="round" d="M47.9803 48.5017H44.0996V52.3824H47.9803V48.5017Z"/><path fill="#92E3A9" stroke="#263238" stroke-linecap="round" stroke-linejoin="round" d="M53.7928 48.5017H49.9121V52.3824H53.7928V48.5017Z"/><path fill="#92E3A9" stroke="#263238" stroke-linecap="round" stroke-linejoin="round" d="M59.6151 48.5017H55.7344V52.3824H59.6151V48.5017Z"/><path fill="#92E3A9" stroke="#263238" stroke-linecap="round" stroke-linejoin="round" d="M65.4354 48.5017H61.5547V52.3824H65.4354V48.5017Z"/><path fill="#263238" d="M42.852 19.1257H40.0801V26.61H42.852V19.1257Z"/><path fill="#263238" d="M49.7817 19.1257H47.0098V26.61H49.7817V19.1257Z"/><path fill="#263238" d="M56.7036 19.1257H53.9316V26.61H56.7036V19.1257Z"/><path fill="#263238" d="M63.6352 19.1257H60.8633V26.61H63.6352V19.1257Z"/><path fill="#92E3A9" d="M7.45076 251.83C8.95454 252.489 12.6343 252.406 12.6343 252.406C12.6343 252.406 11.8443 250.001 11.775 249.855C10.9642 248.165 8.41401 245.379 6.33506 245.656C5.99129 245.712 5.66325 245.841 5.37231 246.032C5.08136 246.224 4.83403 246.474 4.64641 246.768C4.45878 247.061 4.33509 247.391 4.28336 247.736C4.23163 248.08 4.25304 248.432 4.34619 248.767C4.69268 250.202 6.16874 251.276 7.45076 251.83Z"/><path fill="#92E3A9" d="M8.71906 262.496C10.2783 262.717 13.57 261.768 13.8264 261.692C14.3648 263.571 15.0293 265.411 15.8152 267.201C16.2657 268.247 16.7577 269.28 17.2566 270.326C16.9587 269.883 16.6884 269.495 16.6399 269.446C15.4202 268.026 12.2186 265.981 10.2921 266.834C9.9751 266.978 9.69201 267.187 9.46138 267.448C9.23075 267.709 9.05778 268.015 8.95378 268.347C8.84978 268.68 8.81708 269.03 8.85784 269.376C8.8986 269.722 9.01188 270.055 9.19029 270.354C9.88328 271.65 11.6088 272.294 12.9948 272.495C14.3808 272.696 17.2151 271.948 17.9566 271.733C18.1506 272.128 18.3446 272.53 18.5456 272.925C19.495 274.817 20.4513 276.702 21.3175 278.58C21.6294 279.238 21.9135 279.903 22.1976 280.569C21.9274 280.174 21.7056 279.876 21.664 279.806C20.4374 278.42 17.2359 276.376 15.3094 277.194C14.994 277.341 14.713 277.552 14.4844 277.814C14.2558 278.076 14.0847 278.384 13.9821 278.716C13.8796 279.048 13.8479 279.398 13.8891 279.744C13.9303 280.089 14.0435 280.422 14.2214 280.721C14.9144 282.017 16.6468 282.655 18.0259 282.856C19.4049 283.056 21.9759 282.377 22.8768 282.163C23.147 282.856 23.4173 283.549 23.6529 284.241C23.7984 284.706 23.9786 285.149 24.0964 285.627C24.2142 286.106 24.3597 286.556 24.4845 287.013C24.6993 287.907 24.928 288.829 25.1151 289.709C25.2537 290.319 25.3715 290.908 25.4893 291.49C25.1844 290.832 24.5676 289.55 24.5053 289.446C23.5074 287.859 20.6523 285.385 18.6218 285.898C18.2924 285.994 17.9865 286.157 17.7232 286.377C17.46 286.598 17.2451 286.87 17.0922 287.177C16.9392 287.484 16.8515 287.82 16.8345 288.162C16.8175 288.505 16.8715 288.848 16.9933 289.169C17.4992 290.555 19.0723 291.455 20.4582 291.864C21.9274 292.308 25.1844 291.899 25.5933 291.864C25.7873 292.841 25.9675 293.791 26.1269 294.685C26.4734 296.674 26.7367 298.448 26.9377 299.951H28.3236C28.0811 298.392 27.7692 296.542 27.3534 294.463C27.1594 293.472 26.9307 292.419 26.6605 291.338C27.6428 290.945 28.6008 290.493 29.5294 289.986C30.6035 291.151 33.3478 292.509 33.6873 292.682C33.3131 293.604 32.9389 294.498 32.5716 295.329C31.8093 297.083 31.0886 298.635 30.4511 299.951H31.941C32.4885 298.732 33.0914 297.346 33.7151 295.794C34.1031 294.858 34.4912 293.853 34.8862 292.821C35.2812 292.904 38.5036 293.555 40.0074 293.216C41.3933 292.911 43.0218 292.142 43.6386 290.79C43.7917 290.477 43.8772 290.135 43.8895 289.786C43.9018 289.437 43.8406 289.09 43.7099 288.766C43.5792 288.443 43.3819 288.15 43.1308 287.908C42.8798 287.666 42.5806 287.479 42.2526 287.36C40.2638 286.667 37.2354 288.954 36.1197 290.458C36.0573 290.548 35.4267 291.587 35.0802 292.252C35.2396 291.83 35.399 291.421 35.5515 290.984C35.8702 290.118 36.1613 289.245 36.4801 288.309L36.8959 286.923C37.0414 286.459 37.1384 285.96 37.2701 285.468C37.5403 284.339 37.7552 283.174 37.9631 282.003C38.7253 282.28 41.428 283.223 42.814 283.119C44.1999 283.015 45.9601 282.509 46.764 281.269C46.965 280.984 47.1037 280.66 47.1708 280.318C47.2379 279.976 47.2321 279.624 47.1536 279.284C47.075 278.945 46.9257 278.625 46.7152 278.348C46.5048 278.07 46.238 277.84 45.9324 277.672C44.0683 276.716 40.7281 278.483 39.4045 279.806C39.3213 279.89 38.4759 280.943 38.0185 281.532C38.1294 280.839 38.2472 280.146 38.3373 279.398C38.5937 277.319 38.7877 275.205 39.0303 273.098C39.0926 272.454 39.1619 271.809 39.2312 271.165C39.5015 271.269 42.6961 272.454 44.2623 272.35C45.6483 272.246 47.4015 271.74 48.2123 270.5C48.4123 270.215 48.55 269.891 48.6166 269.549C48.6831 269.207 48.677 268.855 48.5985 268.516C48.5201 268.177 48.3711 267.858 48.1613 267.58C47.9515 267.302 47.6855 267.071 47.3807 266.903C45.5166 265.94 42.1764 267.707 40.8459 269.03C40.7489 269.127 39.5361 270.652 39.2451 271.054C39.3906 269.633 39.5569 268.227 39.7717 266.841C40.0568 264.969 40.4595 263.118 40.9775 261.297C41.1023 261.345 44.4425 262.6 46.0363 262.489C47.4223 262.392 49.1825 261.879 49.9864 260.638C50.1863 260.353 50.3241 260.029 50.3906 259.688C50.4571 259.346 50.451 258.994 50.3726 258.655C50.2941 258.315 50.1452 257.997 49.9353 257.719C49.7255 257.441 49.4596 257.21 49.1548 257.042C47.2906 256.079 43.9504 257.853 42.6268 259.169C42.5229 259.273 41.2409 260.909 40.9983 261.248C40.9983 261.144 41.0538 261.033 41.0815 260.929C41.6555 259.121 42.3907 257.368 43.2783 255.691C43.7495 254.755 44.2623 253.889 44.7751 253.064C45.3711 253.362 48.1014 254.686 49.5636 254.748C51.0258 254.81 52.7514 254.485 53.7215 253.362C53.9523 253.101 54.1254 252.794 54.2292 252.461C54.3331 252.128 54.3655 251.777 54.3243 251.431C54.283 251.085 54.1691 250.752 53.99 250.453C53.8109 250.154 53.5707 249.896 53.285 249.696C51.5386 248.532 48.0252 249.932 46.563 251.082C46.4798 251.145 45.7453 251.879 45.2186 252.42C45.4542 252.052 45.6898 251.664 45.9116 251.311C46.7848 249.994 47.6718 248.837 48.4618 247.846C48.9192 247.271 49.3419 246.765 49.7438 246.287C50.4784 246.287 53.4443 246.183 54.7402 245.594C56.0361 245.005 57.4567 243.896 57.7617 242.448C57.8456 242.109 57.8572 241.757 57.7957 241.413C57.7343 241.07 57.6011 240.743 57.4049 240.455C57.2088 240.167 56.954 239.923 56.6572 239.74C56.3605 239.556 56.0284 239.438 55.6827 239.391C53.6037 239.17 51.1228 242.025 50.3606 243.737C50.2982 243.882 49.5359 246.314 49.5706 246.314H49.5636C49.1686 246.765 48.7459 247.25 48.3024 247.79C47.4847 248.788 46.5769 249.932 45.6691 251.255C44.6579 252.651 43.7322 254.107 42.8971 255.614C41.9636 257.292 41.182 259.05 40.5618 260.867V260.936C40.5618 260.32 40.5618 258.601 40.5618 258.469C40.3192 256.612 38.76 253.168 36.7018 252.787C36.3575 252.733 36.0057 252.752 35.6693 252.843C35.333 252.934 35.0195 253.095 34.7495 253.316C34.4795 253.536 34.2589 253.811 34.1022 254.122C33.9454 254.433 33.856 254.774 33.8398 255.122C33.722 256.598 34.7892 258.074 35.8287 259.003C37.0067 260.056 40.2707 261.082 40.534 261.151C39.9454 263.017 39.4823 264.92 39.1481 266.848C38.9471 267.97 38.7808 269.107 38.6283 270.243C38.6283 269.717 38.6283 269.238 38.6283 269.176C38.3858 267.319 36.8266 263.875 34.7684 263.494C34.4246 263.44 34.0734 263.459 33.7375 263.549C33.4016 263.64 33.0885 263.8 32.8186 264.02C32.5487 264.24 32.328 264.514 32.1708 264.824C32.0136 265.134 31.9235 265.474 31.9064 265.822C31.7886 267.298 32.8558 268.774 33.8952 269.71C34.9347 270.645 37.7205 271.574 38.4551 271.789L38.2888 273.105C38.0393 275.184 37.7967 277.305 37.4988 279.342C37.3948 280.035 37.2631 280.77 37.1315 281.483C37.1315 281.012 37.1315 280.61 37.1315 280.555C36.8889 278.698 35.3366 275.247 33.2715 274.865C32.9274 274.813 32.576 274.833 32.2401 274.924C31.9041 275.016 31.5912 275.177 31.3214 275.397C31.0517 275.617 30.8311 275.891 30.674 276.202C30.5169 276.513 30.4268 276.853 30.4095 277.201C30.2917 278.677 31.3589 280.153 32.4053 281.081C33.4517 282.01 35.9534 282.862 36.8266 283.16C36.6741 283.853 36.5216 284.602 36.3415 285.302C36.2098 285.766 36.1128 286.23 35.9534 286.688C35.794 287.145 35.6554 287.616 35.5099 288.074C35.1911 288.94 34.8723 289.834 34.5466 290.672L33.8537 292.363C33.9645 291.67 34.1586 290.236 34.1586 290.111C34.1332 288.466 33.6896 286.853 32.8696 285.427C32.8834 285.244 32.8834 285.061 32.8696 284.879C32.8219 284.536 32.7032 284.207 32.521 283.912C32.3387 283.618 32.097 283.365 31.8113 283.169C31.5256 282.973 31.2022 282.839 30.8618 282.776C30.5213 282.712 30.1714 282.721 29.8343 282.8C27.8108 283.341 26.5219 286.896 26.4248 288.767C26.4248 288.878 26.4941 290.083 26.5496 290.846C26.4526 290.402 26.3555 289.979 26.2447 289.522C26.0298 288.628 25.7942 287.741 25.5517 286.785C25.4131 286.327 25.2676 285.863 25.129 285.399C24.9904 284.934 24.8033 284.456 24.6369 283.978C24.2419 282.883 23.7776 281.795 23.2925 280.707C24.0756 280.52 26.8545 279.813 27.9633 278.954C29.0721 278.095 30.2501 276.709 30.2432 275.233C30.252 274.884 30.1876 274.538 30.0541 274.216C29.9205 273.894 29.7209 273.604 29.4681 273.364C29.2152 273.125 28.9149 272.941 28.5864 272.824C28.2579 272.708 27.9087 272.662 27.5613 272.689C25.4824 272.918 23.6668 276.238 23.2925 278.074C23.2925 278.185 23.147 279.529 23.0916 280.271C22.7936 279.619 22.4956 278.968 22.1768 278.316C21.2413 276.445 20.2434 274.574 19.2524 272.703L18.3516 270.985C18.6357 270.915 21.9482 270.146 23.2025 269.19C24.3182 268.337 25.4893 266.945 25.4824 265.469C25.4912 265.12 25.4268 264.774 25.2933 264.452C25.1597 264.13 24.9601 263.84 24.7073 263.6C24.4544 263.361 24.1541 263.177 23.8256 263.06C23.4971 262.944 23.1479 262.898 22.8005 262.925C20.7216 263.154 18.906 266.473 18.5317 268.31C18.5317 268.448 18.3238 270.389 18.31 270.881C17.617 269.613 17.0072 268.351 16.4251 267.076C15.6157 265.362 14.9212 263.595 14.3461 261.789C14.4778 261.789 17.9427 260.971 19.197 259.994C20.3058 259.142 21.4839 257.749 21.47 256.273C21.4798 255.925 21.4163 255.578 21.2836 255.257C21.1508 254.935 20.9518 254.644 20.6995 254.405C20.4472 254.165 20.1473 253.981 19.8192 253.864C19.4911 253.748 19.1421 253.702 18.7951 253.729C16.7161 253.958 14.9005 257.277 14.5194 259.107C14.5194 259.252 14.3045 261.338 14.2976 261.719L14.1867 261.401C13.6716 259.576 13.3168 257.709 13.1265 255.822C13.0086 254.783 12.9601 253.778 12.9255 252.808C13.6185 252.725 16.6052 252.323 17.8526 251.567C19.1 250.812 20.3681 249.585 20.5206 248.102C20.5684 247.757 20.5431 247.406 20.4461 247.071C20.3492 246.737 20.1829 246.426 19.958 246.16C19.7331 245.894 19.4547 245.678 19.1409 245.527C18.8271 245.376 18.485 245.292 18.1367 245.282C16.0578 245.282 13.8818 248.379 13.2858 250.133C13.2858 250.23 13.0433 251.248 12.9047 251.997C12.9047 251.553 12.9047 251.103 12.9047 250.68C12.9047 249.093 13.0086 247.638 13.1057 246.356C13.168 245.663 13.2373 244.97 13.3136 244.353C13.9165 243.937 16.3419 242.226 17.0903 240.999C17.8388 239.773 18.4139 238.082 17.8665 236.71C17.7488 236.383 17.5637 236.085 17.3232 235.835C17.0827 235.584 16.7923 235.387 16.4707 235.257C16.1491 235.126 15.8036 235.064 15.4567 235.076C15.1098 235.087 14.7691 235.172 14.457 235.324C12.5929 236.287 12.1008 240.036 12.378 241.879C12.378 242.039 13.1126 244.492 13.1403 244.471H13.1819C13.0987 245.06 13.0156 245.698 12.9463 246.391C12.8146 247.68 12.6829 249.128 12.6483 250.722C12.5896 252.437 12.6289 254.153 12.7661 255.864C12.9181 257.778 13.2381 259.675 13.7224 261.532V261.602C13.3898 261.082 12.4196 259.668 12.3364 259.564C11.1099 258.178 7.90827 256.134 5.98177 256.952C5.68622 257.101 5.42353 257.308 5.20918 257.56C4.99483 257.813 4.83317 258.105 4.73371 258.421C4.63426 258.737 4.59902 259.069 4.63008 259.399C4.66114 259.729 4.75787 260.049 4.91457 260.34C5.62835 261.65 7.33309 262.288 8.71906 262.496Z"/><path fill="#92E3A9" d="M44.6721 252.641C44.6721 252.641 45.3651 250.195 45.3651 250.036C45.6285 248.185 45.0325 244.45 43.1476 243.536C42.83 243.392 42.4856 243.317 42.137 243.316C41.7885 243.314 41.4436 243.387 41.1249 243.528C40.8063 243.669 40.5211 243.877 40.2881 244.136C40.055 244.395 39.8794 244.701 39.7727 245.032C39.2669 246.418 39.9044 248.13 40.6667 249.301C41.5537 250.68 44.6652 252.641 44.6721 252.641Z"/><path fill="#92E3A9" d="M263.24 251.83C264.744 252.489 268.423 252.406 268.423 252.406C268.423 252.406 267.633 250.001 267.564 249.855C266.753 248.165 264.203 245.379 262.124 245.656C261.78 245.712 261.452 245.841 261.161 246.032C260.87 246.224 260.623 246.474 260.435 246.768C260.248 247.061 260.124 247.391 260.072 247.736C260.021 248.08 260.042 248.432 260.135 248.767C260.482 250.202 261.958 251.276 263.24 251.83Z"/><path fill="#92E3A9" d="M264.506 262.495C266.066 262.717 269.357 261.768 269.614 261.692C270.155 263.57 270.82 265.41 271.602 267.201C272.053 268.247 272.545 269.28 273.044 270.326C272.746 269.883 272.476 269.495 272.427 269.446C271.207 268.025 268.006 265.981 266.079 266.834C265.762 266.977 265.479 267.187 265.249 267.448C265.018 267.708 264.845 268.015 264.741 268.347C264.637 268.68 264.604 269.03 264.645 269.376C264.686 269.722 264.799 270.055 264.978 270.354C265.671 271.65 267.396 272.294 268.782 272.495C270.168 272.696 273.002 271.948 273.744 271.733C273.938 272.128 274.132 272.53 274.333 272.925C275.282 274.817 276.239 276.702 277.105 278.58C277.417 279.238 277.701 279.903 277.985 280.569C277.715 280.174 277.493 279.876 277.451 279.806C276.225 278.42 273.03 276.376 271.097 277.194C270.78 277.339 270.498 277.55 270.268 277.811C270.038 278.073 269.865 278.38 269.761 278.712C269.657 279.045 269.624 279.395 269.665 279.741C269.705 280.087 269.817 280.421 269.995 280.721C270.688 282.017 272.42 282.654 273.799 282.855C275.178 283.056 277.749 282.377 278.65 282.162C278.92 282.855 279.198 283.548 279.426 284.241C279.572 284.706 279.752 285.149 279.87 285.627C279.988 286.105 280.133 286.556 280.258 287.013C280.473 287.907 280.701 288.829 280.888 289.709C281.027 290.319 281.145 290.908 281.263 291.49C280.958 290.832 280.341 289.55 280.279 289.446C279.281 287.859 276.426 285.385 274.395 285.898C274.06 285.994 273.75 286.159 273.483 286.383C273.216 286.607 272.999 286.884 272.846 287.197C272.694 287.51 272.608 287.851 272.596 288.199C272.583 288.547 272.644 288.894 272.774 289.217C273.279 290.603 274.853 291.504 276.239 291.913C277.708 292.356 280.965 291.947 281.374 291.913C281.568 292.89 281.748 293.839 281.907 294.733C282.254 296.722 282.517 298.496 282.718 300H284.104C283.861 298.441 283.55 296.59 283.134 294.511C282.94 293.52 282.711 292.467 282.441 291.386C283.423 290.993 284.381 290.542 285.31 290.035C286.384 291.199 289.128 292.557 289.468 292.73C289.093 293.652 288.719 294.546 288.352 295.378C287.59 297.131 286.869 298.683 286.231 300H287.721C288.269 298.78 288.872 297.394 289.495 295.842C289.883 294.906 290.271 293.902 290.667 292.869C291.062 292.952 294.284 293.604 295.788 293.264C297.174 292.959 298.802 292.19 299.419 290.839C299.572 290.525 299.658 290.183 299.67 289.834C299.682 289.485 299.621 289.138 299.49 288.815C299.359 288.491 299.162 288.199 298.911 287.956C298.66 287.714 298.361 287.527 298.033 287.408C296.044 286.715 293.016 289.002 291.9 290.506C291.838 290.596 291.207 291.635 290.861 292.301C291.02 291.878 291.179 291.469 291.339 291.033C291.651 290.166 291.942 289.293 292.26 288.358L292.676 286.972C292.822 286.507 292.919 286.008 293.05 285.516C293.321 284.387 293.535 283.223 293.743 282.051C294.506 282.329 297.208 283.271 298.594 283.167C299.98 283.063 301.74 282.557 302.544 281.317C302.745 281.032 302.884 280.708 302.951 280.366C303.018 280.024 303.012 279.672 302.934 279.332C302.855 278.993 302.706 278.674 302.496 278.396C302.285 278.118 302.018 277.888 301.713 277.72C299.849 276.764 296.508 278.531 295.185 279.855C295.102 279.938 294.256 280.991 293.799 281.58C293.91 280.887 294.027 280.194 294.118 279.446C294.374 277.367 294.568 275.253 294.776 273.147C294.838 272.502 294.908 271.858 294.977 271.213C295.247 271.317 298.442 272.502 300.008 272.398C301.394 272.294 303.147 271.788 303.958 270.548C304.158 270.263 304.296 269.939 304.362 269.597C304.429 269.255 304.423 268.903 304.344 268.564C304.266 268.225 304.117 267.906 303.907 267.628C303.697 267.35 303.431 267.12 303.126 266.951C301.262 265.988 297.922 267.755 296.592 269.079C296.495 269.176 295.282 270.7 294.991 271.102C295.136 269.682 295.303 268.275 295.517 266.889C295.802 265.018 296.205 263.166 296.723 261.345C296.848 261.394 300.188 262.648 301.782 262.537C303.168 262.44 304.928 261.927 305.732 260.687C305.932 260.402 306.07 260.078 306.136 259.736C306.203 259.394 306.197 259.042 306.118 258.703C306.04 258.364 305.891 258.045 305.681 257.767C305.471 257.489 305.205 257.258 304.9 257.09C303.036 256.127 299.696 257.901 298.372 259.218C298.269 259.322 296.987 260.957 296.744 261.297C296.744 261.193 296.799 261.082 296.827 260.978C297.401 259.169 298.136 257.416 299.024 255.739C299.495 254.803 300.008 253.937 300.521 253.112C301.117 253.41 303.847 254.734 305.309 254.796C306.771 254.859 308.497 254.533 309.467 253.41C309.698 253.149 309.871 252.842 309.975 252.509C310.079 252.177 310.111 251.826 310.07 251.48C310.029 251.134 309.915 250.8 309.736 250.501C309.557 250.202 309.316 249.944 309.031 249.745C307.284 248.58 303.771 249.98 302.309 251.13C302.232 251.193 301.491 251.927 300.964 252.468C301.2 252.101 301.435 251.713 301.657 251.359C302.537 250.042 303.417 248.885 304.207 247.894C304.665 247.319 305.088 246.813 305.489 246.335C306.224 246.335 309.19 246.231 310.486 245.642C311.782 245.053 313.202 243.944 313.507 242.496C313.591 242.157 313.603 241.805 313.541 241.462C313.48 241.118 313.347 240.792 313.151 240.503C312.954 240.215 312.7 239.971 312.403 239.788C312.106 239.605 311.774 239.486 311.428 239.44C309.349 239.218 306.862 242.073 306.099 243.785C306.037 243.93 305.275 246.363 305.309 246.363H305.358C304.963 246.813 304.54 247.298 304.097 247.839C303.279 248.837 302.371 249.98 301.463 251.304C300.464 252.7 299.55 254.156 298.726 255.663C297.792 257.34 297.011 259.098 296.391 260.915C296.394 260.938 296.394 260.962 296.391 260.985C296.391 260.368 296.391 258.649 296.391 258.518C296.148 256.661 294.589 253.216 292.531 252.835C292.186 252.781 291.835 252.801 291.498 252.892C291.162 252.983 290.848 253.144 290.578 253.364C290.308 253.584 290.088 253.859 289.931 254.17C289.774 254.482 289.685 254.822 289.669 255.171C289.551 256.647 290.618 258.123 291.657 259.051C292.836 260.105 296.1 261.13 296.363 261.2C295.774 263.065 295.311 264.968 294.977 266.896C294.776 268.019 294.61 269.155 294.457 270.292C294.457 269.765 294.457 269.287 294.457 269.224C294.215 267.367 292.655 263.923 290.597 263.542C290.253 263.488 289.902 263.507 289.566 263.598C289.23 263.688 288.917 263.849 288.647 264.068C288.377 264.288 288.157 264.562 288 264.872C287.842 265.183 287.752 265.523 287.735 265.87C287.617 267.346 288.685 268.822 289.724 269.758C290.764 270.693 293.549 271.622 294.284 271.837C294.235 272.273 294.173 272.71 294.118 273.154C293.868 275.233 293.626 277.353 293.328 279.39C293.224 280.083 293.092 280.818 292.96 281.532C292.96 281.061 292.96 280.659 292.96 280.603C292.718 278.746 291.165 275.295 289.1 274.914C288.756 274.861 288.405 274.881 288.069 274.973C287.733 275.064 287.42 275.225 287.15 275.445C286.88 275.665 286.66 275.94 286.503 276.25C286.346 276.561 286.256 276.901 286.238 277.249C286.121 278.725 287.188 280.201 288.234 281.13C289.281 282.058 291.789 282.911 292.655 283.209C292.503 283.902 292.35 284.65 292.17 285.35C292.039 285.814 291.942 286.279 291.782 286.736C291.623 287.193 291.484 287.665 291.339 288.122C291.02 288.988 290.701 289.882 290.375 290.721L289.682 292.412C289.793 291.719 289.987 290.284 289.987 290.159C289.965 288.513 289.522 286.9 288.698 285.475C288.701 285.292 288.689 285.109 288.664 284.927C288.616 284.584 288.497 284.255 288.315 283.961C288.133 283.666 287.891 283.413 287.605 283.217C287.32 283.022 286.996 282.888 286.656 282.824C286.315 282.761 285.966 282.769 285.628 282.848C283.605 283.389 282.316 286.944 282.219 288.815C282.219 288.926 282.288 290.132 282.344 290.894C282.247 290.45 282.15 290.028 282.039 289.57C281.824 288.676 281.588 287.789 281.346 286.833C281.207 286.376 281.062 285.911 280.923 285.447C280.785 284.983 280.597 284.505 280.431 284.027C280.036 282.932 279.572 281.844 279.087 280.756C279.87 280.569 282.649 279.862 283.757 279.002C284.866 278.143 286.044 276.757 286.037 275.281C286.046 274.933 285.982 274.586 285.848 274.265C285.715 273.943 285.515 273.653 285.262 273.413C285.009 273.173 284.709 272.989 284.381 272.873C284.052 272.756 283.703 272.71 283.355 272.738C281.277 272.966 279.461 276.286 279.087 278.122C279.087 278.233 278.941 279.578 278.886 280.319C278.588 279.668 278.29 279.016 277.971 278.365C277.035 276.494 276.038 274.623 275.047 272.752L274.146 271.033C274.43 270.964 277.742 270.195 278.997 269.238C280.112 268.386 281.283 266.993 281.277 265.517C281.285 265.169 281.221 264.822 281.087 264.5C280.954 264.179 280.754 263.888 280.501 263.649C280.249 263.409 279.948 263.225 279.62 263.109C279.291 262.992 278.942 262.946 278.595 262.974C276.516 263.202 274.7 266.522 274.326 268.358C274.326 268.497 274.118 270.437 274.104 270.929C273.446 269.661 272.801 268.4 272.219 267.125C271.422 265.409 270.739 263.643 270.175 261.837C270.307 261.837 273.772 261.019 275.026 260.042C276.135 259.19 277.313 257.797 277.299 256.321C277.309 255.973 277.245 255.627 277.112 255.305C276.98 254.983 276.781 254.693 276.528 254.453C276.276 254.213 275.976 254.029 275.648 253.913C275.32 253.796 274.971 253.75 274.624 253.778C272.545 254.006 270.729 257.326 270.348 259.155C270.348 259.301 270.133 261.387 270.126 261.768L270.016 261.449C269.5 259.624 269.146 257.757 268.955 255.87C268.844 254.831 268.789 253.826 268.754 252.856C269.447 252.773 272.434 252.371 273.681 251.616C274.929 250.86 276.197 249.634 276.349 248.151C276.397 247.806 276.372 247.454 276.275 247.12C276.178 246.785 276.012 246.475 275.787 246.209C275.562 245.942 275.283 245.727 274.97 245.575C274.656 245.424 274.314 245.341 273.966 245.33C271.887 245.33 269.711 248.428 269.115 250.181C269.115 250.278 268.872 251.297 268.733 252.045C268.733 251.602 268.733 251.151 268.733 250.729C268.733 249.142 268.837 247.686 268.934 246.404C268.997 245.711 269.066 245.018 269.142 244.402C269.745 243.986 272.171 242.274 272.919 241.048C273.668 239.821 274.243 238.13 273.695 236.758C273.578 236.431 273.392 236.133 273.152 235.883C272.912 235.633 272.621 235.436 272.299 235.305C271.978 235.174 271.632 235.113 271.286 235.124C270.939 235.136 270.598 235.22 270.286 235.372C268.422 236.335 267.93 240.084 268.241 241.928C268.241 242.087 268.934 244.54 269.004 244.519H269.038C268.955 245.108 268.872 245.746 268.803 246.439C268.671 247.728 268.539 249.176 268.505 250.77C268.446 252.485 268.485 254.202 268.623 255.912C268.775 257.826 269.095 259.723 269.579 261.581V261.65C269.246 261.13 268.276 259.717 268.193 259.613C266.966 258.227 263.765 256.182 261.838 257C261.521 257.145 261.238 257.355 261.007 257.616C260.777 257.878 260.604 258.185 260.5 258.518C260.396 258.85 260.363 259.201 260.404 259.548C260.445 259.894 260.558 260.228 260.736 260.527C261.416 261.65 263.12 262.288 264.506 262.495Z"/><path fill="#92E3A9" d="M300.459 252.641C300.459 252.641 301.152 250.195 301.152 250.036C301.416 248.185 300.82 244.45 298.935 243.536C298.617 243.392 298.273 243.317 297.924 243.316C297.576 243.314 297.231 243.387 296.912 243.528C296.593 243.669 296.308 243.877 296.075 244.136C295.842 244.395 295.667 244.701 295.56 245.032C295.054 246.418 295.691 248.13 296.454 249.301C297.341 250.68 300.425 252.641 300.459 252.641Z"/><path fill="#263238" stroke="#263238" stroke-linecap="round" stroke-linejoin="round" d="M234.124 107.587C234.124 107.587 234.339 99.7629 238.85 97.5453C243.361 95.3278 243.618 102.653 243.618 102.653C243.618 102.653 253.936 96.097 256.175 101.066C258.413 106.034 255.288 108.439 255.288 108.439C255.288 108.439 264.449 108.12 265.087 113.144C265.724 118.169 260.991 120.629 260.991 120.629C260.991 120.629 266.653 125.251 264.664 127.385C262.675 129.52 258.323 129.672 258.323 129.672C258.323 129.672 260.79 134.627 256.487 136.387C252.183 138.147 247.263 134.87 247.263 134.87C247.263 134.87 248.025 137.143 244.796 136.567C241.567 135.992 238.303 134.488 236.3 129.748C234.297 125.008 231.712 111.585 234.124 107.587Z"/><path fill="#BDBDBD" stroke="#263238" stroke-miterlimit="10" d="M186.487 258.692C186.487 258.692 183.916 268.504 183.958 269.592C184 270.68 183.106 273.147 183.861 273.847C185.275 275 186.774 276.045 188.345 276.973C188.985 276.964 189.61 276.774 190.146 276.425C190.32 276.269 190.459 276.079 190.556 275.867C190.653 275.655 190.704 275.425 190.708 275.192C190.708 274.824 189.675 273.286 189.536 272.926C189.398 272.565 191.428 267.874 192.198 265.538C192.774 263.453 193.186 261.326 193.431 259.177L186.487 258.692Z"/><path fill="#BDBDBD" d="M189.282 265.524C189.282 265.524 187.82 268.989 187.723 269.585C187.625 270.181 185.644 271.844 185.907 273.175C186.17 274.505 189.095 274.152 190.536 270.216"/><path stroke="#263238" stroke-miterlimit="10" d="M189.282 265.524C189.282 265.524 187.82 268.989 187.723 269.585C187.625 270.181 185.644 271.844 185.907 273.175C186.17 274.505 189.095 274.152 190.536 270.216"/><path fill="#92E3A9" stroke="#263238" stroke-miterlimit="10" d="M195.828 205.387C195.828 205.387 194.601 225.401 194.137 227.168C193.672 228.935 188.101 245.074 186.874 250.036C186.122 253.109 185.587 256.23 185.273 259.378L192.751 260.951L196.95 242.504C196.95 242.504 202.439 225.692 201.323 217.812C200.751 213.221 198.84 208.9 195.828 205.387Z"/><path fill="#92E3A9" d="M234.783 299.931C234.873 295.579 235.053 289.71 235.476 286.349C236.169 280.541 238.649 276.952 241.2 269.717C243.75 262.482 243.972 252.974 243.972 252.974L198.304 254.568C198.304 254.568 193.009 274.201 189.801 288.642C188.93 292.347 188.421 296.128 188.283 299.931"/><path stroke="#263238" stroke-miterlimit="10" d="M234.783 299.931C234.873 295.579 235.053 289.71 235.476 286.349C236.169 280.541 238.649 276.952 241.2 269.717C243.75 262.482 243.972 252.974 243.972 252.974L198.304 254.568C198.304 254.568 193.009 274.201 189.801 288.642C188.93 292.347 188.421 296.128 188.283 299.931"/><path fill="#263238" stroke="#263238" stroke-linecap="round" stroke-linejoin="round" d="M204.285 261.928L242.282 262.995L243.085 260.057L204.285 261.928Z"/><path fill="#fff" d="M202.365 299.239C202.365 299.239 201.616 275.477 201.596 262.58L202.365 299.239Z"/><path stroke="#263238" stroke-miterlimit="10" d="M202.365 299.239C202.365 299.239 201.616 275.477 201.596 262.58"/><path fill="#92E3A9" stroke="#263238" stroke-miterlimit="10" d="M231.489 155.119L237.033 158.847C237.033 158.847 243.596 164.709 245.211 169.56C246.825 174.411 245.654 203.219 244.026 212.525C242.397 221.832 246.465 233.426 247.913 239.968C249.362 246.509 249.992 258.678 249.992 258.678C249.992 258.678 251.018 260.106 233.222 260.723C215.426 261.339 203.015 262.268 201.559 262.559C200.68 262.739 199.788 262.853 198.891 262.899L198.198 256.579L196.473 261.783L192.779 260.937C192.779 260.937 195.073 249.628 195.648 245.221C196.223 240.813 199.855 225.817 199.903 220.176C199.952 214.535 195.239 205.457 194.318 199.872C193.396 194.286 195.253 184.709 199.862 177.474C204.47 170.239 207.561 167.44 216.569 160.053C225.578 152.665 231.489 155.119 231.489 155.119Z"/><path stroke="#263238" stroke-miterlimit="10" d="M217.049 239.559L235.642 241.665L234.595 236.801L222.995 235.803"/><path stroke="#263238" stroke-miterlimit="10" d="M210.548 235.532L209.605 238.72L214.269 239.247"/><path stroke="#263238" stroke-miterlimit="10" d="M217.525 203.675C216.651 202.866 215.849 201.983 215.127 201.035"/><path stroke="#263238" stroke-miterlimit="10" d="M223.992 209.136C223.992 209.136 222.031 207.653 219.883 205.81"/><path fill="#92E3A9" stroke="#263238" stroke-miterlimit="10" d="M231.49 155.118C231.49 155.118 225.579 152.658 216.57 160.052C207.562 167.447 204.478 170.253 199.849 177.474C197.083 181.938 195.245 186.913 194.443 192.103C194.554 192.643 194.672 193.191 194.804 193.752C197.382 204.646 200.251 209.913 200.251 209.913C200.251 209.913 205.24 185.09 213.923 175.028C222.606 164.966 237.027 158.847 237.027 158.847L231.49 155.118Z"/><path fill="#BDBDBD" stroke="#263238" stroke-miterlimit="10" d="M209.822 106.699C209.822 106.699 203.315 112.776 202.83 117.565C202.345 122.354 201.839 126.484 201.028 128.029C200.217 129.574 196.129 130.586 197.515 132.922C198.901 135.257 200.197 135.208 200.197 135.208C200.197 135.208 202.276 145.541 203.856 146.989C205.436 148.438 211.028 147.606 211.028 147.606L212.76 160.135C212.76 160.135 201.125 170.454 198.859 184.833C196.593 199.213 199.185 207.418 199.185 207.418C199.185 207.418 200.703 184.764 205.942 176.282C211.18 167.8 223.349 159.768 225.144 158.32C226.939 156.871 231.492 155.104 231.492 155.104C231.492 155.104 229.33 150.253 229.039 148.063C228.748 145.873 228.845 142.651 229.254 141.771C229.662 140.891 236.932 138.251 239.648 129.921C242.365 121.591 238.366 111.758 234.104 107.572C229.843 103.387 215.269 101.308 209.822 106.699Z"/><path fill="#263238" stroke="#263238" stroke-linecap="round" stroke-linejoin="round" d="M239.673 129.935C242.445 121.619 238.391 111.772 234.129 107.586C229.868 103.401 215.273 101.308 209.826 106.699C209.826 106.699 209.48 107.025 208.939 107.586C211.01 107.069 213.167 106.998 215.266 107.379C219.625 108.072 219.528 111.537 218.343 114.856C217.158 118.175 218.052 118.764 220.277 120.4C222.501 122.035 220.221 125.174 221.787 126.422C223.354 127.669 224.629 120.878 228.024 125.77C231.42 130.663 229.14 132.88 227.019 134.253C225.832 135.046 224.543 135.675 223.187 136.124C223.187 136.124 226.396 139.887 229.563 141.439C231.08 140.309 237.206 137.42 239.673 129.935Z"/><path stroke="#263238" stroke-miterlimit="10" d="M203.723 137.038C203.723 137.038 208.262 136.664 210.361 134.64"/><path fill="#263238" d="M206.606 126.318C206.64 127.392 206.231 128.279 205.698 128.3C205.164 128.321 204.693 127.461 204.651 126.387C204.61 125.313 205.026 124.426 205.559 124.405C206.093 124.384 206.564 125.244 206.606 126.318Z"/><path stroke="#263238" stroke-miterlimit="10" d="M204.65 121.931C204.65 121.931 206.113 119.963 208.205 122.284"/><path fill="#263238" stroke="#263238" stroke-miterlimit="10" d="M211.025 147.62L216.438 145.583L212.668 152.353L211.025 147.62Z"/><path fill="#fff" stroke="#263238" stroke-miterlimit="10" d="M195.44 247.085L188.344 276.973L194.712 278.456L198.219 256.6L195.44 247.085Z"/><path fill="#fff" stroke="#263238" stroke-miterlimit="10" d="M201.712 175.526C200.349 178.492 199.389 181.627 198.857 184.847C196.591 199.22 199.183 207.431 199.183 207.431C199.183 207.431 200.686 185.083 205.835 176.476C204.429 176.317 203.046 175.999 201.712 175.526Z"/><path fill="#92E3A9" d="M223.638 184.854L223.153 210.218L178.768 217.535L179.738 229.489C179.738 229.489 204.373 229.975 215.835 228.997C227.297 228.02 237.318 227.293 238.759 226.073C240.201 224.853 244.379 201.278 246.084 184.695C247.789 168.112 244.379 162.519 237.554 163.476"/><path stroke="#263238" stroke-miterlimit="10" d="M223.638 184.854L223.153 210.218L178.768 217.535L179.738 229.489C179.738 229.489 204.373 229.975 215.835 228.997C227.297 228.02 237.318 227.293 238.759 226.073C240.201 224.853 244.379 201.278 246.084 184.695C247.789 168.112 244.379 162.519 237.554 163.476"/><path fill="#fff" stroke="#263238" stroke-miterlimit="10" d="M152.213 216.461L148.658 227.244L152.123 229.129C152.123 229.129 156.524 232.539 158.935 234.382C161.347 236.225 163.197 236.225 164.479 235.657C165.761 235.089 171.575 226.856 172.282 225.297C172.989 223.738 169.586 219.06 166.184 217.064C162.781 215.069 159.947 215.082 157.951 215.678C156.062 216.09 154.143 216.351 152.213 216.461Z"/><path fill="#BDBDBD" stroke="#263238" stroke-miterlimit="10" d="M178.768 217.535L173.155 217.05C171.394 216.591 169.601 216.264 167.791 216.073C166.329 216.073 164.375 217.535 163.398 218.27C162.421 219.005 151.693 230.709 151.693 230.709C151.693 230.709 152.67 232.656 154.133 232.171C155.595 231.686 158.291 230.46 158.291 230.46C158.291 230.46 155.366 233.391 156.828 234.853C158.291 236.315 160.73 236.315 160.73 236.315L162.442 235.338C163.161 235.906 163.989 236.321 164.874 236.558C166.094 236.8 168.048 236.315 169.725 235.338C171.402 234.361 175.761 229.275 175.761 229.275L179.503 227.826L178.768 217.535Z"/><path fill="#fff" d="M154.146 216.925C154.146 216.925 161.243 212.809 164.361 213.945C167.48 215.082 171.603 222.033 170.466 223.031C169.33 224.028 167.486 223.592 166.495 222.601C165.667 221.848 164.763 221.182 163.8 220.612C161.931 221.662 159.837 222.246 157.695 222.317"/><path stroke="#263238" stroke-miterlimit="10" d="M154.146 216.925C154.146 216.925 161.243 212.809 164.361 213.945C167.48 215.082 171.603 222.033 170.466 223.031C169.33 224.028 167.486 223.592 166.495 222.601C165.667 221.848 164.763 221.182 163.8 220.612C161.931 221.662 159.837 222.246 157.695 222.317"/><path fill="#fff" stroke="#263238" stroke-miterlimit="10" d="M175.31 233.038L173.058 231.832C172.876 231.736 172.716 231.605 172.585 231.446C172.454 231.288 172.356 231.105 172.296 230.909C172.236 230.712 172.216 230.506 172.236 230.302C172.256 230.098 172.316 229.899 172.413 229.718C172.51 229.537 172.641 229.377 172.8 229.247C172.959 229.118 173.141 229.02 173.338 228.961C173.534 228.902 173.74 228.882 173.944 228.902C174.148 228.923 174.346 228.984 174.527 229.081L176.779 230.28C177.144 230.475 177.417 230.807 177.537 231.203C177.658 231.599 177.617 232.027 177.423 232.393C177.228 232.758 176.896 233.031 176.5 233.152C176.104 233.272 175.676 233.231 175.31 233.038Z"/><path fill="#fff" stroke="#263238" stroke-miterlimit="10" d="M173.321 235.449L171.068 234.243C170.713 234.048 170.446 233.722 170.326 233.334C170.206 232.946 170.241 232.527 170.424 232.164C170.621 231.809 170.947 231.545 171.335 231.426C171.723 231.307 172.141 231.343 172.503 231.527L174.755 232.725C175.112 232.92 175.38 233.246 175.5 233.634C175.621 234.022 175.584 234.442 175.4 234.804C175.206 235.162 174.88 235.429 174.491 235.549C174.103 235.67 173.683 235.634 173.321 235.449Z"/><path fill="#fff" stroke="#263238" stroke-miterlimit="10" d="M171.049 237.577L168.797 236.371C168.615 236.275 168.455 236.144 168.324 235.986C168.194 235.827 168.096 235.644 168.037 235.448C167.978 235.251 167.958 235.045 167.979 234.84C168 234.636 168.061 234.438 168.159 234.258C168.256 234.077 168.388 233.917 168.546 233.787C168.705 233.657 168.888 233.56 169.084 233.501C169.28 233.441 169.486 233.421 169.69 233.442C169.894 233.462 170.092 233.523 170.273 233.62L172.525 234.826C172.706 234.923 172.866 235.054 172.996 235.213C173.126 235.372 173.223 235.554 173.282 235.751C173.342 235.947 173.362 236.153 173.341 236.357C173.32 236.561 173.26 236.759 173.163 236.94C173.066 237.12 172.934 237.28 172.776 237.41C172.617 237.54 172.434 237.638 172.238 237.697C172.042 237.756 171.836 237.776 171.632 237.755C171.428 237.735 171.23 237.674 171.049 237.577Z"/><path fill="#fff" stroke="#263238" stroke-miterlimit="10" d="M166.266 237.681L165.677 237.369C165.495 237.273 165.335 237.142 165.204 236.983C165.073 236.825 164.975 236.642 164.915 236.446C164.856 236.25 164.835 236.043 164.855 235.839C164.875 235.635 164.935 235.436 165.032 235.255C165.228 234.89 165.56 234.618 165.956 234.497C166.352 234.376 166.78 234.417 167.146 234.611L167.735 234.93C167.916 235.026 168.077 235.157 168.208 235.315C168.338 235.474 168.436 235.656 168.496 235.853C168.556 236.049 168.577 236.255 168.557 236.46C168.536 236.664 168.476 236.862 168.379 237.043C168.283 237.224 168.151 237.384 167.993 237.514C167.834 237.644 167.651 237.741 167.455 237.8C167.258 237.86 167.052 237.88 166.848 237.859C166.644 237.839 166.446 237.778 166.266 237.681Z"/><path fill="#263238" stroke="#263238" stroke-linecap="round" stroke-linejoin="round" d="M152.21 216.461L122.426 203.87L123.528 223.599L148.122 229.233L152.21 216.461Z"/><path fill="#fff" stroke="#263238" stroke-miterlimit="10" d="M148.123 229.233L152.212 216.462L148.047 214.618L147.964 215.041L144.152 228.27L148.123 229.233Z"/><path fill="#fff" stroke="#263238" stroke-linecap="round" stroke-linejoin="round" d="M105.691 137.544L113.314 141.085C113.314 141.085 116.516 150.156 115.449 150.419C114.381 150.683 106.377 144.286 106.377 144.286L105.691 137.544Z"/><path fill="#fff" stroke="#263238" stroke-linecap="round" stroke-linejoin="round" d="M110.121 135.728L110.655 132.672C110.655 132.672 117.723 133.157 120.551 133.137C123.378 133.116 125.845 132.756 125.824 129.755C125.803 126.754 124.154 116.519 124.154 116.519C124.154 116.519 127.328 115.791 128.555 114.371C129.781 112.95 128.007 111.197 126.406 109.083C124.805 106.97 123.371 104.69 123.184 102.216C122.997 99.7417 118.7 91.6476 118.7 91.6476C118.7 91.6476 119.393 90.4072 117.086 87.7738C114.778 85.1405 102.942 84.6831 95.3674 88.4668C87.7931 92.2505 86.0676 97.7113 86.1022 103.713C86.1369 109.714 89.5671 118.175 89.5671 118.175C89.5671 118.175 87.3288 127.371 87.1556 127.877C86.9823 128.383 84.9727 132.326 84.9727 132.326C84.9727 132.326 94.4458 138.93 97.9038 141.896C101.362 144.862 109.172 149.935 109.22 147.19C109.269 144.446 109.581 138.251 109.581 138.251L110.121 135.728Z"/><path fill="#263238" d="M120.566 107.067C120.608 108.092 120.372 108.931 120.032 108.945C119.693 108.958 119.374 108.148 119.339 107.122C119.305 106.096 119.527 105.258 119.873 105.244C120.22 105.23 120.518 106.041 120.566 107.067Z"/><path stroke="#263238" stroke-linecap="round" stroke-linejoin="round" stroke-width="2" d="M115.594 103.678C115.594 103.678 117.167 101.017 121.242 102.583"/><path fill="#263238" stroke="#263238" stroke-linecap="round" stroke-linejoin="round" d="M125.824 129.755C125.824 126.747 124.154 116.519 124.154 116.519C124.154 116.519 122.207 115.472 118.499 116.373C114.792 117.274 113.78 123.303 113.073 123.996C112.366 124.689 107.758 120.531 105.97 117.683C104.182 114.835 102.921 109.963 102.727 107.115C102.533 104.267 109.234 102.832 110.28 100.185C111.327 97.538 106.386 94.7176 108.111 92.9505C109.837 91.1833 113.406 91.8625 115.173 92.202C116.377 92.3649 117.604 92.1722 118.7 91.6476C118.7 91.6476 119.393 90.4072 117.085 87.7738C114.778 85.1405 102.942 84.6831 95.3673 88.4668C87.793 92.2505 86.0674 97.7113 86.1021 103.713C86.1367 108.563 88.382 115.05 89.2274 117.337C89.9429 117.646 90.714 117.806 91.4935 117.808C92.1865 117.628 92.7132 115.507 93.0527 113.38C93.3923 111.252 98.4996 108.757 98.4996 108.757C98.4996 108.757 99.4213 115.112 99.4282 116.346C99.4351 117.579 98.7352 123.768 102.145 126.74C104.814 128.953 107.66 130.944 110.655 132.693C110.655 132.693 117.723 133.178 120.55 133.157C123.378 133.137 125.845 132.756 125.824 129.755Z"/><path fill="#fff" d="M99.5862 113.137C99.5862 113.137 98.1171 104.668 95.6501 105.036C93.183 105.403 91.7832 108.591 93.0445 112.659C94.3057 116.726 96.7796 116.345 98.1864 115.985"/><path stroke="#263238" stroke-linecap="round" stroke-linejoin="round" d="M99.5862 113.137C99.5862 113.137 98.1171 104.668 95.6501 105.036C93.183 105.403 91.7832 108.591 93.0445 112.659C94.3057 116.726 96.7796 116.345 98.1864 115.985"/><path stroke="#fff" stroke-linecap="round" stroke-linejoin="round" d="M116.934 119.561C116.934 119.561 118.354 121.321 122.062 121.301"/><path fill="#263238" stroke="#263238" stroke-linecap="round" stroke-linejoin="round" d="M77.2787 299.931H114.7C114.825 297.963 116.28 290.396 116.28 285.434C116.28 279.703 120.223 242.732 120.223 242.732L71.5547 242.095L73.1486 264.721L77.2787 299.931Z"/><path fill="#263238" stroke="#263238" stroke-linecap="round" stroke-linejoin="round" d="M82.1308 133.615C82.1308 133.615 73.6001 144.557 71.1955 150.69C68.7908 156.823 66.9267 157.89 67.4603 165.624C67.9939 173.358 71.736 204.3 71.736 204.3L64.2656 244.583C73.0828 247.742 82.3766 249.364 91.7425 249.378C107.21 249.378 113.918 248.048 114.951 247.514C115.983 246.981 125.345 244.583 125.345 244.583C125.345 244.583 125.345 198.97 122.407 183.233C119.469 167.495 115.741 155.513 114.41 152.554C113.08 149.595 108.804 140.018 108.804 140.018L82.1308 133.615Z"/><path fill="#263238" stroke="#263238" stroke-linecap="round" stroke-linejoin="round" d="M114.431 152.554C113.094 149.623 108.825 140.018 108.825 140.018L82.1312 133.615C82.1312 133.615 80.3294 135.93 78.1465 139.027C83.9606 142.402 98.3539 150.746 99.2063 150.953C100.274 151.224 105.61 150.69 105.61 150.69L103.226 153.621C103.226 153.621 109.629 158.694 111.763 160.822C112.886 161.944 116.143 164.91 118.984 167.474C117.051 159.81 115.263 154.398 114.431 152.554Z"/><path fill="#fff" stroke="#263238" stroke-linecap="round" stroke-linejoin="round" d="M102.158 145.887L111.229 153.087L118.693 166.427L113.897 146.955L104.029 141.355L102.158 145.887Z"/><path fill="#fff" stroke="#263238" stroke-linecap="round" stroke-linejoin="round" d="M84.025 128.549L111.952 141.133V151.002L80.0195 134.682L84.025 128.549Z"/><path fill="#92E3A9" stroke="#263238" stroke-miterlimit="10" d="M120.951 229.497H72.6914V268.546H120.951V229.497Z"/><path fill="#fff" stroke="#263238" stroke-linecap="round" stroke-linejoin="round" d="M99.7813 248.11C99.7813 248.11 103.371 252.788 104.778 253.259C105.962 253.746 106.942 254.627 107.55 255.754C108.173 256.69 108.936 263.709 109.421 264.181C109.906 264.652 109.892 265.74 108.173 264.957C106.455 264.174 105.401 261.492 105.401 261.492L106.025 267.729C106.025 267.729 107.411 268.041 106.337 268.824C105.263 269.607 104.307 270.695 103.371 270.21C102.539 269.714 101.756 269.138 101.036 268.491C99.9211 268.865 98.7341 268.972 97.5707 268.803C95.859 268.491 96.1847 269.115 94.6116 268.02C93.0386 266.925 93.0455 268.179 92.2694 266.149C91.0603 262.515 90.0699 258.813 89.3034 255.061C88.9915 253.031 88.6797 250.21 88.6797 250.21L99.7813 248.11Z"/><path fill="#fff" stroke="#263238" stroke-linecap="round" stroke-linejoin="round" d="M100.413 245.144L101.501 249.981L88.0846 251.852L87.4609 247.015L100.413 245.144Z"/><path fill="#263238" d="M83.2207 143.227C83.2207 143.227 73.8861 146.158 73.6228 150.427C73.3595 154.695 70.2618 206.468 71.5993 209.933C72.9368 213.398 86.055 248.512 86.055 248.512L101.259 246.648C101.259 246.648 93.4699 205.928 93.2204 205.124C92.971 204.32 98.4455 158.957 98.4455 158.957"/><path stroke="#263238" stroke-linecap="round" stroke-linejoin="round" d="M83.2207 143.227C83.2207 143.227 73.8861 146.158 73.6228 150.427C73.3595 154.695 70.2618 206.468 71.5993 209.933C72.9368 213.398 86.055 248.512 86.055 248.512L101.259 246.648C101.259 246.648 93.4699 205.928 93.2204 205.124C92.971 204.32 98.4455 158.957 98.4455 158.957"/><path stroke="#878787" stroke-linecap="round" stroke-linejoin="round" d="M96.6345 171.985L93.1973 205.124L96.4751 225.712"/><path stroke="#878787" stroke-linecap="round" stroke-linejoin="round" d="M97.1626 166.913L96.9824 168.673"/><path stroke="#878787" stroke-linecap="round" stroke-linejoin="round" d="M72.5491 161.785L71.5234 192.9"/><path stroke="#878787" stroke-linecap="round" stroke-linejoin="round" d="M107.416 220.279L117.672 219.905L118.594 223.599L101.602 224.687"/><path stroke="#878787" stroke-linecap="round" stroke-linejoin="round" d="M98.875 220.584L104.336 220.39"/><path stroke="#878787" stroke-linecap="round" stroke-linejoin="round" d="M80.4141 139.907L99.2286 150.953L105.632 150.69L103.227 153.621L115.625 163.496"/><path stroke="#263238" stroke-miterlimit="10" d="M0 299.931H316.341"/><path stroke="#263238" stroke-miterlimit="10" d="M89.3984 14.3445V61.1834"/><path stroke="#263238" stroke-miterlimit="10" d="M161.344 14.3445V61.1834"/><path stroke="#263238" stroke-miterlimit="10" d="M233.291 14.3445V61.1834"/></svg>