<svg class="herobanner-blob" viewBox="0 0 200 200" xmlns="http://www.w3.org/2000/svg">
      <path fill="#1B4159" d="M36.7,-64.7C45.1,-58.6,47.9,-43.9,49.2,-31.7C50.5,-19.5,50.3,-9.7,49.7,-0.3C49.1,9.1,48.1,18.2,46,28.9C43.9,39.7,40.7,52.3,32.8,63.6C24.9,75,12.5,85.2,-0.5,86C-13.4,86.8,-26.7,78.1,-37.7,68.6C-48.7,59,-57.3,48.5,-65.7,36.9C-74,25.4,-82.2,12.7,-78.8,2C-75.4,-8.8,-60.5,-17.5,-52.5,-29.7C-44.4,-41.9,-43.4,-57.6,-35.8,-64.2C-28.2,-70.7,-14.1,-68.2,0,-68.2C14.1,-68.2,28.2,-70.8,36.7,-64.7Z" transform="translate(100 100)" />
    </svg>