<svg width="800" height="869" viewBox="0 0 800 869" fill="none" xmlns="http://www.w3.org/2000/svg">
<g filter="url(#filter0_ddd_127_729)">
<path fill-rule="evenodd" clip-rule="evenodd" d="M975.171 -1.34342C1015.88 97.7121 978.407 198.437 971.698 299.816C965.695 390.525 975.326 485.287 937.876 562.194C898.323 643.419 837.781 713.409 756.104 742.555C674.827 771.559 582.025 741.874 492.334 721.183C398.649 699.572 271.24 717.593 194 648.5C114.194 577.112 72.5 449.5 105 353C145.92 231.5 49.4577 130.672 95.6663 50.137C138.21 -24.0106 235.824 -27.2597 303.394 -74.6463C364.795 -117.707 403.361 -189.297 473.991 -215.18C560.731 -246.967 657.186 -278.296 750.484 -238.489C847.294 -197.183 932.633 -104.857 975.171 -1.34342Z" fill="#1B4159"/>
<path fill-rule="evenodd" clip-rule="evenodd" d="M975.171 -1.34342C1015.88 97.7121 978.407 198.437 971.698 299.816C965.695 390.525 975.326 485.287 937.876 562.194C898.323 643.419 837.781 713.409 756.104 742.555C674.827 771.559 582.025 741.874 492.334 721.183C398.649 699.572 271.24 717.593 194 648.5C114.194 577.112 72.5 449.5 105 353C145.92 231.5 49.4577 130.672 95.6663 50.137C138.21 -24.0106 235.824 -27.2597 303.394 -74.6463C364.795 -117.707 403.361 -189.297 473.991 -215.18C560.731 -246.967 657.186 -278.296 750.484 -238.489C847.294 -197.183 932.633 -104.857 975.171 -1.34342Z" stroke="#1B4159" stroke-width="5"/>
</g>
<defs>
<filter id="filter0_ddd_127_729" x="0.320312" y="-308.701" width="1076.04" height="1176.84" filterUnits="userSpaceOnUse" color-interpolation-filters="sRGB">
<feFlood flood-opacity="0" result="BackgroundImageFix"/>
<feColorMatrix in="SourceAlpha" type="matrix" values="0 0 0 0 0 0 0 0 0 0 0 0 0 0 0 0 0 0 127 0" result="hardAlpha"/>
<feOffset dy="2.06153"/>
<feGaussianBlur stdDeviation="2.66004"/>
<feColorMatrix type="matrix" values="0 0 0 0 0 0 0 0 0 0 0 0 0 0 0 0 0 0 0.185791 0"/>
<feBlend mode="normal" in2="BackgroundImageFix" result="effect1_dropShadow_127_729"/>
<feColorMatrix in="SourceAlpha" type="matrix" values="0 0 0 0 0 0 0 0 0 0 0 0 0 0 0 0 0 0 127 0" result="hardAlpha"/>
<feOffset dy="6.92426"/>
<feGaussianBlur stdDeviation="8.93452"/>
<feColorMatrix type="matrix" values="0 0 0 0 0 0 0 0 0 0 0 0 0 0 0 0 0 0 0.274209 0"/>
<feBlend mode="normal" in2="effect1_dropShadow_127_729" result="effect2_dropShadow_127_729"/>
<feColorMatrix in="SourceAlpha" type="matrix" values="0 0 0 0 0 0 0 0 0 0 0 0 0 0 0 0 0 0 127 0" result="hardAlpha"/>
<feOffset dy="31"/>
<feGaussianBlur stdDeviation="40"/>
<feColorMatrix type="matrix" values="0 0 0 0 0 0 0 0 0 0 0 0 0 0 0 0 0 0 0.46 0"/>
<feBlend mode="normal" in2="effect2_dropShadow_127_729" result="effect3_dropShadow_127_729"/>
<feBlend mode="normal" in="SourceGraphic" in2="effect3_dropShadow_127_729" result="shape"/>
</filter>
</defs>
</svg>
