<svg width="494" height="228" viewBox="0 0 494 228" fill="none" xmlns="http://www.w3.org/2000/svg">
<line x1="3.5" y1="2" x2="3.5" y2="226" stroke="white" stroke-width="3"/>
<path d="M7.44444 203.493L2 226H492V2L486.556 2.6155C481.111 3.23101 470.222 4.46201 459.333 10.7152C448.444 16.9684 437.556 28.2438 426.667 48.3187C415.778 68.3937 404.889 97.2683 394 115.892C383.111 134.516 372.222 142.89 361.333 145.28C350.444 147.671 339.556 144.078 328.667 131.277C317.778 118.475 306.889 96.4633 296 96.8482C285.111 97.2331 274.222 120.014 263.333 141.632C252.444 163.249 241.556 183.702 230.667 180.568C219.778 177.434 208.889 150.713 198 153.897C187.111 157.082 176.222 190.172 165.333 204.162C154.444 218.153 143.556 213.043 132.667 207.031C121.778 201.018 110.889 194.103 100 196.434C89.1111 198.764 78.2222 210.342 67.3333 194.304C56.4444 178.266 45.5556 134.613 34.6667 135.294C23.7778 135.974 12.8889 180.987 7.44444 203.493Z" fill="url(#paint0_linear_404_1988)" fill-opacity="0.2" stroke="#92E3A9" stroke-width="3"/>
<defs>
<linearGradient id="paint0_linear_404_1988" x1="247" y1="14.7273" x2="247" y2="226" gradientUnits="userSpaceOnUse">
<stop stop-color="#00FF48"/>
<stop offset="0.901042" stop-color="#60BC7A" stop-opacity="0"/>
</linearGradient>
</defs>
</svg>
